<?xml version="1.0" encoding="utf-8"?>
<!-- Generator: Adobe Illustrator 19.0.0, SVG Export Plug-In . SVG Version: 6.00 Build 0)  -->
<svg version="1.1" id="Layer_1" xmlns="http://www.w3.org/2000/svg" xmlns:xlink="http://www.w3.org/1999/xlink" x="0px" y="0px"
	 viewBox="-329 181 200 200" style="enable-background:new -329 181 200 200;" xml:space="preserve">
<style type="text/css">
	.st0{fill:url(#SVGID_1_);}
	.st1{fill:url(#SVGID_2_);}
	.st2{fill:#F2F8F6;}
	.st3{fill:#F1F8F3;}
</style>
<g>
	
		<linearGradient id="SVGID_1_" gradientUnits="userSpaceOnUse" x1="-1405.3821" y1="0.7226" x2="-1405.3821" y2="1.4737" gradientTransform="matrix(255.7156 0 0 255.7156 359149.125 4.1103)">
		<stop  offset="0" style="stop-color:#FDFDFD"/>
		<stop  offset="1" style="stop-color:#CBCBCB"/>
	</linearGradient>
	<circle class="st0" cx="-229" cy="281" r="100"/>
	
		<linearGradient id="SVGID_2_" gradientUnits="userSpaceOnUse" x1="-1404.9963" y1="0.777" x2="-1404.9963" y2="1.5281" gradientTransform="matrix(233.8133 0 0 233.8133 328277.7188 15.2572)">
		<stop  offset="0" style="stop-color:#B2E198"/>
		<stop  offset="1" style="stop-color:#04A171"/>
	</linearGradient>
	<circle class="st1" cx="-229.1" cy="281.1" r="91.4"/>
	<g transform="translate(45.511111, 52.622222)">
		<path class="st2" d="M-296,214.4c-1,1.7-2.1,3.4-3.1,5c-1.1-3-2.1-6-2.9-8.9c2.9-0.4,6-0.7,9.3-1
			C-293.9,211.1-295,212.7-296,214.4L-296,214.4L-296,214.4z M-215.4,220.2c-3.2-3.1-7.8-5.9-13.8-8.5c-11.7-5-27.3-8.2-44-9
			c-2-0.1-4-0.2-5.9-0.2c12.8-15.2,25.1-23.4,32.2-23.6c1.5-0.1,2.8,0.2,3.8,0.9c3.4,2.2,4.3,9,2.5,18.1c-0.3,1.8,0.8,3.6,2.6,3.9
			c1.8,0.3,3.6-0.8,3.9-2.6c3.1-15.8-1.2-22.3-5.4-25c-2.2-1.4-4.8-2.1-7.7-2c-11,0.4-26.5,12.2-40.6,30.3c-5.6,0.2-11,0.6-16,1.4
			c-0.6-2.6-1-5-1.3-7.4c-1.3-10.4,0.3-17.8,4.2-19.8c0.6-0.3,1.3-0.5,2.1-0.6c3.4-0.2,8.3,2.1,13.8,6.6c1.4,1.2,3.5,1,4.7-0.4
			c1.2-1.4,1-3.5-0.4-4.7c-7-5.8-13.1-8.5-18.5-8.1c-1.7,0.2-3.2,0.6-4.6,1.3c-3.6,1.8-6.1,5.4-7.3,10.4c-1,4.3-1.2,9.8-0.5,16.2
			c0.3,2.5,0.7,5.1,1.4,7.8c-3.9,0.8-7.6,1.8-10.9,3c-14.3,5.2-17.6,12-17.9,16.8c-0.2,4.6,2.1,11.4,14.7,17.9
			c1.6,0.9,3.7,0.2,4.5-1.4c0.9-1.6,0.2-3.7-1.4-4.5c-7.2-3.8-11.3-8-11-11.6c0.2-5.2,9-10.6,23.7-13.7c1.4,5,3.1,10.1,5.2,15.3
			c-5.3,9.9-9.2,19.8-11.2,28.5c-1.4,6.2-1.8,11.7-1.3,16.1c0.7,5.2,2.8,9,6.2,11.1c1.8,1.1,4.1,2,7.1,2c4.4,0,10.4-1.8,18.2-7.4
			c1.5-1,1.8-3.1,0.8-4.6c-1-1.5-3.1-1.8-4.6-0.8c-7.8,5.5-14.4,7.5-17.8,5.3c-3.6-2.4-4.4-9.9-2.1-20.2c1.6-6.8,4.3-14.3,8.2-22.1
			c0.8,1.8,1.7,3.5,2.6,5.3c7.6,15,16.9,27.9,26.2,36.6c4.7,4.3,9.1,7.4,13.3,9.1c2.5,1,4.9,1.5,7,1.5c2,0,3.9-0.5,5.7-1.4
			c3.4-1.8,5.8-5.1,7.2-9.9c1.1-4.1,1.4-9.3,0.7-15.3c-1.2-11.8-5.7-26.2-12.6-40.6c-0.8-1.7-2.8-2.3-4.5-1.6
			c-1.7,0.8-2.3,2.8-1.6,4.5c6.6,13.7,10.8,27.3,11.9,38.4c1,9.8-0.6,16.6-4.3,18.6c-3.8,2-10.7-1.1-18.5-8.3
			c-8.7-8.2-17.5-20.5-24.8-34.7c-1.7-3.3-3.2-6.6-4.6-9.8c1.8-3.1,3.6-6.2,5.6-9.3c2-3.1,4.1-6.1,6.2-8.9c0.6,0,1.1,0,1.7,0
			c2.9,0,5.9,0.1,9.1,0.2c15.9,0.8,30.8,3.8,41.8,8.6c9.7,4.1,15.3,9.1,15,13.5c-0.2,3.7-4.6,7.5-12.2,10.5
			c-1.7,0.6-2.6,2.6-1.9,4.3c0.5,1.4,1.8,2.2,3.1,2.2c0.4,0,0.8-0.1,1.2-0.2c13.2-5.1,16.3-11.7,16.6-16.3
			C-209.8,227.8-211.6,223.8-215.4,220.2L-215.4,220.2L-215.4,220.2z"/>
		<path class="st3" d="M-281.4,229.3c0,4,3.3,7.3,7.3,7.3s7.3-3.3,7.3-7.3s-3.3-7.3-7.3-7.3S-281.4,225.2-281.4,229.3"/>
	</g>
</g>
</svg>
