<?xml version="1.0" encoding="utf-8"?>
<!-- Generator: Adobe Illustrator 19.0.0, SVG Export Plug-In . SVG Version: 6.00 Build 0)  -->
<svg version="1.1" id="Layer_1" xmlns="http://www.w3.org/2000/svg" xmlns:xlink="http://www.w3.org/1999/xlink" x="0px" y="0px"
	 viewBox="-329 137 200 288" style="enable-background:new -329 137 200 288;" xml:space="preserve">
<style type="text/css">
	.st0{fill:#1F72B5;}
	.st1{fill:#51A3DC;}
	.st2{fill:#EBEBEB;}
	.st3{fill:#CECECE;}
</style>
<g id="XMLID_1_">
	<polygon id="XMLID_11_" class="st0" points="-310.8,401.9 -329,193.6 -129,193.6 -147.2,401.8 -229.2,425 	"/>
	<polygon id="XMLID_10_" class="st1" points="-229,407.3 -162.8,388.6 -147.2,210.6 -229,210.6 	"/>
	<polygon id="XMLID_35_" class="st2" points="-294,258.7 -296.4,234.6 -161.6,234.6 -163.2,262.5 -220.2,288.2 -165.5,288.2 
		-171.4,367.4 -226.5,382.5 -283.7,368.4 -287.2,328.2 -262,328.2 -260.6,349.4 -227.4,355.7 -196.8,346.1 -195.5,312.2 
		-289.4,312.2 -291.2,287 -229,259.2 	"/>
	<g id="XMLID_2_">
		<polygon id="XMLID_39_" class="st3" points="-291.2,287 -289.4,312.2 -229,312.2 -229,259.2 		"/>
		<polygon id="XMLID_40_" class="st3" points="-260.6,349.4 -262,328.2 -287.2,328.2 -283.7,368.4 -229,381.9 -229,355.4 		"/>
		<polygon id="XMLID_41_" class="st3" points="-296.4,234.6 -294,258.7 -229,259.2 -229,234.6 		"/>
	</g>
	<g id="XMLID_36_">
		<polygon id="XMLID_34_" points="-210.2,146.6 -210.2,137 -247.8,137 -247.8,159.4 -222,159.4 -222,166.6 -248.6,166.6 
			-248.6,175.4 -211,175.4 -211,152.2 -237.6,152.2 -237.6,146.6 		"/>
		<polygon id="XMLID_38_" points="-278.4,159.6 -278.4,166.6 -251.7,166.6 -251.7,175.4 -289.4,175.4 -289.4,152.4 -289.4,137 
			-252.5,137 -252.5,146.6 -278.4,146.6 		"/>
		<polygon id="XMLID_37_" points="-168.6,146.6 -168.6,137 -206.3,137 -206.3,159.4 -180.4,159.4 -180.4,166.6 -207.1,166.6 
			-207.1,175.4 -169.4,175.4 -169.4,152.2 -196,152.2 -196,146.6 		"/>
	</g>
</g>
</svg>
