<?xml version="1.0" encoding="utf-8"?>
<!-- Generator: Adobe Illustrator 19.0.0, SVG Export Plug-In . SVG Version: 6.00 Build 0)  -->
<svg version="1.1" id="Layer_1" xmlns="http://www.w3.org/2000/svg" xmlns:xlink="http://www.w3.org/1999/xlink" x="0px" y="0px"
	 viewBox="-379 137 200 200" style="enable-background:new -379 137 200 200;" xml:space="preserve">
<style type="text/css">
	.st0{fill:#362701;}
	.st1{fill:#F03C2E;}
	.st2{fill:#161312;}
</style>
<g>
	<g id="XMLID_1_">
		<path id="XMLID_6_" class="st0" d="M-259.2,165.5c-4.4,0-7.7,2.2-7.7,7.4c0,3.9,2.2,6.6,7.4,6.6c4.5,0,7.5-2.6,7.5-6.8
			C-251.9,168-254.6,165.5-259.2,165.5L-259.2,165.5z M-267.9,202.1c-1,1.3-2.1,2.6-2.1,4.2c0,3.2,4.1,4.2,9.7,4.2
			c4.6,0,11-0.3,11-4.6c0-2.6-3-2.7-6.9-3L-267.9,202.1L-267.9,202.1z M-244.3,165.7c1.4,1.8,3,4.4,3,8.1c0,8.9-7,14-17,14
			c-2.6,0-4.9-0.3-6.3-0.7l-2.6,4.2l7.8,0.5c13.8,0.9,21.9,1.3,21.9,11.8c0,9.2-8.1,14.3-21.9,14.3c-14.4,0-19.9-3.7-19.9-10
			c0-3.6,1.6-5.5,4.4-8.2c-2.6-1.1-3.5-3.1-3.5-5.3c0-1.8,0.9-3.4,2.3-4.9s3-3,5-4.8c-3.9-1.9-6.9-6.1-6.9-11.9
			c0-9.2,6.1-15.4,18.2-15.4c3.4,0,5.5,0.3,7.4,0.8h15.5v6.8L-244.3,165.7"/>
		<path id="XMLID_9_" class="st0" d="M-222.9,151.3c-4.6,0-7.2-2.6-7.2-7.2s2.6-7,7.2-7c4.6,0,7.3,2.5,7.3,7
			C-215.7,148.6-218.3,151.3-222.9,151.3z M-233.2,199.1v-6.2l4.1-0.6c1.1-0.2,1.3-0.4,1.3-1.6v-23.4c0-0.9-0.2-1.4-1-1.7l-4.3-1.5
			l0.9-6.5h16.5v33c0,1.3,0.1,1.4,1.3,1.6l4.1,0.6v6.3L-233.2,199.1"/>
		<path id="XMLID_10_" class="st0" d="M-179,196.1c-3.4,1.7-8.5,3.2-13,3.2c-9.5,0-13-3.8-13-12.8v-20.9c0-0.5,0-0.8-0.6-0.8h-5.6
			v-7.1c7-0.8,9.8-4.3,10.7-13h7.6v11.4c0,0.6,0,0.8,0.6,0.8h11.2v8h-11.8v19c0,4.7,1.1,6.6,5.4,6.6c2.2,0,4.6-0.6,6.5-1.3
			L-179,196.1"/>
		<path id="XMLID_11_" class="st1" d="M-297.1,175.1l-36.5-36.5c-2.1-2.1-5.5-2.1-7.6,0l-7.6,7.6l9.6,9.6c2.2-0.7,4.8-0.2,6.6,1.5
			c1.8,1.8,2.3,4.4,1.5,6.6l9.3,9.3c2.2-0.8,4.8-0.2,6.6,1.5c2.5,2.5,2.5,6.6,0,9c-2.5,2.5-6.6,2.5-9,0c-1.8-1.9-2.3-4.6-1.4-7
			l-8.6-8.6v22.7c0.6,0.3,1.2,0.7,1.7,1.2c2.5,2.5,2.5,6.6,0,9c-2.5,2.5-6.6,2.5-9,0s-2.5-6.6,0-9c0.6-0.6,1.4-1.1,2.1-1.4v-22.9
			c-0.8-0.3-1.4-0.8-2.1-1.4c-1.9-1.9-2.3-4.6-1.4-7l-9.4-9.4l-25,25c-2.1,2.1-2.1,5.5,0,7.6l36.5,36.5c2.1,2.1,5.5,2.1,7.6,0
			l36.2-36.2C-295,180.6-295,177.3-297.1,175.1"/>
	</g>
	<g id="g3018">
		<path id="path3024" class="st2" d="M-340.4,306.1h-16.8c-0.4,0-0.8,0.4-0.8,0.8v8.2c0,0.4,0.4,0.8,0.8,0.8h6.6v10.2
			c0,0-1.5,0.5-5.5,0.5c-4.8,0-11.5-1.8-11.5-16.5c0-14.7,7-16.7,13.5-16.7c5.7,0,8.1,1,9.7,1.5c0.5,0.1,0.9-0.3,0.9-0.8l1.9-7.9
			c0-0.2-0.1-0.4-0.3-0.6c-0.6-0.5-4.5-2.6-14.2-2.6c-11.2,0-22.7,4.8-22.7,27.7c0,22.9,13.2,26.4,24.3,26.4
			c9.2,0,14.8-3.9,14.8-3.9c0.2-0.1,0.3-0.4,0.3-0.6v-25.6C-339.6,306.4-339.9,306.1-340.4,306.1"/>
		<path id="path3026" class="st2" d="M-253.8,285.7c0-0.4-0.3-0.8-0.8-0.8h-9.5c-0.4,0-0.8,0.4-0.8,0.8c0,0,0,18.3,0,18.3h-14.7
			v-18.3c0-0.4-0.3-0.8-0.8-0.8h-9.5c-0.4,0-0.8,0.4-0.8,0.8v49.5c0,0.4,0.4,0.8,0.8,0.8h9.5c0.4,0,0.8-0.4,0.8-0.8V314h14.7
			c0,0,0,21.2,0,21.2c0,0.4,0.4,0.8,0.8,0.8h9.5c0.4,0,0.8-0.4,0.8-0.8V285.7"/>
		<path id="path3028" class="st2" d="M-322.5,292.2c0-3.4-2.7-6.2-6.1-6.2c-3.4,0-6.1,2.8-6.1,6.2c0,3.4,2.7,6.2,6.1,6.2
			C-325.3,298.3-322.5,295.6-322.5,292.2"/>
		<path id="path3030" class="st2" d="M-323.2,324.7c0-1.3,0-22.8,0-22.8c0-0.4-0.4-0.8-0.8-0.8h-9.4c-0.4,0-0.8,0.4-0.8,0.9
			c0,0,0,27.5,0,32.7c0,1,0.6,1.2,1.4,1.2c0,0,4,0,8.5,0c0.9,0,1.2-0.5,1.2-1.3C-323.2,332.9-323.2,326.1-323.2,324.7"/>
		<path id="path3032" class="st2" d="M-217.9,301.2h-9.4c-0.4,0-0.8,0.4-0.8,0.8v24.3c0,0-2.4,1.7-5.8,1.7c-3.4,0-4.3-1.5-4.3-4.8
			c0-3.3,0-21.2,0-21.2c0-0.4-0.3-0.8-0.8-0.8h-9.5c-0.4,0-0.8,0.4-0.8,0.8c0,0,0,12.9,0,22.8c0,9.8,5.5,12.2,13,12.2
			c6.2,0,11.2-3.4,11.2-3.4s0.2,1.8,0.3,2c0.1,0.2,0.4,0.4,0.7,0.4l6.1,0c0.4,0,0.8-0.4,0.8-0.8l0-33.2
			C-217.1,301.5-217.4,301.2-217.9,301.2"/>
		<path id="path3034" class="st2" d="M-195.9,328c-3.3-0.1-5.5-1.6-5.5-1.6v-15.7c0,0,2.2-1.3,4.9-1.6c3.4-0.3,6.6,0.7,6.6,8.8
			C-189.9,326.4-191.4,328.1-195.9,328L-195.9,328z M-192.2,300.1c-5.3,0-9,2.4-9,2.4v-16.8c0-0.4-0.3-0.8-0.8-0.8h-9.5
			c-0.4,0-0.8,0.4-0.8,0.8v49.5c0,0.4,0.4,0.8,0.8,0.8c0,0,6.6,0,6.6,0c0.3,0,0.5-0.2,0.7-0.4c0.2-0.3,0.4-2.3,0.4-2.3
			s3.9,3.7,11.2,3.7c8.6,0,13.6-4.4,13.6-19.6C-179,302.1-186.9,300.1-192.2,300.1"/>
		<path id="path3036" class="st2" d="M-296,301.1h-7.1c0,0,0-9.4,0-9.4c0-0.4-0.2-0.5-0.6-0.5h-9.7c-0.4,0-0.6,0.2-0.6,0.5v9.7
			c0,0-4.8,1.2-5.2,1.3c-0.3,0.1-0.6,0.4-0.6,0.8v6.1c0,0.4,0.3,0.8,0.8,0.8h5c0,0,0,6.4,0,14.6c0,10.9,7.6,11.9,12.8,11.9
			c2.4,0,5.2-0.8,5.6-0.9c0.3-0.1,0.4-0.4,0.4-0.7l0-6.7c0-0.4-0.4-0.8-0.8-0.8c-0.4,0-1.5,0.2-2.6,0.2c-3.5,0-4.7-1.6-4.7-3.7
			c0-2.1,0-13.9,0-13.9h7.1c0.4,0,0.8-0.4,0.8-0.8v-7.6C-295.2,301.5-295.6,301.1-296,301.1"/>
	</g>
</g>
</svg>
