<?xml version="1.0" encoding="utf-8"?>
<!-- Generator: Adobe Illustrator 19.0.0, SVG Export Plug-In . SVG Version: 6.00 Build 0)  -->
<svg version="1.1" id="Layer_1" xmlns="http://www.w3.org/2000/svg" xmlns:xlink="http://www.w3.org/1999/xlink" x="0px" y="0px"
	 viewBox="-329 137 200 288" style="enable-background:new -329 137 200 288;" xml:space="preserve">
<style type="text/css">
	.st0{fill:#E44D26;}
	.st1{fill:#F16529;}
	.st2{fill:#EBEBEB;}
	.st3{fill:#FFFFFF;}
</style>
<g>
	<g>
		<path id="XMLID_7_" d="M-310.4,137h12.7v12.6h11.6V137h12.7v38.1h-12.7v-12.8h-11.6v12.8h-12.7V137L-310.4,137z"/>
		<path id="XMLID_6_" d="M-256.6,149.6h-11.2V137h35.1v12.6h-11.2v25.4h-12.7V149.6L-256.6,149.6z"/>
		<path id="XMLID_5_" d="M-227,137h13.3l8.2,13.4l8.2-13.4h13.3v38.1h-12.6v-18.9l-8.8,13.6h-0.2l-8.8-13.6v18.9h-12.5L-227,137
			L-227,137z"/>
		<path id="XMLID_4_" d="M-177.9,137h12.7v25.5h17.9v12.6h-30.6L-177.9,137L-177.9,137z"/>
	</g>
	<polygon id="XMLID_11_" class="st0" points="-310.8,401.9 -329,193.6 -129,193.6 -147.2,401.8 -229.2,425 	"/>
	<polygon id="XMLID_10_" class="st1" points="-229,407.3 -162.8,388.6 -147.2,210.6 -229,210.6 	"/>
	<polygon id="XMLID_9_" class="st2" points="-229,287.9 -262.2,287.9 -264.4,261.7 -229,261.7 -229,236.2 -229.1,236.2 
		-291.8,236.2 -291.2,243 -285.1,313.4 -229,313.4 	"/>
	<polygon id="XMLID_8_" class="st2" points="-229,354.2 -229.1,354.3 -257,346.5 -258.8,326.2 -272.4,326.2 -283.9,326.2 
		-280.4,366.3 -229.1,380.8 -229,380.8 	"/>
	<polygon id="XMLID_3_" class="st3" points="-229.1,287.9 -229.1,313.4 -198.3,313.4 -201.2,346.5 -229.1,354.2 -229.1,380.8 
		-177.8,366.3 -177.4,362 -171.5,294.8 -170.9,287.9 -177.6,287.9 	"/>
	<polygon id="XMLID_2_" class="st3" points="-229.1,236.2 -229.1,252 -229.1,261.6 -229.1,261.7 -168.7,261.7 -168.7,261.7 
		-168.6,261.7 -168,256 -167,243 -166.4,236.2 	"/>
</g>
</svg>
