<?xml version="1.0" encoding="utf-8"?>
<!-- Generator: Adobe Illustrator 19.0.0, SVG Export Plug-In . SVG Version: 6.00 Build 0)  -->
<svg version="1.1" id="Layer_1" xmlns="http://www.w3.org/2000/svg" xmlns:xlink="http://www.w3.org/1999/xlink" x="0px" y="0px"
	 viewBox="-364 241 230 80" style="enable-background:new -364 241 230 80;" xml:space="preserve">
<style type="text/css">
	.st0{fill:#25B7D3;}
	.st1{fill:#3E3E3F;}
	.st2{fill:#E2E4E5;}
	.st3{fill:#F0F1F1;}
	.st4{fill:#FFFFFF;}
	.st5{fill:#CFD3D4;}
</style>
<g>
	<g id="XMLID_2_">
		<ellipse id="XMLID_81_" class="st0" cx="-323.9" cy="281" rx="40.1" ry="40"/>
		<path id="XMLID_82_" class="st1" d="M-300.6,294.6c0,1.2-0.9,2.1-2.1,2.1h-42.4c-1.2,0-2.1-0.9-2.1-2.1V265c0-1.2,0.9-2.1,2.1-2.1
			h42.4c1.2,0,2.1,0.9,2.1,2.1L-300.6,294.6L-300.6,294.6z"/>
		<rect id="XMLID_83_" x="-330.3" y="296.8" class="st2" width="12.7" height="5.4"/>
		<path id="XMLID_84_" class="st3" d="M-313.3,303.3c0,0.6-0.5,1.1-1.1,1.1h-19c-0.6,0-1.1-0.5-1.1-1.1c0-0.6,0.5-1.1,1.1-1.1h19
			C-313.8,302.2-313.3,302.7-313.3,303.3z"/>
		<path id="XMLID_85_" class="st4" d="M-300.6,294.6v-6.3h-46.6v6.3c0,1.2,0.9,2.1,2.1,2.1h42.4
			C-301.6,296.8-300.6,295.7-300.6,294.6z"/>
		<path id="XMLID_88_" class="st5" d="M-323.9,295.5c-1.6,0-2.8-1.3-2.8-2.8c0-1.6,1.3-2.8,2.8-2.8s2.8,1.3,2.8,2.8
			S-322.3,295.5-323.9,295.5z M-323.9,291.3c-0.8,0-1.4,0.6-1.4,1.4c0,0.8,0.6,1.4,1.4,1.4c0.8,0,1.4-0.6,1.4-1.4
			C-322.5,291.8-323.2,291.3-323.9,291.3z"/>
		<path id="XMLID_93_" class="st4" d="M-341.9,268.3c0-0.8,0.3-1.3,0.8-1.3s0.8,0.4,0.8,1.3c0,0.9-0.3,1.3-0.8,1.3
			S-341.9,269.1-341.9,268.3z M-340.5,268.3c0-0.8-0.2-1-0.5-1s-0.5,0.2-0.5,1c0,0.8,0.2,1,0.5,1
			C-340.8,269.3-340.5,269-340.5,268.3z M-341,268c0.2,0,0.3,0.1,0.3,0.3c0,0.2-0.1,0.3-0.3,0.3s-0.3-0.1-0.3-0.3
			C-341.3,268.2-341.2,268-341,268z"/>
		<polygon id="XMLID_94_" class="st4" points="-339,267.4 -339.5,267.7 -339.7,267.5 -338.9,267.1 -338.6,267.1 -338.6,269.3 
			-338.1,269.3 -338.1,269.5 -339.5,269.5 -339.5,269.3 -339,269.3 		"/>
		<polygon id="XMLID_95_" class="st4" points="-334.1,267.4 -333.9,267.6 -335.2,268.4 -333.9,269.2 -334.1,269.3 -335.5,268.5 
			-335.5,268.3 		"/>
		<polygon id="XMLID_96_" class="st4" points="-332.1,269.5 -332.1,268.3 -333,268.3 -333,269.5 -333.4,269.5 -333.4,267.1 
			-333,267.1 -333,268.1 -332.1,268.1 -332.1,267.1 -331.8,267.1 -331.8,269.5 		"/>
		<polygon id="XMLID_97_" class="st4" points="-330.3,267.3 -330.3,269.5 -330.6,269.5 -330.6,267.3 -331.4,267.3 -331.4,267.1 
			-329.5,267.1 -329.6,267.3 		"/>
		<path id="XMLID_98_" class="st4" d="M-327.7,269.5l-0.1-1.3c0-0.3,0-0.8,0-0.8l0,0l-0.4,1.6h-0.3l-0.4-1.6l0,0c0,0.1,0,0.5,0,0.8
			l-0.1,1.3h-0.3l0.2-2.4h0.5l0.3,1.6l0,0l0.3-1.6h0.4l0.2,2.4H-327.7z"/>
		<polygon id="XMLID_99_" class="st4" points="-326.9,269.5 -326.9,267.1 -326.5,267.1 -326.5,269.2 -325.4,269.2 -325.4,269.5 		
			"/>
		<polygon id="XMLID_100_" class="st4" points="-323.3,268.3 -323.3,268.5 -324.7,269.3 -324.8,269.2 -323.7,268.4 -324.8,267.6 
			-324.7,267.4 		"/>
		<path id="XMLID_104_" class="st4" d="M-341.9,272.5c0-0.8,0.3-1.3,0.8-1.3s0.8,0.4,0.8,1.3c0,0.8-0.3,1.3-0.8,1.3
			S-341.9,273.3-341.9,272.5z M-340.5,272.5c0-0.8-0.2-1-0.5-1s-0.5,0.3-0.5,1c0,0.8,0.2,1,0.5,1
			C-340.8,273.5-340.5,273.2-340.5,272.5z M-341,272.3c0.2,0,0.3,0.1,0.3,0.2c0,0.2-0.1,0.3-0.3,0.3s-0.3-0.1-0.3-0.3
			S-341.2,272.3-341,272.3z"/>
		<path id="XMLID_106_" class="st4" d="M-339.3,273.4h1.1v0.3h-1.4v-0.3c0.8-0.8,1.1-1.2,1.1-1.5c0-0.3-0.2-0.4-0.4-0.4
			c-0.2,0-0.3,0.1-0.5,0.2l-0.3-0.2c0.2-0.3,0.4-0.3,0.8-0.3c0.4,0,0.8,0.3,0.8,0.7C-338.3,272.3-338.6,272.7-339.3,273.4z"/>
		<polygon id="XMLID_107_" class="st4" points="-334.1,271.6 -333.9,271.8 -335.2,272.6 -333.9,273.3 -334.1,273.6 -335.5,272.7 
			-335.5,272.4 		"/>
		<path id="XMLID_114_" class="st4" d="M-332.6,273.7h-0.7v-2.4h0.6c0.4,0,0.8,0.2,0.8,0.6c0,0.3-0.3,0.5-0.4,0.5l0,0
			c0.3,0.1,0.5,0.2,0.5,0.6C-331.7,273.6-332.2,273.7-332.6,273.7z M-332.6,271.6h-0.3v0.8h0.3c0.3,0,0.4-0.1,0.4-0.4
			S-332.4,271.6-332.6,271.6z M-332.6,272.6h-0.4v0.8h0.4c0.3,0,0.5-0.1,0.5-0.4S-332.3,272.6-332.6,272.6z"/>
		<path id="XMLID_117_" class="st4" d="M-330.4,273.8c-0.6,0-0.9-0.5-0.9-1.3s0.3-1.3,0.9-1.3s0.9,0.5,0.9,1.3
			S-329.9,273.8-330.4,273.8z M-330.4,271.5c-0.4,0-0.6,0.3-0.6,1s0.2,1,0.6,1s0.6-0.3,0.6-1C-329.9,271.8-330.1,271.5-330.4,271.5z
			"/>
		<path id="XMLID_120_" class="st4" d="M-328.5,273.7h-0.6v-2.4h0.5c0.6,0,1.2,0.2,1.2,1.2S-328,273.7-328.5,273.7z M-328.5,271.6
			h-0.3v1.9h0.3c0.3,0,0.8-0.2,0.8-1C-327.8,271.7-328.2,271.6-328.5,271.6z"/>
		<polygon id="XMLID_121_" class="st4" points="-326.1,272.7 -326.1,273.7 -326.4,273.7 -326.4,272.7 -327.2,271.2 -326.9,271.2 
			-326.3,272.5 -326.2,272.5 -325.6,271.2 -325.3,271.2 		"/>
		<polygon id="XMLID_122_" class="st4" points="-323.3,272.4 -323.3,272.7 -324.7,273.6 -324.8,273.3 -323.7,272.6 -324.8,271.8 
			-324.7,271.6 		"/>
		<path id="XMLID_126_" class="st4" d="M-341.9,276.8c0-0.8,0.3-1.3,0.8-1.3s0.8,0.4,0.8,1.3c0,0.8-0.3,1.3-0.8,1.3
			S-341.9,277.5-341.9,276.8z M-340.5,276.8c0-0.8-0.2-1-0.5-1s-0.5,0.3-0.5,1c0,0.8,0.2,1,0.5,1
			C-340.8,277.7-340.5,277.4-340.5,276.8z M-341,276.5c0.2,0,0.3,0.1,0.3,0.3c0,0.2-0.2,0.2-0.3,0.2c-0.2,0-0.3-0.1-0.3-0.3
			C-341.3,276.6-341.2,276.5-341,276.5z"/>
		<path id="XMLID_127_" class="st4" d="M-339,278c-0.3,0-0.6-0.1-0.8-0.3l0.3-0.2c0.2,0.2,0.3,0.2,0.5,0.2c0.3,0,0.5-0.2,0.5-0.5
			c0-0.3-0.2-0.4-0.5-0.4h-0.2v-0.3h0.2c0.3,0,0.4-0.2,0.4-0.4c0-0.3-0.2-0.4-0.4-0.4s-0.3,0.1-0.5,0.3l-0.2-0.2
			c0.2-0.2,0.4-0.2,0.7-0.2c0.5,0,0.8,0.2,0.8,0.6c0,0.3-0.3,0.5-0.5,0.6l0,0c0.3,0,0.5,0.2,0.5,0.6C-338.2,277.7-338.5,278-339,278
			z"/>
		<polygon id="XMLID_128_" class="st4" points="-334.1,275.8 -333.9,276.1 -335.2,276.8 -333.9,277.6 -334.1,277.8 -335.5,277 
			-335.5,276.7 		"/>
		<polygon id="XMLID_146_" class="st4" points="-332.1,277.9 -332.1,276.8 -333,276.8 -333,277.9 -333.4,277.9 -333.4,275.5 
			-333,275.5 -333,276.5 -332.1,276.5 -332.1,275.5 -331.8,275.5 -331.8,277.9 		"/>
		<polygon id="XMLID_147_" class="st4" points="-330.8,275.8 -330.8,276.6 -329.9,276.6 -329.9,276.8 -330.8,276.8 -330.8,277.7 
			-329.7,277.7 -329.7,277.9 -331.1,277.9 -331.1,275.5 -329.7,275.5 -329.8,275.8 		"/>
		<path id="XMLID_150_" class="st4" d="M-327.9,277.3h-0.9l-0.2,0.6h-0.3l0.8-2.4h0.4l0.8,2.4h-0.3L-327.9,277.3z M-328.8,277.1h0.8
			l-0.4-1.3l0,0L-328.8,277.1z"/>
		<path id="XMLID_153_" class="st4" d="M-326.4,277.9h-0.6v-2.4h0.5c0.6,0,1.2,0.2,1.2,1.2S-325.9,277.9-326.4,277.9z M-326.4,275.8
			h-0.3v1.9h0.3c0.3,0,0.8-0.2,0.8-1C-325.7,275.9-326.1,275.8-326.4,275.8z"/>
		<polygon id="XMLID_154_" class="st4" points="-324.4,275.8 -324.4,276.6 -323.5,276.6 -323.5,276.8 -324.4,276.8 -324.4,277.7 
			-323.3,277.7 -323.3,277.9 -324.8,277.9 -324.8,275.5 -323.3,275.5 -323.4,275.8 		"/>
		<path id="XMLID_157_" class="st4" d="M-321.8,276.8l0.8,1.1h-0.4l-0.7-1h-0.3v1h-0.3v-2.4h0.7c0.6,0,0.9,0.3,0.9,0.7
			C-321.2,276.6-321.4,276.8-321.8,276.8z M-322,275.8h-0.3v0.9h0.3c0.3,0,0.5-0.2,0.5-0.4C-321.5,275.9-321.7,275.8-322,275.8z"/>
		<polygon id="XMLID_158_" class="st4" points="-319.1,276.7 -319.1,277 -320.5,277.8 -320.7,277.6 -319.4,276.8 -320.7,276.1 
			-320.5,275.8 		"/>
		<path id="XMLID_162_" class="st4" d="M-341.9,280.9c0-0.8,0.3-1.3,0.8-1.3s0.8,0.4,0.8,1.3s-0.3,1.3-0.8,1.3
			S-341.9,281.8-341.9,280.9z M-340.5,280.9c0-0.7-0.2-1-0.5-1s-0.5,0.2-0.5,1c0,0.8,0.2,1,0.5,1
			C-340.8,281.9-340.5,281.7-340.5,280.9z M-341,280.8c0.2,0,0.3,0.1,0.3,0.3c0,0.2-0.1,0.3-0.3,0.3s-0.3-0.1-0.3-0.3
			C-341.3,280.9-341.2,280.8-341,280.8z"/>
		<polygon id="XMLID_163_" class="st4" points="-338.5,281.6 -338.5,282.2 -338.8,282.2 -338.8,281.6 -339.7,281.6 -339.7,281.3 
			-339,279.7 -338.8,279.8 -339.4,281.3 -338.8,281.3 -338.7,280.7 -338.5,280.7 -338.5,281.3 -338.1,281.3 -338.1,281.6 		"/>
		<polygon id="XMLID_164_" class="st4" points="-334.1,280.1 -333.9,280.3 -335.2,281.1 -333.9,281.8 -334.1,282.1 -335.5,281.2 
			-335.5,280.9 		"/>
		<polygon id="XMLID_165_" class="st4" points="-333.2,282.5 -333.4,282.4 -331.9,279.3 -331.7,279.4 		"/>
		<polygon id="XMLID_166_" class="st4" points="-330,282.2 -330,281 -330.9,281 -330.9,282.2 -331.3,282.2 -331.3,279.8 
			-330.9,279.8 -330.9,280.8 -330,280.8 -330,279.8 -329.7,279.8 -329.7,282.2 		"/>
		<polygon id="XMLID_167_" class="st4" points="-328.7,280 -328.7,280.8 -327.8,280.8 -327.8,281.1 -328.7,281.1 -328.7,281.9 
			-327.6,281.9 -327.6,282.2 -329,282.2 -329,279.8 -327.6,279.8 -327.7,280 		"/>
		<path id="XMLID_170_" class="st4" d="M-325.8,281.6h-0.9l-0.2,0.6h-0.3l0.8-2.4h0.4l0.8,2.4h-0.3L-325.8,281.6z M-326.6,281.3h0.8
			l-0.4-1.3l0,0L-326.6,281.3z"/>
		<path id="XMLID_173_" class="st4" d="M-324.3,282.2h-0.6v-2.4h0.5c0.6,0,1.2,0.2,1.2,1.2C-323.2,281.9-323.8,282.2-324.3,282.2z
			 M-324.3,280h-0.3v1.9h0.3c0.3,0,0.8-0.2,0.8-1C-323.6,280.1-323.9,280-324.3,280z"/>
		<polygon id="XMLID_174_" class="st4" points="-322.3,280 -322.3,280.8 -321.4,280.8 -321.4,281.1 -322.3,281.1 -322.3,281.9 
			-321.3,281.9 -321.3,282.2 -322.7,282.2 -322.7,279.8 -321.3,279.8 -321.3,280 		"/>
		<path id="XMLID_177_" class="st4" d="M-319.6,281.1l0.8,1.1h-0.4l-0.7-1h-0.3v1h-0.3v-2.4h0.7c0.6,0,0.9,0.3,0.9,0.7
			C-319,280.8-319.3,281-319.6,281.1z M-319.9,280h-0.3v0.9h0.3c0.3,0,0.5-0.2,0.5-0.4C-319.4,280.1-319.6,280-319.9,280z"/>
		<polygon id="XMLID_178_" class="st4" points="-317,280.9 -317,281.2 -318.3,282.1 -318.5,281.8 -317.3,281.1 -318.5,280.3 
			-318.3,280.1 		"/>
	</g>
	<g>
		<path class="st0" d="M-269.4,257.5v2.8h4.8v3.7h-4.8v6.7h-4.4v-17h9.8v3.7H-269.4z"/>
		<path class="st0" d="M-246.8,270.7h-5.5l-4.2-6.5h0v6.5h-4.4v-17h6.6c0.8,0,1.6,0.1,2.3,0.3c0.7,0.2,1.3,0.5,1.9,0.9
			c0.5,0.4,0.9,1,1.2,1.6c0.3,0.7,0.5,1.4,0.5,2.3c0,0.6-0.1,1.1-0.2,1.7c-0.2,0.5-0.4,1-0.7,1.4c-0.3,0.4-0.7,0.8-1.2,1.1
			c-0.5,0.3-1,0.5-1.6,0.6L-246.8,270.7z M-256.5,261.3h0.4c0.4,0,0.7,0,1.1-0.1c0.4,0,0.7-0.1,1-0.3c0.3-0.2,0.5-0.4,0.7-0.6
			c0.2-0.3,0.3-0.7,0.3-1.1c0-0.5-0.1-0.8-0.3-1.1c-0.2-0.3-0.4-0.5-0.7-0.6c-0.3-0.2-0.6-0.2-1-0.3c-0.4,0-0.7-0.1-1.1-0.1h-0.4
			V261.3z"/>
		<path class="st0" d="M-236.3,253.2c1.2,0,2.4,0.2,3.5,0.6c1.1,0.4,2.1,1,3,1.8c0.9,0.8,1.6,1.7,2.1,2.8c0.5,1.1,0.8,2.3,0.8,3.5
			c0,1.4-0.2,2.6-0.7,3.8c-0.5,1.1-1.1,2.1-2,3c-0.8,0.8-1.8,1.5-3,1.9c-1.2,0.5-2.4,0.7-3.8,0.7c-1.4,0-2.6-0.2-3.8-0.7
			c-1.1-0.5-2.1-1.1-3-1.9c-0.8-0.8-1.5-1.8-2-3c-0.5-1.1-0.7-2.4-0.7-3.8c0-1.3,0.3-2.5,0.8-3.5c0.5-1.1,1.2-2,2.1-2.8
			c0.9-0.8,1.9-1.4,3-1.8C-238.7,253.4-237.6,253.2-236.3,253.2z M-236.3,257.4c-0.7,0-1.3,0.1-1.9,0.4c-0.6,0.2-1.1,0.6-1.5,1
			c-0.4,0.4-0.8,0.9-1,1.4c-0.3,0.5-0.4,1.1-0.4,1.7c0,0.7,0.1,1.4,0.4,2c0.3,0.6,0.6,1.2,1,1.6c0.4,0.5,0.9,0.8,1.5,1.1
			c0.6,0.3,1.2,0.4,1.9,0.4c0.7,0,1.3-0.1,1.9-0.4c0.6-0.3,1.1-0.6,1.5-1.1c0.4-0.5,0.8-1,1-1.6c0.3-0.6,0.4-1.3,0.4-2
			c0-0.6-0.1-1.2-0.4-1.7c-0.3-0.5-0.6-1-1-1.4s-0.9-0.7-1.5-1C-235.1,257.6-235.7,257.4-236.3,257.4z"/>
		<path class="st0" d="M-224.2,253.7h4.4l8.1,10.4h0v-10.4h4.4v17h-4.4l-8.1-10.4h0v10.4h-4.4V253.7z"/>
		<path class="st0" d="M-196.9,270.7h-4.4v-13.3h-3.7v-3.7h11.7v3.7h-3.7V270.7z"/>
		<path class="st0" d="M-178.1,257.5v2.8h5v3.7h-5v2.9h5.3v3.7h-9.7v-17h9.7v3.7H-178.1z"/>
		<path class="st0" d="M-169.5,253.7h4.4l8.1,10.4h0v-10.4h4.4v17h-4.4l-8.1-10.4h0v10.4h-4.4V253.7z"/>
		<path class="st0" d="M-148.9,253.7h6.3c1.2,0,2.3,0.2,3.3,0.7c1,0.4,2,1,2.7,1.8c0.8,0.8,1.4,1.7,1.9,2.7c0.5,1,0.7,2.2,0.7,3.3
			c0,1.2-0.2,2.3-0.7,3.3c-0.5,1-1.1,1.9-1.9,2.7c-0.8,0.8-1.7,1.4-2.8,1.8c-1.1,0.4-2.2,0.7-3.3,0.7h-6.3V253.7z M-144.5,267h1
			c0.7,0,1.3-0.1,1.9-0.3c0.6-0.2,1.1-0.5,1.6-0.9c0.4-0.4,0.8-0.9,1.1-1.5c0.3-0.6,0.4-1.3,0.4-2.1c0-0.8-0.1-1.4-0.4-2
			c-0.2-0.6-0.6-1.1-1-1.5s-0.9-0.7-1.5-0.9c-0.6-0.2-1.2-0.3-2-0.3h-1V267z"/>
	</g>
	<g>
		<path class="st4" d="M-255.9,285.6c-0.7-0.6-1.5-1.1-2.4-1.5c-0.9-0.4-1.8-0.5-2.8-0.5c-0.4,0-0.8,0.1-1.1,0.2
			c-0.4,0.1-0.7,0.3-1.1,0.5c-0.3,0.2-0.6,0.5-0.8,0.8c-0.2,0.3-0.3,0.7-0.3,1.1c0,0.5,0.1,0.8,0.4,1.1c0.2,0.3,0.5,0.6,0.9,0.8
			s0.7,0.4,1.1,0.6c0.4,0.1,0.8,0.3,1.1,0.4l2,0.6c1,0.3,2,0.7,2.9,1.1c0.9,0.4,1.7,1,2.4,1.6s1.2,1.4,1.6,2.3
			c0.4,0.9,0.6,2,0.6,3.2c0,1.5-0.2,3-0.7,4.4c-0.4,1.5-1.3,2.7-2.5,3.7c-1.2,1-2.5,1.7-4,2.2c-1.5,0.4-3,0.7-4.5,0.7
			c-1.9,0-3.8-0.3-5.6-0.9c-1.8-0.6-3.5-1.4-5-2.5l3.4-6.3c1,0.9,2.1,1.6,3.2,2.2s2.4,0.9,3.8,0.9c0.5,0,0.9-0.1,1.4-0.2
			c0.5-0.1,0.9-0.3,1.2-0.5c0.4-0.2,0.7-0.6,0.9-0.9c0.2-0.4,0.3-0.8,0.3-1.4c0-0.6-0.2-1-0.5-1.4c-0.3-0.4-0.7-0.7-1.2-1
			c-0.5-0.3-1-0.5-1.6-0.6c-0.5-0.2-1-0.3-1.5-0.4c-1.2-0.3-2.3-0.7-3.3-1.1c-1-0.4-1.9-0.9-2.6-1.5c-0.7-0.6-1.3-1.4-1.7-2.3
			c-0.4-0.9-0.6-2.1-0.6-3.6c0-1.5,0.3-2.9,0.8-4.2c0.5-1.3,1.2-2.3,2.2-3.2c0.9-0.9,2-1.6,3.3-2c1.3-0.5,2.7-0.7,4.2-0.7
			c0.7,0,1.5,0.1,2.4,0.2c0.8,0.1,1.7,0.3,2.5,0.5c0.8,0.2,1.6,0.5,2.4,0.8c0.8,0.3,1.5,0.6,2.2,1L-255.9,285.6z"/>
		<path class="st4" d="M-228.4,277.9h9.7l-12,14.3l13.1,15.9h-10.2l-10.1-13.1h-0.1V308h-7.8v-30.2h7.8v12.4h0.1L-228.4,277.9z"/>
		<path class="st4" d="M-205.6,308h-7.8v-30.2h7.8V308z"/>
		<path class="st4" d="M-190.7,301.4h9.4v6.6h-17.2v-30.2h7.8V301.4z"/>
		<path class="st4" d="M-168.9,301.4h9.4v6.6h-17.2v-30.2h7.8V301.4z"/>
		<path class="st4" d="M-138.4,285.6c-0.7-0.6-1.5-1.1-2.4-1.5c-0.9-0.4-1.8-0.5-2.8-0.5c-0.4,0-0.8,0.1-1.1,0.2
			c-0.4,0.1-0.7,0.3-1.1,0.5c-0.3,0.2-0.6,0.5-0.8,0.8c-0.2,0.3-0.3,0.7-0.3,1.1c0,0.5,0.1,0.8,0.4,1.1c0.2,0.3,0.5,0.6,0.9,0.8
			s0.7,0.4,1.1,0.6c0.4,0.1,0.8,0.3,1.1,0.4l2,0.6c1,0.3,2,0.7,2.9,1.1c0.9,0.4,1.7,1,2.4,1.6c0.7,0.6,1.2,1.4,1.6,2.3
			c0.4,0.9,0.6,2,0.6,3.2c0,1.5-0.2,3-0.7,4.4c-0.4,1.5-1.3,2.7-2.5,3.7c-1.2,1-2.5,1.7-4,2.2c-1.5,0.4-3,0.7-4.5,0.7
			c-1.9,0-3.8-0.3-5.6-0.9c-1.8-0.6-3.5-1.4-5-2.5l3.4-6.3c1,0.9,2.1,1.6,3.2,2.2s2.4,0.9,3.8,0.9c0.5,0,0.9-0.1,1.4-0.2
			c0.5-0.1,0.9-0.3,1.2-0.5c0.4-0.2,0.7-0.6,0.9-0.9c0.2-0.4,0.3-0.8,0.3-1.4c0-0.6-0.2-1-0.5-1.4c-0.3-0.4-0.7-0.7-1.2-1
			c-0.5-0.3-1-0.5-1.6-0.6s-1-0.3-1.5-0.4c-1.2-0.3-2.3-0.7-3.3-1.1c-1-0.4-1.9-0.9-2.6-1.5c-0.7-0.6-1.3-1.4-1.7-2.3
			c-0.4-0.9-0.6-2.1-0.6-3.6c0-1.5,0.3-2.9,0.8-4.2c0.5-1.3,1.2-2.3,2.2-3.2c0.9-0.9,2-1.6,3.3-2c1.3-0.5,2.7-0.7,4.2-0.7
			c0.7,0,1.5,0.1,2.4,0.2c0.8,0.1,1.7,0.3,2.5,0.5c0.8,0.2,1.6,0.5,2.4,0.8c0.8,0.3,1.5,0.6,2.2,1L-138.4,285.6z"/>
	</g>
</g>
</svg>
