<?xml version="1.0" encoding="utf-8"?>
<!-- Generator: Adobe Illustrator 19.0.0, SVG Export Plug-In . SVG Version: 6.00 Build 0)  -->
<svg version="1.1" id="Layer_1" xmlns="http://www.w3.org/2000/svg" xmlns:xlink="http://www.w3.org/1999/xlink" x="0px" y="0px"
	 viewBox="-319 81 1280 400" style="enable-background:new -319 81 1280 400;" xml:space="preserve">
<style type="text/css">
	.st0{clip-path:url(#SVGID_2_);fill:url(#SVGID_3_);}
	.st1{clip-path:url(#SVGID_2_);}
	.st2{fill:#F4F3FF;}
	.st3{opacity:0.29;}
	.st4{fill:#4E01D4;}
	.st5{opacity:0.63;fill:#FFFFFF;enable-background:new    ;}
	.st6{fill:#FFFFFF;}
	.st7{fill:#00EBD5;}
	.st8{fill:#FF7171;}
	.st9{fill:#F7C90B;}
	.st10{fill:#B6B9FF;}
	.st11{fill:#7474E2;}
	.st12{fill:#9A9AE5;}
	.st13{opacity:0.5;fill:#CBC2FF;enable-background:new    ;}
	.st14{fill:#D2D5F7;}
	.st15{fill:#FF005C;}
	.st16{fill:#FFC136;}
	.st17{fill:#00EAD9;}
	.st18{opacity:0.45;fill:#E4E5FB;enable-background:new    ;}
	.st19{fill:#E4E5FB;}
	.st20{clip-path:url(#SVGID_8_);}
	.st21{clip-path:url(#SVGID_9_);}
	.st22{clip-path:url(#SVGID_10_);}
	.st23{clip-path:url(#SVGID_11_);fill:#E4E5FB;}
	.st24{clip-path:url(#SVGID_11_);fill:#9A9AE5;}
	.st25{clip-path:url(#SVGID_11_);fill:#B6B9FF;}
	.st26{fill:#9594F9;}
	.st27{fill:#11025F;}
	.st28{fill:#3700BF;}
	.st29{fill:#C6C9FA;}
	.st30{fill:#430CBC;}
	.st31{fill:#3F00C3;}
	.st32{fill:#16D6CC;}
	.st33{opacity:0.35;}
	.st34{fill:#60C6BC;}
	.st35{fill:#51F4E0;}
	.st36{opacity:0.47;fill:#F7C90B;enable-background:new    ;}
	.st37{fill:#B4299A;}
</style>
<g>
	<defs>
		<rect id="SVGID_1_" x="-319" y="81" width="1280" height="400"/>
	</defs>
	<clipPath id="SVGID_2_">
		<use xlink:href="#SVGID_1_"  style="overflow:visible;"/>
	</clipPath>
	
		<linearGradient id="SVGID_3_" gradientUnits="userSpaceOnUse" x1="821.899" y1="1159.6553" x2="-196.0687" y2="390.1212" gradientTransform="matrix(1 0 0 1 0 -500)">
		<stop  offset="2.020200e-002" style="stop-color:#45108A"/>
		<stop  offset="0.2929" style="stop-color:#3D065F"/>
		<stop  offset="1" style="stop-color:#12054E"/>
		<stop  offset="1" style="stop-color:#10054D"/>
	</linearGradient>
	<rect x="-319" y="81" class="st0" width="1280" height="400"/>
	<g class="st1">
		<path id="XMLID_330_" class="st2" d="M747.6,255c-6.7-9.5-16.1-17.7-19-29c-2.8-11.2,1.4-22.9,4.7-34c3.3-11.1,5.3-24-1.3-33.6
			c-9-12.9-28.1-12.4-43.3-8.4c-15.2,4-31.6,10-46,3.9c-16.9-7.4-23.3-28.5-38.1-39.5c-16.6-12.4-43.2-8-54.8,9.1
			c-5.6,8.2-8,18.4-14.6,25.9c-8.9,10-23.6,12.6-37,12.1c-13.4-0.5-26.8-3.6-40.1-2.3c-13.4,1.3-27.5,8.2-31.8,20.8
			c-3.3,9.7-0.3,20.4,4,29.7s9.8,18.3,11.6,28.3c1.8,10-1,22-10,27c-10.5,5.8-23.7-0.3-35.3,2.8c-13,3.4-20.7,18.7-18,31.8
			c2.6,13.1,13.6,23.6,26.3,28.3c12.6,4.7,26.5,4.3,39.8,1.9l223.8,2.4c15.3-0.8,27.1,1.1,41.5,0.5c14.4-0.7,29.2-5.8,38.5-16.8
			C762.8,299.3,760.2,272.9,747.6,255z"/>
		<g id="XMLID_4_">
			<g id="XMLID_325_" class="st3">
				<path class="st4" d="M601.3,204c-0.2,0-0.3-0.1-0.3-0.2c-0.1-0.2,0-0.4,0.2-0.5l0.1-0.1c0.2-0.1,0.4-0.1,0.6,0.2
					c0.1,0.2,0.1,0.4-0.2,0.6l-0.1,0.1C601.5,204,601.4,204,601.3,204z M604.6,201.8c-0.1,0-0.3-0.1-0.3-0.2
					c-0.2-0.2-0.1-0.4,0.1-0.6c0.9-0.8,1.8-1.6,2.7-2.5c0.2-0.2,0.4-0.2,0.6,0s0.2,0.4,0,0.6c-0.8,0.9-1.8,1.8-2.8,2.6
					C604.7,201.8,604.6,201.8,604.6,201.8z M609.6,196.3c-0.1,0-0.2,0-0.3-0.1c-0.2-0.1-0.3-0.3-0.1-0.6c0.7-1,1.3-2.1,1.8-3.2
					c0.1-0.2,0.3-0.3,0.5-0.2c0.2,0.1,0.3,0.3,0.2,0.5c-0.6,1.2-1.3,2.3-1.9,3.3C609.8,196.2,609.8,196.3,609.6,196.3z M612.9,189.5
					c-0.1,0-0.1,0-0.2,0c-0.2-0.1-0.3-0.3-0.3-0.5c0.4-1.2,0.8-2.3,1-3.6c0.1-0.3,0.3-0.3,0.5-0.3c0.3,0.1,0.3,0.3,0.3,0.5
					c-0.3,1.3-0.7,2.5-1.1,3.7C613.3,189.5,613.1,189.5,612.9,189.5z M614.7,182.3C614.6,182.3,614.6,182.3,614.7,182.3
					c-0.3,0-0.4-0.3-0.4-0.4c0.2-1.3,0.3-2.5,0.3-3.7c0-0.3,0.2-0.4,0.4-0.4l0,0c0.3,0,0.4,0.2,0.4,0.4c0,1.3-0.1,2.5-0.3,3.8
					C615,182.1,614.9,182.3,614.7,182.3z M614.7,174.7c-0.2,0-0.3-0.2-0.4-0.3c-0.2-1.3-0.3-2.5-0.6-3.7c-0.1-0.3,0.1-0.4,0.3-0.5
					c0.2-0.1,0.4,0.1,0.5,0.3c0.3,1.3,0.5,2.5,0.6,3.8C615.1,174.5,614.9,174.6,614.7,174.7C614.8,174.7,614.7,174.7,614.7,174.7z
					 M613.1,167.3c-0.2,0-0.3-0.1-0.4-0.3c-0.2-0.4-0.3-0.8-0.5-1.3c-0.3-0.8-0.6-1.5-0.9-2.2c-0.1-0.2,0-0.4,0.2-0.5
					c0.2-0.1,0.4,0,0.5,0.2c0.3,0.8,0.7,1.5,1,2.3c0.2,0.4,0.3,0.8,0.5,1.3C613.5,167,613.4,167.3,613.1,167.3
					C613.2,167.3,613.2,167.3,613.1,167.3z M609.9,160.5c-0.2,0-0.3-0.1-0.3-0.2c-0.6-1.1-1.3-2.1-2.1-3.1c-0.2-0.2-0.1-0.4,0.1-0.6
					s0.4-0.1,0.6,0.1c0.8,1,1.4,2.1,2.1,3.2c0.1,0.2,0.1,0.4-0.2,0.6C610.1,160.5,610,160.5,609.9,160.5z M605.5,154.4
					c-0.1,0-0.3-0.1-0.3-0.2c-0.8-0.9-1.7-1.8-2.6-2.8c-0.2-0.2-0.2-0.4,0-0.6s0.4-0.2,0.6,0c0.9,0.9,1.8,1.8,2.6,2.8
					c0.2,0.2,0.2,0.4,0,0.6C605.7,154.4,605.6,154.4,605.5,154.4z M600.1,149.1c-0.1,0-0.2,0-0.3-0.1c-0.9-0.8-1.9-1.6-2.9-2.3
					c-0.2-0.2-0.3-0.4-0.1-0.6s0.4-0.3,0.6-0.1c1,0.8,2,1.5,3,2.3c0.2,0.2,0.2,0.4,0.1,0.6C600.3,149.1,600.2,149.1,600.1,149.1z
					 M594,144.7c-0.1,0-0.2,0-0.3-0.1c-1-0.7-2.1-1.3-3.3-1.9c-0.2-0.1-0.3-0.3-0.2-0.5c0.1-0.2,0.3-0.3,0.5-0.2
					c1.1,0.6,2.3,1.3,3.3,1.9c0.2,0.1,0.3,0.3,0.1,0.6C594.3,144.6,594.1,144.7,594,144.7z M587.4,141.1c-0.1,0-0.1,0-0.2,0
					c-1.1-0.5-2.3-1-3.4-1.5c-0.2-0.1-0.3-0.3-0.3-0.5c0.1-0.2,0.3-0.3,0.5-0.3c1.2,0.5,2.3,1,3.5,1.5c0.2,0.1,0.3,0.3,0.2,0.5
					C587.7,141,587.6,141.1,587.4,141.1z M580.4,138.2c-0.1,0-0.1,0-0.2,0c-1.2-0.4-2.3-0.8-3.6-1.1c-0.3-0.1-0.3-0.3-0.3-0.5
					c0.1-0.3,0.3-0.3,0.5-0.3c1.3,0.3,2.4,0.8,3.6,1.2c0.2,0.1,0.3,0.3,0.3,0.5C580.7,138.1,580.5,138.2,580.4,138.2z M573.2,136.1
					L573.2,136.1c-1.3-0.3-2.5-0.6-3.8-0.8c-0.3-0.1-0.3-0.3-0.3-0.5c0.1-0.3,0.3-0.3,0.5-0.3c1.3,0.3,2.5,0.5,3.7,0.8
					c0.3,0.1,0.3,0.3,0.3,0.5C573.5,135.9,573.3,136.1,573.2,136.1z M565.7,134.6L565.7,134.6c-1.3-0.3-2.5-0.4-3.8-0.6
					c-0.3,0-0.3-0.3-0.3-0.4c0-0.3,0.3-0.3,0.4-0.3c1.3,0.2,2.5,0.3,3.8,0.6c0.3,0,0.3,0.3,0.3,0.4S566,134.6,565.7,134.6z
					 M558.3,133.5L558.3,133.5c-1.3-0.2-2.5-0.3-3.8-0.4c-0.3,0-0.4-0.3-0.3-0.4c0-0.3,0.3-0.4,0.4-0.3c1.3,0.1,2.5,0.3,3.8,0.4
					c0.3,0,0.3,0.3,0.3,0.4C558.6,133.4,558.4,133.5,558.3,133.5z M550.7,132.9L550.7,132.9c-1.3-0.1-2.5-0.2-3.8-0.3
					c-0.3,0-0.4-0.2-0.3-0.4c0-0.3,0.2-0.4,0.4-0.3c1.3,0.1,2.5,0.2,3.8,0.3c0.3,0,0.4,0.2,0.3,0.4
					C551.1,132.7,551,132.9,550.7,132.9z M543.2,132.3L543.2,132.3c-1.3-0.1-2.5-0.2-3.8-0.2c-0.3,0-0.4-0.2-0.3-0.4
					c0-0.3,0.2-0.4,0.4-0.3c1.3,0.1,2.5,0.2,3.8,0.2c0.3,0,0.4,0.2,0.3,0.4C543.6,132.2,543.4,132.3,543.2,132.3z M535.7,131.9
					L535.7,131.9l-3.8-0.2c-0.3,0-0.4-0.2-0.3-0.4c0-0.3,0.2-0.4,0.4-0.3l3.8,0.2c0.3,0,0.4,0.2,0.3,0.4
					C536.1,131.8,535.9,131.9,535.7,131.9z M528.1,131.5L528.1,131.5l-3.8-0.2c-0.3,0-0.4-0.2-0.3-0.4c0-0.3,0.2-0.4,0.4-0.3
					l3.8,0.2c0.3,0,0.4,0.2,0.3,0.4C528.5,131.4,528.4,131.5,528.1,131.5z M520.6,131.2L520.6,131.2l-3.8-0.2
					c-0.3,0-0.4-0.2-0.3-0.4c0-0.3,0.2-0.4,0.4-0.3l3.8,0.2c0.3,0,0.4,0.2,0.3,0.4C521,131,520.8,131.2,520.6,131.2z M513,130.8
					L513,130.8l-3.8-0.2c-0.3,0-0.4-0.2-0.3-0.4c0-0.3,0.2-0.4,0.4-0.3l3.8,0.2c0.3,0,0.4,0.2,0.3,0.4
					C513.5,130.6,513.3,130.8,513,130.8z M505.5,130.3L505.5,130.3l-3.8-0.2c-0.3,0-0.4-0.2-0.3-0.4c0-0.3,0.2-0.4,0.4-0.3l3.8,0.2
					c0.3,0,0.4,0.2,0.3,0.4C505.9,130.2,505.8,130.3,505.5,130.3z"/>
				<path class="st4" d="M416.3,309.4c-0.8,0-1.7,0-2.5-0.1c-0.3,0-0.4-0.2-0.4-0.4s0.3-0.3,0.4-0.4c1.3,0.1,2.5,0.1,3.8,0
					c0.3,0,0.4,0.2,0.4,0.4s-0.2,0.4-0.4,0.4C417.1,309.4,416.7,309.4,416.3,309.4z M421.3,309.2c-0.2,0-0.4-0.2-0.4-0.3
					c0-0.3,0.2-0.4,0.3-0.4c1.3-0.1,2.5-0.2,3.8-0.3c0.3,0,0.4,0.2,0.4,0.3c0,0.2-0.2,0.4-0.3,0.4
					C423.8,308.9,422.5,309.1,421.3,309.2L421.3,309.2z M410,309L410,309L410,309c-1.3-0.1-2.6-0.3-3.8-0.5c-0.3,0-0.3-0.3-0.3-0.4
					c0-0.3,0.3-0.3,0.4-0.3c1.2,0.2,2.4,0.3,3.7,0.5c0.3,0,0.4,0.3,0.4,0.4C410.3,308.9,410.1,309,410,309z M428.8,308.4
					c-0.2,0-0.3-0.2-0.4-0.3c0-0.3,0.1-0.4,0.3-0.4c1.2-0.2,2.4-0.4,3.7-0.7c0.3,0,0.4,0.1,0.5,0.3c0,0.3-0.1,0.4-0.3,0.5
					C431.3,307.9,430.1,308.1,428.8,308.4L428.8,308.4z M402.5,307.8L402.5,307.8c-1.3-0.3-2.5-0.7-3.8-1c-0.3-0.1-0.3-0.3-0.3-0.5
					c0.1-0.3,0.3-0.3,0.5-0.3c1.2,0.3,2.4,0.7,3.6,1c0.3,0.1,0.3,0.3,0.3,0.5C402.9,307.7,402.7,307.8,402.5,307.8z M436.2,306.9
					c-0.2,0-0.3-0.2-0.4-0.3c-0.1-0.3,0.1-0.4,0.3-0.5c1.3-0.3,2.4-0.6,3.7-0.8c0.3-0.1,0.4,0.1,0.5,0.3c0.1,0.3-0.1,0.4-0.3,0.5
					c-1.3,0.3-2.4,0.6-3.7,0.8C436.3,306.9,436.2,306.9,436.2,306.9z M395.3,305.5c-0.1,0-0.1,0-0.2,0c-1.2-0.5-2.3-1-3.5-1.5
					c-0.2-0.1-0.3-0.3-0.2-0.5c0.1-0.2,0.3-0.3,0.5-0.2c1.1,0.5,2.3,1.1,3.4,1.5c0.2,0.1,0.3,0.3,0.3,0.5
					C395.7,305.4,395.5,305.5,395.3,305.5z M443.5,305.2c-0.2,0-0.3-0.1-0.4-0.3c-0.1-0.3,0.1-0.4,0.3-0.5c1.3-0.3,2.4-0.7,3.6-1
					c0.3-0.1,0.4,0.1,0.5,0.3c0.1,0.3-0.1,0.4-0.3,0.5C446.1,304.4,444.8,304.8,443.5,305.2C443.6,305.2,443.5,305.2,443.5,305.2z
					 M450.7,303.1c-0.2,0-0.3-0.1-0.4-0.3c-0.1-0.3,0.1-0.4,0.3-0.5c1.2-0.3,2.4-0.8,3.6-1.1c0.3-0.1,0.4,0.1,0.5,0.3
					c0.1,0.3-0.1,0.4-0.3,0.5C453.3,302.4,452,302.7,450.7,303.1C450.8,303.1,450.8,303.1,450.7,303.1z M388.5,302.2
					c-0.1,0-0.2,0-0.2-0.1c-1.1-0.7-2.2-1.3-3.2-2.1c-0.2-0.2-0.3-0.4-0.1-0.6c0.2-0.2,0.4-0.3,0.6-0.1c1,0.8,2,1.4,3.1,2.1
					c0.2,0.1,0.3,0.3,0.2,0.6C388.8,302.2,388.7,302.2,388.5,302.2z M458,300.7c-0.2,0-0.3-0.1-0.4-0.3c-0.1-0.3,0.1-0.4,0.3-0.5
					c1.2-0.4,2.3-0.8,3.6-1.2c0.2-0.1,0.4,0,0.5,0.3c0.1,0.2,0,0.4-0.3,0.5C460.5,300,459.3,300.4,458,300.7
					C458,300.7,458,300.7,458,300.7z M465.2,298.3c-0.2,0-0.3-0.1-0.3-0.3c-0.1-0.2,0-0.4,0.3-0.5c1.2-0.4,2.3-0.8,3.5-1.3
					c0.2-0.1,0.4,0,0.5,0.3c0.1,0.2,0,0.4-0.3,0.5c-1.2,0.4-2.3,0.8-3.5,1.3C465.2,298.3,465.2,298.3,465.2,298.3z M382.4,297.8
					c-0.1,0-0.2,0-0.3-0.1c-0.9-0.8-1.8-1.8-2.8-2.7c-0.2-0.2-0.2-0.4,0-0.6c0.2-0.2,0.4-0.2,0.6,0c0.8,0.9,1.8,1.8,2.7,2.6
					c0.2,0.2,0.2,0.4,0,0.6C382.7,297.7,382.6,297.8,382.4,297.8z M472.2,295.7c-0.2,0-0.3-0.1-0.3-0.3c-0.1-0.2,0-0.4,0.3-0.5
					c1.2-0.4,2.3-0.9,3.5-1.3c0.2-0.1,0.4,0,0.5,0.3c0.1,0.2,0,0.4-0.3,0.5c-1.2,0.5-2.3,0.9-3.5,1.3
					C472.3,295.7,472.3,295.7,472.2,295.7z M479.2,292.9c-0.2,0-0.3-0.1-0.3-0.3c-0.1-0.2,0-0.4,0.3-0.5c1.2-0.5,2.3-1,3.5-1.4
					c0.2-0.1,0.4,0,0.5,0.3c0.1,0.3,0,0.4-0.3,0.5c-1.2,0.5-2.3,1-3.5,1.5C479.3,292.9,479.3,292.9,479.2,292.9z M377.3,292.3
					c-0.1,0-0.3-0.1-0.3-0.2c-0.4-0.5-0.8-1.1-1.2-1.7c-0.3-0.5-0.7-1-0.9-1.5c-0.1-0.2-0.1-0.4,0.2-0.5c0.2-0.1,0.4-0.1,0.5,0.2
					c0.3,0.5,0.6,1,0.9,1.5c0.3,0.6,0.8,1.1,1.2,1.6c0.2,0.2,0.1,0.4-0.1,0.6C377.5,292.2,377.4,292.3,377.3,292.3z M486.2,289.9
					c-0.2,0-0.3-0.1-0.3-0.3c-0.1-0.2,0-0.4,0.2-0.5c1.2-0.5,2.3-1,3.4-1.6c0.2-0.1,0.4,0,0.5,0.2c0.1,0.2,0,0.4-0.2,0.5
					c-1.2,0.5-2.3,1-3.4,1.6C486.3,289.9,486.2,289.9,486.2,289.9z M493,286.7c-0.2,0-0.3-0.1-0.3-0.3c-0.1-0.2,0-0.4,0.2-0.5
					c1.2-0.5,2.3-1.1,3.4-1.7c0.2-0.1,0.4,0,0.5,0.2c0.1,0.2,0,0.4-0.2,0.5c-1.2,0.6-2.3,1.1-3.4,1.7
					C493.1,286.7,493,286.7,493,286.7z M373.6,285.7c-0.2,0-0.3-0.1-0.3-0.3c-0.5-1.2-0.9-2.3-1.3-3.6c-0.1-0.3,0.1-0.4,0.3-0.5
					c0.3-0.1,0.4,0.1,0.5,0.3c0.3,1.2,0.8,2.3,1.3,3.5c0.1,0.2,0,0.4-0.3,0.5C373.7,285.7,373.6,285.7,373.6,285.7z M499.8,283.5
					c-0.2,0-0.3-0.1-0.3-0.3c-0.1-0.2,0-0.4,0.2-0.5c1.1-0.6,2.3-1.2,3.3-1.7c0.2-0.1,0.4,0,0.5,0.2c0.1,0.2,0,0.4-0.2,0.5
					c-1.1,0.6-2.3,1.2-3.3,1.8C499.9,283.4,499.9,283.5,499.8,283.5z M506.5,280c-0.2,0-0.3-0.1-0.3-0.3c-0.1-0.2,0-0.4,0.2-0.5
					c1.1-0.6,2.2-1.2,3.3-1.8c0.2-0.1,0.4,0,0.5,0.2c0.1,0.2,0,0.4-0.2,0.5c-1.1,0.6-2.2,1.2-3.3,1.8C506.6,280,506.6,280,506.5,280
					z M371.5,278.5c-0.2,0-0.3-0.2-0.4-0.3c-0.2-1.3-0.3-2.5-0.3-3.8c0-0.3,0.2-0.4,0.4-0.4c0.3,0,0.4,0.2,0.4,0.4
					c0.1,1.3,0.2,2.5,0.3,3.7C372,278.2,371.9,278.4,371.5,278.5C371.6,278.5,371.6,278.5,371.5,278.5z M513.1,276.4
					c-0.2,0-0.3-0.1-0.3-0.2c-0.1-0.2,0-0.4,0.2-0.5c1.1-0.6,2.2-1.3,3.3-1.8c0.2-0.1,0.4-0.1,0.6,0.2c0.1,0.2,0.1,0.4-0.2,0.6
					c-1.1,0.7-2.2,1.3-3.3,1.9C513.2,276.3,513.2,276.4,513.1,276.4z M371.3,270.9L371.3,270.9c-0.3,0-0.4-0.3-0.4-0.4
					c0.1-1.3,0.3-2.5,0.6-3.8c0.1-0.3,0.3-0.3,0.5-0.3c0.3,0.1,0.3,0.3,0.3,0.5c-0.3,1.2-0.4,2.4-0.5,3.7
					C371.7,270.8,371.5,270.9,371.3,270.9z M372.9,263.6c-0.1,0-0.1,0-0.2,0c-0.2-0.1-0.3-0.3-0.3-0.5c0.4-1.2,1-2.4,1.6-3.5
					c0.1-0.2,0.3-0.3,0.5-0.2c0.2,0.1,0.3,0.3,0.2,0.5c-0.6,1.1-1.1,2.2-1.5,3.3C373.2,263.5,373,263.6,372.9,263.6z M376.5,256.9
					c-0.1,0-0.2,0-0.3-0.1c-0.2-0.2-0.2-0.4-0.1-0.6c0.8-1,1.7-2,2.6-2.8c0.2-0.2,0.4-0.2,0.6,0c0.2,0.2,0.2,0.4,0,0.6
					c-0.9,0.8-1.8,1.8-2.5,2.8C376.7,256.9,376.6,256.9,376.5,256.9z"/>
				<path class="st4" d="M678.3,288.4L678.3,288.4c-1.3,0-2.5-0.1-3.8-0.1c-0.3,0-0.4-0.2-0.4-0.4c0-0.3,0.2-0.4,0.4-0.4
					c1.3,0.1,2.5,0.1,3.8,0.1c0.3,0,0.4,0.2,0.4,0.4C678.8,288.3,678.6,288.4,678.3,288.4z M682.1,288.4c-0.3,0-0.4-0.2-0.4-0.4
					c0-0.3,0.2-0.4,0.4-0.4c1.3-0.1,2.5-0.2,3.8-0.3c0.3,0,0.4,0.2,0.4,0.3c0,0.2-0.2,0.4-0.3,0.4
					C684.7,288.3,683.4,288.3,682.1,288.4L682.1,288.4z M670.8,288.1L670.8,288.1c-1.3-0.1-2.5-0.3-3.8-0.4c-0.3,0-0.3-0.3-0.3-0.4
					c0-0.3,0.3-0.4,0.4-0.3c1.3,0.2,2.5,0.3,3.8,0.4c0.3,0,0.4,0.3,0.3,0.4C671.2,287.9,671,288.1,670.8,288.1z M689.6,287.7
					c-0.2,0-0.3-0.2-0.4-0.3c0-0.3,0.1-0.4,0.3-0.4c1.3-0.2,2.5-0.4,3.7-0.7c0.3-0.1,0.4,0.1,0.5,0.3c0.1,0.3-0.1,0.4-0.3,0.5
					C692.2,287.3,691,287.5,689.6,287.7L689.6,287.7z M663.3,287.2C663.3,287.2,663.3,287.2,663.3,287.2c-1.3-0.2-2.6-0.4-3.8-0.7
					c-0.3,0-0.3-0.3-0.3-0.5s0.3-0.3,0.5-0.3c1.3,0.3,2.5,0.4,3.7,0.6c0.3,0,0.3,0.3,0.3,0.4C663.7,287,663.5,287.2,663.3,287.2z
					 M697,286.1c-0.2,0-0.3-0.1-0.4-0.3c-0.1-0.3,0.1-0.4,0.3-0.5c1.2-0.3,2.4-0.8,3.6-1.2c0.2-0.1,0.4,0,0.5,0.3
					c0.1,0.2,0,0.4-0.3,0.5C699.5,285.3,698.3,285.7,697,286.1C697.1,286.1,697.1,286.1,697,286.1z M655.9,285.8
					C655.9,285.8,655.8,285.8,655.9,285.8c-1.3-0.3-2.5-0.5-3.8-0.8c-0.3-0.1-0.3-0.3-0.3-0.5c0.1-0.3,0.3-0.3,0.5-0.3
					c1.3,0.3,2.4,0.6,3.7,0.8c0.3,0.1,0.3,0.3,0.3,0.5C656.2,285.7,656.1,285.8,655.9,285.8z M648.5,284.2L648.5,284.2
					c-1.3-0.3-2.5-0.7-3.8-1c-0.3-0.1-0.3-0.3-0.3-0.5c0.1-0.3,0.3-0.3,0.5-0.3c1.2,0.3,2.4,0.7,3.6,1c0.3,0.1,0.3,0.3,0.3,0.5
					C648.9,284,648.7,284.2,648.5,284.2z M704.1,283.6c-0.2,0-0.3-0.1-0.3-0.3c-0.1-0.2,0-0.4,0.2-0.5c1.2-0.5,2.3-1.1,3.3-1.7
					c0.2-0.1,0.4,0,0.5,0.2c0.1,0.2,0,0.4-0.2,0.5C706.5,282.4,705.4,283,704.1,283.6C704.2,283.6,704.2,283.6,704.1,283.6z
					 M641.2,282.1L641.2,282.1c-1.3-0.3-2.5-0.8-3.7-1.2c-0.3-0.1-0.3-0.3-0.3-0.5c0.1-0.2,0.3-0.3,0.5-0.3c1.2,0.4,2.4,0.8,3.6,1.2
					c0.3,0.1,0.3,0.3,0.3,0.5C641.6,282,641.4,282.1,641.2,282.1z M710.7,280c-0.2,0-0.3-0.1-0.3-0.2c-0.1-0.2-0.1-0.4,0.1-0.6
					c1.1-0.7,2.1-1.4,3.1-2.2c0.2-0.2,0.4-0.1,0.6,0.1c0.2,0.2,0.1,0.4-0.1,0.6c-1,0.8-2,1.5-3.1,2.2C710.9,280,710.8,280,710.7,280
					z M634,279.8c-0.1,0-0.1,0-0.2,0c-1.2-0.4-2.3-0.8-3.5-1.3c-0.2-0.1-0.3-0.3-0.3-0.5c0.1-0.2,0.3-0.3,0.5-0.3
					c1.2,0.4,2.3,0.9,3.5,1.3c0.2,0.1,0.3,0.3,0.3,0.5C634.4,279.6,634.2,279.8,634,279.8z M627,277c-0.1,0-0.1,0-0.2,0
					c-1.2-0.5-2.3-1-3.5-1.5c-0.2-0.1-0.3-0.3-0.2-0.5c0.1-0.2,0.3-0.3,0.5-0.2c1.2,0.5,2.3,1,3.4,1.4c0.2,0.1,0.3,0.3,0.3,0.5
					C627.3,277,627.2,277,627,277z M556.9,277c-0.1,0-0.2,0-0.2-0.1c-0.2-0.1-0.3-0.3-0.2-0.6c0.6-1,1.3-2,2.1-3
					c0.2-0.2,0.4-0.2,0.6-0.1c0.2,0.2,0.2,0.4,0.1,0.6c-0.8,0.9-1.4,1.9-2,2.9C557.2,276.9,557,277,556.9,277z M716.7,275.4
					c-0.1,0-0.3-0.1-0.3-0.2c-0.2-0.2-0.2-0.4,0-0.6c0.9-0.8,1.8-1.8,2.6-2.7c0.2-0.2,0.4-0.2,0.6,0s0.2,0.4,0,0.6
					c-0.8,0.9-1.8,1.8-2.7,2.7C716.9,275.4,716.8,275.4,716.7,275.4z M620.1,274c-0.1,0-0.1,0-0.2,0c-1.2-0.5-2.3-1.1-3.4-1.6
					c-0.2-0.1-0.3-0.3-0.2-0.5s0.3-0.3,0.5-0.2c1.1,0.6,2.3,1.1,3.4,1.6c0.2,0.1,0.3,0.3,0.2,0.5C620.4,273.9,620.2,274,620.1,274z
					 M561.4,271.2c-0.1,0-0.2,0-0.3-0.1c-0.2-0.2-0.2-0.4,0-0.6c0.9-0.9,1.8-1.8,2.8-2.6c0.2-0.2,0.4-0.1,0.6,0.1
					c0.2,0.2,0.1,0.4-0.1,0.6c-1,0.8-1.9,1.6-2.8,2.5C561.6,271.1,561.5,271.2,561.4,271.2z M613.4,270.8c-0.1,0-0.1,0-0.2-0.1
					c-1-0.5-2-1-2.9-1.6l-0.4-0.2c-0.2-0.1-0.3-0.3-0.2-0.5c0.1-0.2,0.3-0.3,0.5-0.2l0.4,0.2c1,0.5,2,1,2.9,1.6
					c0.2,0.1,0.3,0.3,0.2,0.5C613.6,270.7,613.4,270.8,613.4,270.8z M721.8,269.8c-0.1,0-0.2,0-0.3-0.1c-0.2-0.2-0.3-0.4-0.1-0.6
					c0.8-1,1.4-2.1,2-3.1c0.1-0.2,0.3-0.3,0.6-0.2c0.2,0.1,0.3,0.3,0.2,0.6c-0.7,1.1-1.3,2.2-2.1,3.2
					C722,269.7,721.9,269.8,721.8,269.8z M606.7,267.2c-0.1,0-0.1,0-0.2-0.1c-1.3-0.7-2.3-1.2-3.3-1.7c-0.2-0.1-0.3-0.3-0.2-0.5
					c0.1-0.2,0.3-0.3,0.5-0.2c1,0.5,2.2,1,3.4,1.7c0.2,0.1,0.3,0.3,0.2,0.5C606.9,267.2,606.7,267.2,606.7,267.2z M567.3,266.5
					c-0.2,0-0.3-0.1-0.3-0.2c-0.1-0.2-0.1-0.4,0.1-0.6c1.1-0.7,2.2-1.3,3.3-1.8c0.2-0.1,0.4,0,0.5,0.2c0.1,0.2,0,0.4-0.2,0.5
					c-1.1,0.6-2.2,1.2-3.3,1.8C567.5,266.4,567.4,266.5,567.3,266.5z M599.8,264c-0.1,0-0.1,0-0.2,0c-1.3-0.5-2.3-0.9-3.5-1.3
					c-0.3-0.1-0.3-0.3-0.3-0.5c0.1-0.3,0.3-0.3,0.5-0.3c1.2,0.3,2.3,0.8,3.6,1.3c0.2,0.1,0.3,0.3,0.3,0.5
					C600.1,263.9,600,264,599.8,264z M574.1,263.1c-0.2,0-0.3-0.1-0.3-0.3c-0.1-0.2,0-0.4,0.3-0.5c1.2-0.4,2.4-0.8,3.7-1.1
					c0.3-0.1,0.4,0.1,0.5,0.3c0.1,0.3-0.1,0.4-0.3,0.5c-1.2,0.3-2.4,0.7-3.6,1.1C574.2,263.1,574.1,263.1,574.1,263.1z M592.6,261.7
					L592.6,261.7c-0.5-0.1-0.8-0.2-1.3-0.3c-0.8-0.2-1.7-0.3-2.5-0.3c-0.3,0-0.4-0.3-0.3-0.4c0-0.3,0.2-0.3,0.4-0.3
					c0.8,0.1,1.8,0.2,2.6,0.3c0.4,0.1,0.8,0.2,1.2,0.3c0.3,0.1,0.3,0.3,0.3,0.5C593,261.5,592.8,261.7,592.6,261.7z M581.4,261.3
					c-0.2,0-0.3-0.2-0.4-0.3c0-0.3,0.1-0.4,0.3-0.4c1.3-0.2,2.5-0.3,3.8-0.3c0.2,0,0.4,0.2,0.4,0.4s-0.2,0.4-0.4,0.4
					C583.9,261,582.6,261.1,581.4,261.3L581.4,261.3z"/>
				<path class="st4" d="M674.2,225.5c-0.9,0-1.9,0-2.8,0c-0.3,0-0.4-0.2-0.4-0.4c0-0.3,0.2-0.4,0.4-0.4c0.9,0,1.9,0,2.8,0h0.9
					c0.3,0,0.4,0.2,0.4,0.4c0,0.3-0.2,0.4-0.4,0.4H674.2z M678.9,225.4c-0.3,0-0.4-0.2-0.4-0.4c0-0.3,0.2-0.4,0.4-0.4
					c1.3-0.1,2.5-0.2,3.8-0.3c0.2,0,0.4,0.2,0.4,0.3c0,0.3-0.2,0.4-0.3,0.4C681.5,225.2,680.3,225.3,678.9,225.4L678.9,225.4z
					 M667.6,225.3L667.6,225.3c-1.3-0.1-2.5-0.2-3.8-0.3c-0.3,0-0.4-0.2-0.3-0.4c0-0.3,0.2-0.4,0.4-0.3c1.3,0.1,2.5,0.2,3.8,0.2
					c0.3,0,0.4,0.2,0.4,0.4C667.9,225.1,667.8,225.3,667.6,225.3z M660.1,224.8C660.1,224.8,660,224.8,660.1,224.8
					c-1.3-0.1-2.5-0.3-3.8-0.3c-0.3,0-0.4-0.3-0.3-0.4c0-0.3,0.3-0.4,0.4-0.3c1.3,0.1,2.5,0.3,3.8,0.3c0.3,0,0.4,0.3,0.3,0.4
					C660.4,224.6,660.2,224.8,660.1,224.8z M686.5,224.7c-0.2,0-0.3-0.2-0.4-0.3c0-0.3,0.2-0.4,0.3-0.4c1.3-0.2,2.5-0.3,3.7-0.6
					c0.3,0,0.4,0.1,0.5,0.3c0,0.3-0.1,0.4-0.3,0.5C689.1,224.4,687.8,224.5,686.5,224.7L686.5,224.7z M652.5,224.1L652.5,224.1
					l-1.1-0.1c-0.3,0-0.4-0.3-0.3-0.4c0-0.3,0.3-0.4,0.4-0.3l1.1,0.1c0.3,0,0.4,0.3,0.3,0.4C652.9,224,652.7,224.1,652.5,224.1z
					 M693.8,223.4c-0.2,0-0.3-0.1-0.4-0.3c-0.1-0.3,0.1-0.4,0.3-0.5c1.3-0.3,2.4-0.6,3.6-1c0.2-0.1,0.4,0.1,0.5,0.3
					c0.1,0.3-0.1,0.4-0.3,0.5C696.4,222.6,695.2,222.9,693.8,223.4C693.9,223.4,693.9,223.4,693.8,223.4z M701.1,221.2
					c-0.2,0-0.3-0.1-0.3-0.3c-0.1-0.2,0-0.4,0.3-0.5c1.2-0.4,2.3-0.9,3.4-1.5c0.2-0.1,0.4,0,0.5,0.2c0.1,0.2,0,0.4-0.2,0.5
					c-1.1,0.5-2.3,1-3.5,1.5C701.2,221.2,701.1,221.2,701.1,221.2z M707.9,217.9c-0.2,0-0.3-0.1-0.3-0.2c-0.1-0.2-0.1-0.4,0.2-0.5
					c0.6-0.3,1.2-0.7,1.7-1c0.5-0.3,1-0.7,1.5-1c0.2-0.1,0.4-0.1,0.6,0.1c0.1,0.2,0.1,0.4-0.1,0.6c-0.5,0.3-1,0.7-1.5,1
					c-0.6,0.3-1.2,0.7-1.8,1C708,217.9,708,217.9,707.9,217.9z M714.1,213.7c-0.1,0-0.3-0.1-0.3-0.2c-0.2-0.2-0.1-0.4,0.1-0.6
					c0.9-0.8,1.8-1.7,2.8-2.5c0.2-0.2,0.4-0.2,0.6,0c0.2,0.2,0.2,0.4,0,0.6c-0.9,0.9-1.8,1.8-2.8,2.6
					C714.3,213.6,714.2,213.7,714.1,213.7z M719.4,208.3c-0.1,0-0.2,0-0.3-0.1c-0.2-0.2-0.2-0.4-0.1-0.6c0.8-0.9,1.6-1.9,2.3-2.9
					c0.2-0.2,0.4-0.3,0.6-0.1s0.3,0.4,0.1,0.6c-0.8,1-1.5,2-2.3,3C719.6,208.3,719.5,208.3,719.4,208.3z M723.8,202.2
					c-0.1,0-0.2,0-0.2-0.1c-0.2-0.1-0.3-0.3-0.2-0.6c0.7-1.1,1.3-2.2,1.8-3.3c0.1-0.2,0.3-0.3,0.5-0.2s0.3,0.3,0.2,0.5
					c-0.6,1.1-1.2,2.3-1.8,3.3C724,202.1,724,202.2,723.8,202.2z M727.1,195.4c-0.1,0-0.1,0-0.2,0c-0.2-0.1-0.3-0.3-0.3-0.5
					c0.4-1.2,0.8-2.3,1.3-3.5c0.1-0.3,0.3-0.3,0.5-0.3c0.3,0.1,0.3,0.3,0.3,0.5c-0.3,1.2-0.8,2.4-1.3,3.6
					C727.5,195.3,727.3,195.4,727.1,195.4z M729.4,188.2L729.4,188.2c-0.3-0.1-0.4-0.3-0.4-0.5c0.3-1.2,0.5-2.4,0.7-3.7
					c0-0.3,0.3-0.3,0.4-0.3c0.3,0,0.3,0.3,0.3,0.4c-0.2,1.3-0.4,2.5-0.7,3.8C729.7,188.1,729.6,188.2,729.4,188.2z M730.3,180.7
					L730.3,180.7c-0.3,0-0.4-0.2-0.4-0.4c0-0.6,0-1.2,0-1.8c0-0.3,0-0.6,0-0.8c0-0.4,0-0.8,0-1.2c0-0.3,0.2-0.4,0.4-0.4
					c0.3,0,0.4,0.2,0.4,0.4c0,0.4,0,0.8,0,1.2c0,0.3,0,0.6,0,0.8c0,0.6,0,1.2,0,1.8C730.7,180.6,730.6,180.7,730.3,180.7z
					 M730,173.2c-0.2,0-0.3-0.2-0.4-0.3c-0.2-1.3-0.4-2.4-0.7-3.7c-0.1-0.3,0.1-0.4,0.3-0.5c0.3-0.1,0.4,0.1,0.5,0.3
					c0.3,1.3,0.5,2.5,0.7,3.8C730.4,173,730.2,173.1,730,173.2L730,173.2z M728.3,165.8c-0.2,0-0.3-0.1-0.4-0.3
					c-0.3-1.2-0.8-2.3-1.3-3.5c-0.1-0.2,0-0.4,0.3-0.5c0.2-0.1,0.4,0,0.5,0.3c0.5,1.2,0.9,2.3,1.3,3.6c0.1,0.3-0.1,0.4-0.3,0.5
					C728.4,165.8,728.3,165.8,728.3,165.8z M725.5,158.9c-0.2,0-0.3-0.1-0.3-0.3c-0.6-1.1-1.2-2.2-1.8-3.3c-0.1-0.2-0.1-0.4,0.2-0.6
					c0.2-0.1,0.4-0.1,0.6,0.2c0.7,1.1,1.3,2.2,1.8,3.3c0.1,0.2,0,0.4-0.2,0.5C725.6,158.9,725.6,158.9,725.5,158.9z M721.5,152.4
					c-0.1,0-0.3-0.1-0.3-0.2c-0.8-1-1.5-2-2.3-2.9c-0.2-0.2-0.2-0.4,0-0.6s0.4-0.2,0.6,0c0.8,0.9,1.6,1.9,2.3,3
					c0.2,0.2,0.1,0.4-0.1,0.6C721.7,152.4,721.6,152.4,721.5,152.4z M716.6,146.8c-0.1,0-0.2,0-0.3-0.1c-0.9-0.8-1.8-1.7-2.8-2.5
					c-0.2-0.2-0.2-0.4-0.1-0.6c0.2-0.2,0.4-0.2,0.6-0.1c1,0.8,1.9,1.7,2.8,2.5c0.2,0.2,0.2,0.4,0,0.6
					C716.8,146.7,716.7,146.8,716.6,146.8z M710.7,142c-0.1,0-0.2,0-0.3-0.1c-0.8-0.6-1.8-1.2-2.7-1.7c-0.2-0.1-0.3-0.2-0.5-0.3
					c-0.2-0.1-0.3-0.3-0.2-0.5c0.1-0.2,0.3-0.3,0.5-0.2c0.2,0.1,0.3,0.2,0.5,0.3c0.9,0.5,1.8,1.1,2.7,1.8c0.2,0.1,0.3,0.3,0.1,0.6
					C711,141.9,710.9,142,710.7,142z M664.1,139.6c-0.2,0-0.3-0.1-0.3-0.2c-0.1-0.2,0-0.4,0.2-0.5c1.1-0.6,2.3-1.2,3.4-1.7
					c0.2-0.1,0.4,0,0.5,0.2c0.1,0.2,0,0.4-0.2,0.5c-1.2,0.5-2.3,1-3.3,1.7C664.2,139.6,664.2,139.6,664.1,139.6z M704.2,138.2
					c-0.1,0-0.1,0-0.2,0c-1.1-0.5-2.3-1-3.4-1.4c-0.2-0.1-0.3-0.3-0.3-0.5c0.1-0.2,0.3-0.3,0.5-0.3c1.2,0.4,2.4,0.9,3.5,1.4
					c0.2,0.1,0.3,0.3,0.2,0.5C704.5,138.1,704.3,138.2,704.2,138.2z M671,136.6c-0.2,0-0.3-0.1-0.4-0.3c-0.1-0.2,0.1-0.4,0.3-0.5
					c1.2-0.4,2.4-0.8,3.7-1.1c0.3-0.1,0.4,0.1,0.5,0.3c0.1,0.3-0.1,0.4-0.3,0.5C673.5,135.9,672.2,136.3,671,136.6
					C671,136.6,671,136.6,671,136.6z M697.1,135.8L697.1,135.8c-1.3-0.3-2.5-0.6-3.8-0.8c-0.3,0-0.3-0.3-0.3-0.4
					c0-0.3,0.3-0.3,0.4-0.3c1.3,0.3,2.5,0.5,3.7,0.8c0.3,0.1,0.3,0.3,0.3,0.5C697.4,135.6,697.3,135.8,697.1,135.8z M678.3,134.9
					c-0.2,0-0.3-0.2-0.4-0.3c0-0.3,0.1-0.4,0.3-0.4c1.3-0.2,2.5-0.3,3.8-0.4c0.3,0,0.4,0.2,0.4,0.3c0,0.3-0.2,0.4-0.3,0.4
					C680.8,134.5,679.6,134.6,678.3,134.9L678.3,134.9z M689.6,134.4L689.6,134.4c-1.3-0.1-2.5-0.2-3.8-0.2c-0.3,0-0.4-0.2-0.4-0.4
					s0.2-0.4,0.4-0.4c1.3,0,2.5,0.1,3.8,0.2c0.3,0,0.4,0.3,0.3,0.4C690,134.4,689.8,134.4,689.6,134.4z"/>
			</g>
			<g id="XMLID_291_">
				<path id="XMLID_322_" class="st5" d="M637.6,170.4c0.1,0.3,0.2,0.5,0.3,0.8l-1,1l2.4,2.4l1-1c0.3,0.1,0.5,0.3,0.8,0.3v1.5h3.5
					V174c0.3-0.1,0.5-0.2,0.8-0.3l1,1l2.4-2.4l-1-1c0.1-0.3,0.3-0.5,0.3-0.8h1.5v-3.5h-1.5c-0.1-0.3-0.2-0.5-0.3-0.8l1-1l-2.4-2.4
					l-1,1c-0.3-0.1-0.5-0.3-0.8-0.3v-1.5h-3.5v1.5c-0.3,0.1-0.5,0.2-0.8,0.3l-1-1l-2.4,2.4l1,1c-0.1,0.3-0.3,0.5-0.3,0.8H636v3.5
					H637.6z M639.3,168.7c0-1.9,1.6-3.5,3.5-3.5c1.9,0,3.5,1.6,3.5,3.5s-1.6,3.5-3.5,3.5C640.9,172.2,639.3,170.7,639.3,168.7z"/>
				<path id="XMLID_319_" class="st5" d="M439.3,282.2c0.1,0.3,0.3,0.6,0.3,0.8l-1.2,1.2l2.8,2.8l1.2-1.2c0.3,0.2,0.6,0.3,0.8,0.3
					v1.7h4v-1.7c0.3-0.1,0.6-0.3,0.8-0.3l1.2,1.2l2.8-2.8l-1.2-1.2c0.2-0.3,0.3-0.6,0.3-0.8h1.7v-4h-1.7c-0.1-0.3-0.3-0.6-0.3-0.8
					l1.2-1.2l-2.8-2.8l-1.2,1.2c-0.3-0.2-0.6-0.3-0.8-0.3v-1.7h-4v1.7c-0.3,0.1-0.6,0.3-0.8,0.3l-1.2-1.2l-2.8,2.8l1.2,1.2
					c-0.2,0.3-0.3,0.6-0.3,0.8h-1.7v4H439.3z M441.3,280.2c0-2.2,1.8-4,4-4c2.2,0,4,1.8,4,4c0,2.2-1.8,4-4,4
					C443.1,284.2,441.3,282.5,441.3,280.2z"/>
				<path id="XMLID_316_" class="st5" d="M607.2,144.6c0.1,0.2,0.1,0.3,0.2,0.4l-0.6,0.6l1.3,1.3l0.6-0.6c0.2,0.1,0.3,0.1,0.4,0.2
					v0.8h1.8v-0.8c0.2-0.1,0.3-0.1,0.4-0.2l0.6,0.6l1.3-1.3l-0.6-0.6c0.1-0.2,0.1-0.3,0.2-0.4h0.8v-1.8h-0.8
					c-0.1-0.2-0.1-0.3-0.2-0.4l0.6-0.6l-1.3-1.3l-0.6,0.6c-0.2-0.1-0.3-0.1-0.4-0.2v-0.8H609v0.8c-0.2,0.1-0.3,0.1-0.4,0.2l-0.6-0.6
					l-1.3,1.3l0.6,0.6c-0.1,0.2-0.1,0.3-0.2,0.4h-0.8v1.8H607.2z M608.1,143.7c0-1,0.8-1.8,1.8-1.8s1.8,0.8,1.8,1.8
					s-0.8,1.8-1.8,1.8C608.9,145.5,608.1,144.7,608.1,143.7z"/>
				<path id="XMLID_311_" class="st5" d="M433.5,186.4c-0.1,0.3-0.1,0.5-0.2,0.8l-1.4,0.3l0.7,3.3l1.4-0.3c0.2,0.3,0.3,0.4,0.4,0.7
					l-0.8,1.2l2.8,1.8l0.8-1.2c0.3,0.1,0.5,0.1,0.8,0.2l0.3,1.4l3.3-0.7l-0.3-1.4c0.3-0.2,0.4-0.3,0.7-0.4l1.2,0.8l1.8-2.8l-1.2-0.8
					c0.1-0.3,0.1-0.5,0.2-0.8l1.4-0.3l-0.7-3.3l-1.4,0.3c-0.2-0.3-0.3-0.4-0.4-0.7l0.8-1.2l-2.8-1.8l-0.8,1.2
					c-0.3-0.1-0.5-0.1-0.8-0.2l-0.3-1.4l-3.3,0.7l0.3,1.4c-0.3,0.2-0.4,0.3-0.7,0.4l-1.2-0.8l-1.8,2.8L433.5,186.4z M435.8,185.9
					c1-1.6,3.1-2,4.7-0.9c1.6,1,2,3.1,0.9,4.7c-1,1.6-3.1,2-4.7,0.9C435.3,189.5,434.8,187.4,435.8,185.9z M450.1,190.7
					c-0.1,0.2-0.1,0.3-0.1,0.5l-0.8,0.2l0.4,2.1l0.8-0.2c0.1,0.2,0.2,0.3,0.3,0.4l-0.5,0.8l1.8,1.2l0.5-0.8c0.2,0.1,0.3,0.1,0.5,0.1
					l0.2,0.8l2.1-0.4l-0.2-0.8c0.2-0.1,0.3-0.2,0.4-0.3l0.8,0.5l1.2-1.8l-0.8-0.5c0.1-0.2,0.1-0.3,0.1-0.5l0.8-0.2l-0.4-2.1
					l-0.8,0.2c-0.1-0.2-0.2-0.3-0.3-0.4l0.5-0.8l-1.8-1.2l-0.5,0.8c-0.2-0.1-0.3-0.1-0.5-0.1l-0.2-0.8l-2.1,0.4l0.2,0.8
					c-0.2,0.1-0.3,0.2-0.4,0.3l-0.8-0.5l-1.2,1.8L450.1,190.7z M451.5,190.4c0.7-1,1.9-1.3,2.9-0.6c1,0.7,1.3,1.9,0.6,2.9
					s-1.9,1.3-2.9,0.6C451.2,192.7,450.9,191.4,451.5,190.4z"/>
				<path id="XMLID_306_" class="st5" d="M744.3,297c0.3-0.3,0.4-0.6,0.6-0.8l1.8,0.4l0.9-4.4l-1.8-0.4c0-0.3-0.1-0.7-0.2-1l1.6-1
					l-2.4-3.7l-1.6,1c-0.3-0.3-0.6-0.4-0.8-0.6l0.4-1.8l-4.4-0.9l-0.4,1.8c-0.3,0-0.7,0.1-1,0.2l-1-1.6l-3.7,2.4l1,1.6
					c-0.3,0.3-0.4,0.6-0.6,0.8l-1.8-0.4L730,293l1.8,0.4c0,0.3,0.1,0.7,0.2,1l-1.6,1l2.4,3.7l1.6-1c0.3,0.3,0.6,0.4,0.8,0.6
					l-0.4,1.8l4.4,0.9l0.4-1.8c0.3,0,0.7-0.1,1-0.2l1,1.6l3.7-2.4L744.3,297z M741.2,296.4c-2.1,1.3-4.9,0.8-6.2-1.3
					c-1.3-2.1-0.8-4.9,1.3-6.2c2.1-1.3,4.9-0.8,6.2,1.3S743.3,295,741.2,296.4z M726.4,283c0.2-0.2,0.3-0.3,0.3-0.6l1.2,0.3l0.6-2.8
					l-1.2-0.3c0-0.3-0.1-0.4-0.1-0.7l1-0.7l-1.5-2.3l-1,0.7c-0.2-0.2-0.3-0.3-0.6-0.3l0.3-1.2l-2.8-0.6l-0.3,1.2
					c-0.3,0-0.4,0.1-0.7,0.1l-0.7-1l-2.3,1.5l0.7,1c-0.2,0.2-0.3,0.3-0.3,0.6l-1.2-0.3l-0.6,2.8l1.2,0.3c0,0.3,0.1,0.4,0.1,0.7
					l-1,0.7l1.5,2.3l1-0.7c0.2,0.2,0.3,0.3,0.6,0.3l-0.3,1.2l2.8,0.6l0.3-1.2c0.3,0,0.4-0.1,0.7-0.1l0.7,1l2.3-1.5L726.4,283z
					 M724.4,282.6c-1.3,0.8-3,0.5-3.9-0.8c-0.8-1.3-0.5-3,0.8-3.9c1.3-0.8,3-0.5,3.9,0.8C726.1,280,725.7,281.7,724.4,282.6z"/>
				<g id="XMLID_303_">
					<circle id="XMLID_305_" class="st6" cx="585.1" cy="123.3" r="6.4"/>
					<path id="XMLID_304_" class="st7" d="M585.1,118.4c-0.3,0.8-0.3,1.6-0.4,2.4c-0.1,0.8-0.1,1.6-0.1,2.4l0.5-0.5
						c-0.7,0-1.4,0-2.1,0.1c-0.7,0.1-1.4,0.2-2.1,0.3c0.7,0.2,1.4,0.3,2.1,0.3c0.7,0.1,1.4,0.1,2.1,0.1h0.5v-0.5
						c0-0.8,0-1.6-0.1-2.4C585.4,120.1,585.3,119.3,585.1,118.4z"/>
				</g>
				<g id="XMLID_298_">
					<circle id="XMLID_302_" class="st6" cx="710.7" cy="171.1" r="8.3"/>
					<path id="XMLID_299_" class="st8" d="M710.9,172.6l2.3,4c0.2,0.3,0.5,0.4,0.8,0.3c0.3-0.2,0.4-0.5,0.3-0.8l-2.3-4
						c1.6-1.3,2-3.5,1-5.3c-1.2-1.9-3.7-2.6-5.6-1.5c-1.9,1.2-2.6,3.7-1.5,5.6C706.9,172.6,709.1,173.3,710.9,172.6z M706.9,170.3
						c-0.8-1.4-0.3-3.2,1.1-3.9c1.4-0.8,3.2-0.3,3.9,1.1c0.8,1.4,0.3,3.2-1.1,3.9C709.5,172.1,707.6,171.6,706.9,170.3z"/>
				</g>
				<g id="XMLID_292_">
					<circle id="XMLID_297_" class="st6" cx="411.5" cy="284.2" r="9.2"/>
					<path id="XMLID_293_" class="st9" d="M409.4,287.6v0.5h-0.1v2.1h4.4v-2.1h-0.1v-0.5c0-1.1,0.4-2.1,1.2-3.1
						c0.8-1,1.1-2.2,0.9-3.4c-0.3-1.8-1.8-3.3-3.7-3.5c-1.3-0.2-2.4,0.3-3.3,1c-0.9,0.8-1.4,2-1.4,3.2c0,1,0.3,1.9,1,2.7
						C409,285.5,409.4,286.5,409.4,287.6z M412.7,287.6v0.2h-0.4c0.4-1.5,0.9-3.5,0.5-3.9c-0.2-0.2-0.4-0.2-0.6-0.1h-0.1
						c-0.2-0.3-0.3-0.3-0.6-0.3l0,0c-0.3,0-0.4,0.1-0.6,0.3c-0.2-0.1-0.3-0.1-0.4-0.1s-0.3,0.1-0.3,0.3c-0.3,0.7,0.2,2.8,0.5,3.8
						h-0.4v-0.2c0-1.3-0.5-2.5-1.4-3.6c-0.5-0.6-0.8-1.3-0.8-2.1c0-1,0.4-1.9,1.2-2.5c0.8-0.7,1.7-0.9,2.7-0.8
						c1.4,0.2,2.7,1.3,2.9,2.8c0.2,1-0.1,1.9-0.7,2.7C413.2,285.1,412.7,286.3,412.7,287.6z M411.1,287.8c-0.4-1.3-0.8-3.2-0.6-3.6
						c0,0,0,0,0-0.1c0,0,0.1,0,0.2,0.1c-0.1,0.3,0,0.5,0.1,0.7c0.1,0.1,0.3,0.2,0.3,0.1c0.3-0.1,0.3-0.3,0.3-0.5
						c0-0.1-0.1-0.3-0.2-0.3c0.1-0.2,0.3-0.2,0.3-0.2c0.1,0,0.1,0.1,0.2,0.1c0,0,0,0.1,0.1,0.1c-0.1,0.2-0.2,0.3-0.2,0.4
						c0,0.2,0.1,0.3,0.2,0.3c0.2,0.1,0.3,0.1,0.4-0.1c0.2-0.2,0.2-0.4,0.1-0.6c0,0,0.1,0,0.1-0.1c0.1,0,0.1,0,0.2,0
						c0.2,0.3-0.2,2-0.7,3.6L411.1,287.8L411.1,287.8z"/>
				</g>
			</g>
			<g id="XMLID_270_">
				<g id="XMLID_286_">
					<path id="XMLID_290_" class="st10" d="M648,146.4c0.3-0.4,13.7-12.6,13.7-12.6l2.3,1.5L648,146.4z"/>
					<polygon id="XMLID_289_" class="st11" points="664.1,135.3 667.1,142.6 648,146.4 					"/>
					<polygon id="XMLID_288_" class="st12" points="667.1,142.6 648,146.4 666.9,136.9 					"/>
					<polygon id="XMLID_287_" class="st10" points="666.9,136.9 648,146.4 670.9,139.7 					"/>
				</g>
				<g id="XMLID_281_">
					<path id="XMLID_285_" class="st10" d="M738.5,258.6c-0.5-0.1-16.4-0.7-16.4-0.7l-0.8,2.3L738.5,258.6z"/>
					<polygon id="XMLID_284_" class="st11" points="721.2,260.4 723.4,266.9 738.5,258.6 					"/>
					<polygon id="XMLID_283_" class="st12" points="723.4,266.9 738.5,258.6 720.2,263.1 					"/>
					<polygon id="XMLID_282_" class="st10" points="720.2,263.1 738.5,258.6 719.2,267.2 					"/>
				</g>
				<g id="XMLID_276_">
					<path id="XMLID_280_" class="st10" d="M504.7,120.5c-0.2,0.3-1.5,5.4-1.5,5.4l-11.3,6.4L504.7,120.5z"/>
					<polygon id="XMLID_279_" class="st11" points="506.8,129.8 503.2,125.8 491.9,132.2 					"/>
					<polygon id="XMLID_278_" class="st12" points="506.8,129.8 501.9,129.6 491.9,132.2 					"/>
					<polygon id="XMLID_277_" class="st10" points="501.9,129.6 500.2,135.8 491.9,132.2 					"/>
				</g>
				<g id="XMLID_271_">
					<path id="XMLID_275_" class="st10" d="M374.7,243c0.4,0.3,5.1,5.9,5.1,5.9l18.2,1.4L374.7,243z"/>
					<polygon id="XMLID_274_" class="st11" points="377.7,256.3 379.8,248.9 397.9,250.3 					"/>
					<polygon id="XMLID_273_" class="st12" points="377.7,256.3 383.7,253 397.9,250.3 					"/>
					<polygon id="XMLID_272_" class="st10" points="383.7,253 389.6,259.7 397.9,250.3 					"/>
				</g>
			</g>
			<g id="XMLID_33_">
				<g id="XMLID_266_">
					<path id="XMLID_269_" class="st13" d="M475.2,310.5H691c2.6,0,4.8-2.1,4.8-4.8V192.9c0-2.6-2.1-4.8-4.8-4.8H475.2
						c-2.6,0-4.8,2.1-4.8,4.8v113C470.4,308.4,472.6,310.5,475.2,310.5z"/>
					<path id="XMLID_268_" class="st14" d="M471.3,305H687c2.6,0,4.8-2.1,4.8-4.8v-113c0-2.6-2.1-4.8-4.8-4.8H471.3
						c-2.6,0-4.8,2.1-4.8,4.8v113C466.5,302.8,468.6,305,471.3,305z"/>
					<path id="XMLID_267_" class="st6" d="M471.2,305.3H687c2.6,0,4.7-2.1,4.7-4.7V191H466.5v109.5
						C466.5,303.2,468.6,305.3,471.2,305.3z"/>
				</g>
				<g id="XMLID_262_">
					<circle id="XMLID_265_" class="st15" cx="482.3" cy="186.7" r="1.3"/>
					<circle id="XMLID_264_" class="st16" cx="478" cy="186.7" r="1.3"/>
					<circle id="XMLID_263_" class="st17" cx="473.7" cy="186.7" r="1.3"/>
				</g>
				<g id="XMLID_229_">
					<g id="XMLID_254_">
						<path id="XMLID_258_" class="st18" d="M677.7,226.2c0-4-1.1-7.9-3-11.1c-3.8-6.4-10.9-10.8-18.9-10.8
							c-5.7,0-10.8,2.2-14.7,5.7c-4.4,4-7.2,9.8-7.2,16.2c0,12.1,9.8,21.9,21.9,21.9c9.3,0,17.2-5.8,20.4-14
							C677.1,231.7,677.7,229.1,677.7,226.2z M668.6,226.2c0,1.7-0.3,3.3-0.9,4.7c-1.8,4.8-6.5,8.1-12,8.1c-0.1,0-0.3,0-0.3,0
							c-6.9-0.2-12.6-5.9-12.6-12.8c0-3.8,1.6-7.1,4.2-9.5c2.3-2.1,5.4-3.3,8.6-3.3c4.8,0,8.9,2.6,11.1,6.4
							C667.9,221.7,668.6,223.9,668.6,226.2z"/>
						<path id="XMLID_257_" class="st19" d="M655.7,248.1v-9c-0.1,0-0.3,0-0.3,0c-6.9-0.2-12.6-5.9-12.6-12.8c0-3.8,1.6-7.1,4.2-9.5
							l-6-6.8c-4.4,4-7.2,9.8-7.2,16.2C633.8,238.4,643.6,248.1,655.7,248.1z"/>
						<path id="XMLID_256_" class="st12" d="M677.7,226.2c0-4-1.1-7.9-3-11.1l-7.8,4.6c1.1,1.9,1.8,4.1,1.8,6.4
							c0,1.7-0.3,3.3-0.9,4.7l8.5,3.2C677.1,231.7,677.7,229.1,677.7,226.2z"/>
						<path id="XMLID_255_" class="st10" d="M674.6,215.2c-3.8-6.4-10.9-10.8-18.9-10.8c-5.7,0-10.8,2.2-14.7,5.7l6,6.8
							c2.3-2.1,5.4-3.3,8.6-3.3c4.8,0,8.9,2.6,11.1,6.4L674.6,215.2z"/>
					</g>
					<path id="XMLID_249_" class="st19" d="M546.8,210h71.3c1.5,0,2.7,1.2,2.7,2.7l0,0c0,1.5-1.2,2.7-2.7,2.7h-71.3
						c-1.5,0-2.7-1.2-2.7-2.7l0,0C544.1,211.1,545.3,210,546.8,210z M546.8,224.4h71.3c1.5,0,2.7-1.2,2.7-2.7l0,0
						c0-1.5-1.2-2.7-2.7-2.7h-71.3c-1.5,0-2.7,1.2-2.7,2.7l0,0C544.1,223.2,545.3,224.4,546.8,224.4z M546.8,233.4h71.3
						c1.5,0,2.7-1.2,2.7-2.7l0,0c0-1.5-1.2-2.7-2.7-2.7h-71.3c-1.5,0-2.7,1.2-2.7,2.7l0,0C544.1,232.2,545.3,233.4,546.8,233.4z
						 M546.8,242.5h71.3c1.5,0,2.7-1.2,2.7-2.7l0,0c0-1.5-1.2-2.7-2.7-2.7h-71.3c-1.5,0-2.7,1.2-2.7,2.7l0,0
						C544.1,241.3,545.3,242.5,546.8,242.5z"/>
					<path id="XMLID_244_" class="st19" d="M480.6,259.1L480.6,259.1c0-1.5,1.2-2.7,2.6-2.7c9.3,0,40.5,0,49.7,0
						c1.4,0,2.6,1.2,2.6,2.6v0.1c0,1.4-1.2,2.6-2.6,2.6h-49.7C481.7,261.7,480.6,260.5,480.6,259.1z M533,265.5h-49.7
						c-1.4,0-2.6,1.2-2.6,2.6v0.1c0,1.4,1.2,2.6,2.6,2.6H533c1.4,0,2.6-1.2,2.6-2.6v-0.1C535.6,266.7,534.4,265.5,533,265.5z
						 M480.6,277.2L480.6,277.2c0,1.5,1.2,2.7,2.6,2.7h49.7c1.4,0,2.6-1.2,2.6-2.6v-0.1c0-1.4-1.2-2.6-2.6-2.6h-49.7
						C481.7,274.6,480.6,275.8,480.6,277.2z M483.2,288.9h49.7c1.5,0,2.7-1.2,2.7-2.7l0,0c0-1.5-1.2-2.7-2.7-2.7h-49.7
						c-1.5,0-2.7,1.2-2.7,2.7l0,0C480.6,287.8,481.7,288.9,483.2,288.9z"/>
					<path id="XMLID_243_" class="st19" d="M635.7,291.1H671c3.8,0,6.8-3,6.8-6.8v-22.7c0-3.8-3-6.8-6.8-6.8h-35.3
						c-3.8,0-6.8,3-6.8,6.8v22.7C628.9,288.1,631.9,291.1,635.7,291.1z"/>
					<g id="XMLID_230_">
						<g id="XMLID_237_">
							<defs>
								<path id="SVGID_4_" d="M530.8,251.3h-45.6c-2.6,0-4.8-2.1-4.8-4.8v-35.3c0-2.6,2.1-4.8,4.8-4.8h45.6c2.6,0,4.8,2.1,4.8,4.8
									v35.3C535.6,249.2,533.5,251.3,530.8,251.3z"/>
							</defs>
							<defs>
								<path id="SVGID_5_" d="M530.8,251.3h-45.6c-2.6,0-4.8-2.1-4.8-4.8v-35.3c0-2.6,2.1-4.8,4.8-4.8h45.6c2.6,0,4.8,2.1,4.8,4.8
									v35.3C535.6,249.2,533.5,251.3,530.8,251.3z"/>
							</defs>
							<defs>
								<path id="SVGID_6_" d="M530.8,251.3h-45.6c-2.6,0-4.8-2.1-4.8-4.8v-35.3c0-2.6,2.1-4.8,4.8-4.8h45.6c2.6,0,4.8,2.1,4.8,4.8
									v35.3C535.6,249.2,533.5,251.3,530.8,251.3z"/>
							</defs>
							<defs>
								<path id="SVGID_7_" d="M530.8,251.3h-45.6c-2.6,0-4.8-2.1-4.8-4.8v-35.3c0-2.6,2.1-4.8,4.8-4.8h45.6c2.6,0,4.8,2.1,4.8,4.8
									v35.3C535.6,249.2,533.5,251.3,530.8,251.3z"/>
							</defs>
							<clipPath id="SVGID_8_">
								<use xlink:href="#SVGID_4_"  style="overflow:visible;"/>
							</clipPath>
							<clipPath id="SVGID_9_" class="st20">
								<use xlink:href="#SVGID_5_"  style="overflow:visible;"/>
							</clipPath>
							<clipPath id="SVGID_10_" class="st21">
								<use xlink:href="#SVGID_6_"  style="overflow:visible;"/>
							</clipPath>
							<clipPath id="SVGID_11_" class="st22">
								<use xlink:href="#SVGID_7_"  style="overflow:visible;"/>
							</clipPath>
							<path id="XMLID_242_" class="st23" d="M530.8,251.3h-45.6c-2.6,0-4.8-2.1-4.8-4.8v-35.3c0-2.6,2.1-4.8,4.8-4.8h45.6
								c2.6,0,4.8,2.1,4.8,4.8v35.3C535.6,249.2,533.5,251.3,530.8,251.3z"/>
							<path id="XMLID_241_" class="st24" d="M495.7,245.9l26.5-13.8c1.4-0.8,3.2-0.7,4.6,0.3l24.6,15.9v4.5h-55.9L495.7,245.9z"/>
							<path id="XMLID_240_" class="st25" d="M478,241.2l17.7-14.3c1.6-1.3,3.9-1.3,5.5-0.2l35.1,25.1H477L478,241.2z"/>
							<circle id="XMLID_239_" class="st25" cx="514.8" cy="218.2" r="5.2"/>
						</g>
						<path id="XMLID_232_" class="st19" d="M588.2,270h4.9c1.4,0,2.6,1.2,2.6,2.6v15.8c0,1.4-1.2,2.6-2.6,2.6h-4.9
							c-1.4,0-2.6-1.2-2.6-2.6v-15.8C585.6,271.2,586.7,270,588.2,270z M603.6,263.6h5.2c1.3,0,2.5,1.1,2.5,2.5v22.5
							c0,1.3-1.1,2.5-2.5,2.5h-5.2c-1.3,0-2.5-1.1-2.5-2.5v-22.5C601.1,264.7,602.2,263.6,603.6,263.6z M569.6,265.4v23.2
							c0,1.3,1.1,2.5,2.5,2.5h5.2c1.3,0,2.5-1.1,2.5-2.5v-23.2c0-1.3-1.1-2.5-2.5-2.5h-5.2C570.7,262.9,569.6,264.1,569.6,265.4z
							 M561.3,251.9h-5.2c-1.3,0-2.5,1.1-2.5,2.5v34.2c0,1.3,1.1,2.5,2.5,2.5h5.2c1.3,0,2.5-1.1,2.5-2.5v-34.2
							C563.8,253,562.6,251.9,561.3,251.9z"/>
						<path id="XMLID_231_" class="st6" d="M648,281.8v-17.5c0-1.4,1.6-2.3,2.8-1.5l13.1,8.6c1.1,0.7,1.1,2.3,0,2.9l-13.1,8.9
							C649.6,284.1,648,283.2,648,281.8z"/>
					</g>
				</g>
				<path id="XMLID_228_" class="st4" d="M708.8,332.4H438.2c-1,0-1.8-0.8-1.8-1.8l0,0c0-1,0.8-1.8,1.8-1.8h270.6
					c1,0,1.8,0.8,1.8,1.8l0,0C710.7,331.5,709.8,332.4,708.8,332.4z"/>
				<g id="XMLID_213_">
					<path id="XMLID_227_" class="st13" d="M570.3,186.7h-35.8c-4.4,0-8-3.5-8-8v-20.1c0-4.4,3.5-7.9,7.9-7.9h35.8
						c4.4,0,7.9,3.5,7.9,7.9v20.2C578.3,183.2,574.7,186.7,570.3,186.7z"/>
					<path id="XMLID_226_" class="st6" d="M567.1,184.7h-35.8c-4.4,0-8-3.5-8-8v-20.2c0-4.4,3.5-8,8-8h35.8c4.4,0,8,3.5,8,8v20.2
						C575,181.1,571.4,184.7,567.1,184.7z"/>
					<path id="XMLID_225_" class="st14" d="M575,156.7h-51.7v-0.3c0-4.3,3.5-7.8,7.8-7.8h36c4.3,0,7.8,3.5,7.8,7.8L575,156.7
						L575,156.7z"/>
					<g id="XMLID_221_">
						<circle id="XMLID_224_" class="st15" cx="528.3" cy="152.9" r="0.8"/>
						<circle id="XMLID_223_" class="st16" cx="532" cy="152.9" r="0.8"/>
						<circle id="XMLID_222_" class="st17" cx="535.7" cy="152.9" r="0.8"/>
					</g>
					<g id="XMLID_214_">
						<path id="XMLID_220_" class="st19" d="M527.9,178.6h42.6c0.4,0,0.8,0.3,0.8,0.8v0.1c0,0.4-0.3,0.8-0.8,0.8h-42.6
							c-0.4,0-0.8-0.3-0.8-0.8v-0.1C527.1,178.9,527.4,178.6,527.9,178.6z"/>
						<path id="XMLID_219_" class="st26" d="M527.9,174.5h42.6c0.4,0,0.8,0.3,0.8,0.8v0.1c0,0.4-0.3,0.8-0.8,0.8h-42.6
							c-0.4,0-0.8-0.3-0.8-0.8v-0.1C527.1,174.8,527.4,174.5,527.9,174.5z"/>
						<path id="XMLID_218_" class="st26" d="M527.9,170.4h42.6c0.4,0,0.8,0.3,0.8,0.8v0.1c0,0.4-0.3,0.8-0.8,0.8h-42.6
							c-0.4,0-0.8-0.3-0.8-0.8v-0.1C527.1,170.7,527.4,170.4,527.9,170.4z"/>
						<path id="XMLID_215_" class="st26" d="M559.2,164c0,2.6-2.1,4.8-4.8,4.8c-2.6,0-4.8-2.1-4.8-4.8c0-2.7,2.1-4.8,4.8-4.8
							C557,159.3,559.2,161.4,559.2,164z M566.2,159.3c-2.6,0-4.8,2.1-4.8,4.8s2.1,4.8,4.8,4.8c2.6,0,4.8-2.1,4.8-4.8
							S568.8,159.3,566.2,159.3z"/>
					</g>
				</g>
				<g id="XMLID_198_">
					<path id="XMLID_212_" class="st13" d="M588.1,328.6h-35.8c-4.4,0-7.9-3.5-7.9-7.9v-20.2c0-4.4,3.5-7.9,8-7.9h35.8
						c4.4,0,7.9,3.5,7.9,7.9v20.1C596,325.1,592.4,328.6,588.1,328.6z"/>
					<path id="XMLID_211_" class="st6" d="M585.1,328.6h-35.8c-4.4,0-8-3.5-8-7.9v-20.2c0-4.4,3.5-7.9,7.9-7.9h35.8
						c4.4,0,8,3.5,8,7.9v20.1C593.1,325.1,589.5,328.6,585.1,328.6z"/>
					<path id="XMLID_210_" class="st14" d="M593.1,300.6h-51.7v-0.3c0-4.3,3.5-7.8,7.8-7.8h36.1c4.3,0,7.8,3.5,7.8,7.8V300.6
						L593.1,300.6z"/>
					<g id="XMLID_206_">
						<circle id="XMLID_209_" class="st15" cx="546.4" cy="296.9" r="0.8"/>
						<circle id="XMLID_208_" class="st16" cx="550.1" cy="296.9" r="0.8"/>
						<circle id="XMLID_207_" class="st17" cx="553.7" cy="296.9" r="0.8"/>
					</g>
					<g id="XMLID_199_">
						<path id="XMLID_205_" class="st19" d="M546,322.6h42.6c0.4,0,0.8,0.3,0.8,0.8v0.1c0,0.4-0.3,0.8-0.8,0.8H546
							c-0.4,0-0.8-0.3-0.8-0.8v-0.1C545.2,322.9,545.5,322.6,546,322.6z"/>
						<path id="XMLID_204_" class="st19" d="M546,318.4h42.6c0.4,0,0.8,0.3,0.8,0.8v0.1c0,0.4-0.3,0.8-0.8,0.8H546
							c-0.4,0-0.8-0.3-0.8-0.8v-0.1C545.2,318.7,545.5,318.4,546,318.4z"/>
						<path id="XMLID_203_" class="st17" d="M546,314.3h42.6c0.4,0,0.8,0.3,0.8,0.8v0.1c0,0.4-0.3,0.8-0.8,0.8H546
							c-0.4,0-0.8-0.3-0.8-0.8v-0.1C545.2,314.6,545.5,314.3,546,314.3z"/>
						<circle id="XMLID_202_" class="st26" cx="585.3" cy="308.6" r="3.9"/>
						<circle id="XMLID_201_" class="st26" cx="574.3" cy="308.6" r="3.9"/>
						<circle id="XMLID_200_" class="st16" cx="563.5" cy="308.6" r="3.9"/>
					</g>
				</g>
				<g id="XMLID_183_">
					<path id="XMLID_197_" class="st13" d="M468.1,253.3h-35.8c-4.4,0-7.9-3.5-7.9-7.9v-20.2c0-4.4,3.5-8,8-8h35.8
						c4.4,0,7.9,3.5,7.9,7.9v20.2C476,249.8,472.4,253.3,468.1,253.3z"/>
					<path id="XMLID_196_" class="st6" d="M465.2,251.4h-35.8c-4.4,0-7.9-3.5-7.9-7.9v-20.2c0-4.4,3.5-7.9,7.9-7.9h35.8
						c4.4,0,8,3.5,8,8v20.2C473.1,247.8,469.5,251.4,465.2,251.4z"/>
					<path id="XMLID_195_" class="st14" d="M473.1,223.4h-51.7v-0.3c0-4.3,3.5-7.8,7.8-7.8h36.1c4.3,0,7.8,3.5,7.8,7.8L473.1,223.4
						L473.1,223.4z"/>
					<g id="XMLID_191_">
						<circle id="XMLID_194_" class="st15" cx="426.4" cy="219.7" r="0.8"/>
						<circle id="XMLID_193_" class="st16" cx="430.1" cy="219.7" r="0.8"/>
						<circle id="XMLID_192_" class="st17" cx="433.8" cy="219.7" r="0.8"/>
					</g>
					<g id="XMLID_184_">
						<path id="XMLID_190_" class="st19" d="M426,245.3h42.6c0.4,0,0.8,0.3,0.8,0.8v0.1c0,0.4-0.3,0.8-0.8,0.8H426
							c-0.4,0-0.8-0.3-0.8-0.8v-0.1C425.2,245.6,425.5,245.3,426,245.3z"/>
						<path id="XMLID_189_" class="st19" d="M426,241.2h42.6c0.4,0,0.8,0.3,0.8,0.8v0.1c0,0.4-0.3,0.8-0.8,0.8H426
							c-0.4,0-0.8-0.3-0.8-0.8V242C425.2,241.5,425.5,241.2,426,241.2z"/>
						<path id="XMLID_188_" class="st17" d="M426,237.1h42.6c0.4,0,0.8,0.3,0.8,0.8v0.1c0,0.4-0.3,0.8-0.8,0.8H426
							c-0.4,0-0.8-0.3-0.8-0.8v-0.1C425.2,237.4,425.5,237.1,426,237.1z"/>
						<circle id="XMLID_187_" class="st26" cx="465.3" cy="231.4" r="3.9"/>
						<circle id="XMLID_186_" class="st26" cx="454.3" cy="231.4" r="3.9"/>
						<circle id="XMLID_185_" class="st16" cx="443.5" cy="231.4" r="3.9"/>
					</g>
				</g>
				<g id="XMLID_180_">
					<path id="XMLID_182_" class="st11" d="M492.4,299.9c-8.2-8-2.4-16.9-8.3-22.3c-2.1-1.9-5.1-2.2-7.7-1.3
						c-11.9,3.7-20.2,16.2-20.2,29c0,7.2,1.8,18.2,6.4,23.4h49.8c3-3.9,6-10.5,7.4-16.5C521.1,306.3,505.5,312.7,492.4,299.9z"/>
					<path id="XMLID_181_" class="st10" d="M472.1,301.8c-4.9-7.2-4.6-20.4,3.5-25.4c-11.5,4-19.4,16.2-19.4,28.7
						c0,7.2,1.8,18.2,6.4,23.4h49.8c3.1-3,6.2-10.6,7.4-16.5C514.5,314,484.2,319.8,472.1,301.8z"/>
				</g>
				<g id="XMLID_158_">
					<path id="XMLID_179_" class="st27" d="M516.8,308.3c3.3-0.3,5.5,0.1,5.4,1.6c-0.2,2.2-7.8,2.7-9,0.5
						C512.9,309.5,513.3,308.6,516.8,308.3z"/>
					<g id="XMLID_159_">
						<path id="XMLID_178_" class="st28" d="M491.1,303.5c-1.9,5.6-1.4,7.6,3.1,9.1c2.6,0.9,9.8,1.1,14.8,0.8
							c12.9-0.8,10.6-9,3.9-8.6c-1.3,0.1-2.7,1.1-5.8,0.3c-3.1-0.8-7.7-2.4-7.7-2.4L491.1,303.5z"/>
						<g id="XMLID_175_">
							<path id="XMLID_177_" class="st29" d="M496.6,284.3c-0.9,0.2-2,1.3-2.2,2.3c-0.6,4.2,0.2,14.5,0.9,15.9
								c1.1,1.9,13,2.8,14.1,2.8c0.7,0.1,1.7-0.3,2.3-0.5c0.4-0.2,0.8-0.2,1.3,0c0.8,0.3,1.6,0.3,1.9,0.1c0.4-0.3-1.8-1.9-3-2.1
								c-0.7-0.2-2.6,0.3-3.2,0.5c-0.5,0.2-8.8-2.1-9.7-3.5c-0.8-1.2,0.4-11.1-0.2-13.7C498.2,283.4,496.6,284.3,496.6,284.3z"/>
							<path id="XMLID_176_" class="st7" d="M498.1,281.7c-3.9-0.2-4.5,7.8-4.5,7.8c1.4,1.1,3.6,1.5,6,1.6
								C499.4,289.2,501.6,281.9,498.1,281.7z"/>
						</g>
						<path id="XMLID_174_" class="st30" d="M506.4,305.8c0,0,10.7,1.3,12.4,2.8c0.6,0.6,1,2.9-0.8,3.3c-7.5,1.3-12.1,1.5-12.1,1.5
							L506.4,305.8z"/>
						<path id="XMLID_173_" class="st4" d="M510.1,308.9c0,5.2-6.7,5-10.5,5c-3.8,0-14.5,0.8-14.1-9.3c0.3-7.6,9.8,0.9,13.6,0.9
							C502.9,305.7,510.1,304.8,510.1,308.9z"/>
						<path id="XMLID_172_" class="st7" d="M498.6,282.2c-3-2.5-11.5-2.7-13.1,5.1c-2.8,12.9-0.8,16.8-0.8,16.8
							c5.1,1.2,16.8,2.5,20.3,0.5c0,0-2.6-3.2-3.5-8.4C500.7,292.2,501,284.2,498.6,282.2z"/>
						<g id="XMLID_169_">
							<path id="XMLID_171_" class="st29" d="M487.8,284.3c-0.9,0.2-2,1.3-2.2,2.3c-0.6,4.2,0.2,14.5,0.9,15.9
								c1.1,1.9,13,2.8,14.1,2.8c0.7,0.1,1.7-0.3,2.3-0.5c0.4-0.2,0.8-0.2,1.3,0c0.8,0.3,1.6,0.3,1.9,0.1c0.4-0.3-1.8-1.9-3-2.1
								c-0.7-0.2-2.6,0.3-3.2,0.5c-0.5,0.2-8.8-2.1-9.7-3.5c-0.8-1.2,0.4-11.1-0.2-13.7C489.3,283.4,487.8,284.3,487.8,284.3z"/>
							<path id="XMLID_170_" class="st7" d="M489.2,281.7c-3.9-0.2-4.5,7.8-4.5,7.8c1.4,1.1,3.6,1.5,6,1.6
								C490.5,289.2,492.7,281.9,489.2,281.7z"/>
						</g>
						<path id="XMLID_168_" class="st29" d="M492.4,278c0,0-0.3,0.9,0,3.3c0.1,0.6,3.5,2,3.1,0.4c-0.5-1.9-0.4-2.8-0.5-2.8
							L492.4,278z"/>
						<path id="XMLID_167_" class="st29" d="M491.8,276.4c0,0.1,0.1,0.2,0.1,0.3c0.1,0.7,0.3,1.3,0.7,1.9c0.4,0.6,1.1,1.1,1.8,1.1
							c0.7,0.1,1.3-0.3,1.8-0.7c0.5-0.4,0.8-1.1,1-1.7c0.3-1,0.8-2.2,0.2-3.1c-0.3-0.4-1.7-1.1-2.8-1.6c-0.6-0.3-1.3-0.1-1.8,0.4
							l-1,1.1c-0.3,0.4-0.5,1-0.3,1.5L491.8,276.4z"/>
						<path id="XMLID_166_" class="st31" d="M492.8,276.4c-0.7-2.3-1.5-0.4-0.7,0.8c0,0.3-0.1,0.5,0.2,1.1c-0.5-0.3-0.7-0.4-1.4-1.3
							c-0.8-0.9-1.8-5,1.1-6c3-3.9,7.4,2.1,8,1.8c0,0.8-0.7,2.5-2.3,2.7c-0.8,0.1-2.2,0.3-2.8-0.1
							C493.5,274.6,492.9,276.7,492.8,276.4z"/>
						<g id="XMLID_161_">
							<g id="XMLID_164_">
								<path id="XMLID_165_" class="st10" d="M518.8,305.8h-13c-0.3,0-0.4-0.2-0.4-0.4c0-0.3,0.2-0.4,0.4-0.4l2.3-12.3
									c0,0,12.6-0.1,12.9,0s0.4,0.3,0.3,0.5L518.8,305.8z"/>
							</g>
							<g id="XMLID_162_">
								<path id="XMLID_163_" class="st26" d="M505.9,305.8h-13c-0.3,0-0.4-0.2-0.4-0.4c0-0.3,0.2-0.4,0.4-0.4h12.2l2.4-11.9
									c0.1-0.3,0.3-0.4,0.5-0.3c0.3,0.1,0.4,0.3,0.3,0.5L505.9,305.8z"/>
							</g>
						</g>
						<path id="XMLID_160_" class="st27" d="M502.9,311.2c3.4,0.2,5.9,0.6,5.5,1.8c-0.5,1.7-9.1,2.2-9,0.3
							C499.4,312.2,499.4,311,502.9,311.2z"/>
					</g>
				</g>
				<g id="XMLID_151_">
					<g id="XMLID_152_">
						<path id="XMLID_157_" class="st26" d="M708.3,328.6h-34.6c-0.9,0-1.6-0.8-1.6-1.6v-40.7c0-0.9,0.8-1.6,1.6-1.6h34.6
							c0.9,0,1.6,0.8,1.6,1.6V327C710,327.9,709.2,328.6,708.3,328.6z"/>
						<g id="XMLID_153_">
							<path id="XMLID_156_" class="st10" d="M705.9,299.1h-29.6c-0.9,0-1.6-0.8-1.6-1.6V289c0-0.9,0.8-1.6,1.6-1.6h29.6
								c0.9,0,1.6,0.8,1.6,1.6v8.5C707.5,298.4,706.8,299.1,705.9,299.1z"/>
							<path id="XMLID_155_" class="st10" d="M705.9,312.5h-29.6c-0.9,0-1.6-0.8-1.6-1.6v-8.5c0-0.9,0.8-1.6,1.6-1.6h29.6
								c0.9,0,1.6,0.8,1.6,1.6v8.5C707.5,311.8,706.8,312.5,705.9,312.5z"/>
							<path id="XMLID_154_" class="st10" d="M705.9,325.9h-29.6c-0.9,0-1.6-0.8-1.6-1.6v-8.5c0-0.9,0.8-1.6,1.6-1.6h29.6
								c0.9,0,1.6,0.8,1.6,1.6v8.5C707.5,325.2,706.8,325.9,705.9,325.9z"/>
						</g>
					</g>
				</g>
				<g id="XMLID_136_">
					<g id="XMLID_147_">
						<path id="XMLID_150_" class="st32" d="M698,320.6c1.5-3.6,3-7.3,3.6-11.1c0.6-3.9,0.3-8-1.8-11.4c-0.3-0.4-0.6-0.9-1-1.3
							s-1-0.5-1.5-0.3c-0.7,0.2-1.1,0.8-1.4,1.4c-1.6,3.3-1.2,7.2-0.3,10.8c0.9,3.6,2.3,7,2.3,10.7"/>
						<g id="XMLID_148_" class="st33">
							<path id="XMLID_149_" class="st34" d="M698.5,320c0.2,0,0.3-0.2,0.3-0.3c0.4-6.5,0.1-13.2-0.8-19.7c0-0.2-0.3-0.3-0.4-0.3
								s-0.3,0.3-0.3,0.4c0.9,6.4,1.3,13.1,0.8,19.5C698.2,319.8,698.3,320,698.5,320L698.5,320z"/>
						</g>
					</g>
					<g id="XMLID_143_">
						<path id="XMLID_146_" class="st7" d="M699.1,320.7c-0.8-2.5-0.7-5.3-0.8-8c-0.1-2.7-0.6-5.5-2.5-7.5c-0.5-0.5-1.2-1-1.9-1.2
							c-0.8-0.2-1.6-0.1-2.2,0.3c-0.8,0.6-1.1,1.8-1.2,2.8c-0.2,2.9,1,5.8,2.7,8.1s3.9,4.4,6,6.3"/>
						<g id="XMLID_144_" class="st33">
							<path id="XMLID_145_" class="st34" d="M699,321.3c0.1,0,0.3,0,0.3-0.1c0.2-0.2,0.2-0.3,0-0.5c-3.3-3.9-5.4-8.8-5.9-13.9
								c0-0.2-0.2-0.3-0.4-0.3c-0.2,0-0.3,0.2-0.3,0.4c0.5,5.3,2.7,10.3,6.1,14.3C698.8,321.2,698.9,321.3,699,321.3z"/>
						</g>
					</g>
					<g id="XMLID_139_">
						<path id="XMLID_142_" class="st35" d="M698.8,320.9c1.4-0.4,2.6-1.4,3.7-2.5c2-2.1,3.6-4.6,4.6-7.4c0.3-0.9,0.6-1.8,0.6-2.8
							s-0.3-1.9-0.9-2.6c-1-1-2.7-1.1-3.9-0.5c-1.3,0.7-2.2,1.9-2.6,3.2c-0.5,1.3-0.6,2.8-0.8,4.2c-0.3,2.4-0.5,4.9-0.7,7.4"/>
						<g id="XMLID_140_" class="st33">
							<path id="XMLID_141_" class="st34" d="M698.5,320.1c0.1,0,0.2,0,0.3-0.1c3.1-3,5.3-6.9,6.1-11.2c0-0.2-0.1-0.4-0.3-0.4
								c-0.2,0-0.4,0.1-0.4,0.3c-0.8,4.1-2.8,8-5.9,10.8c-0.2,0.2-0.2,0.3,0,0.5C698.3,320.1,698.4,320.1,698.5,320.1z"/>
						</g>
					</g>
					<polygon id="XMLID_138_" class="st4" points="695.7,328.6 702.5,328.6 705,319.3 693.3,319.3 					"/>
					<rect id="XMLID_137_" x="692.8" y="318.4" class="st26" width="12.6" height="3"/>
				</g>
				<path id="XMLID_133_" class="st8" d="M452,294.1c-6,0-11,4.9-11,11c0,1.9,0.8,4,1.3,5.2c1.7,3.8,6.1,12.8,8.5,17.4
					c0.6,1.2,2.3,1.2,2.8-0.1c2.1-4.6,6.2-13.6,8-17.4c0.8-1.6,1.3-3.3,1.3-5.2C463,299.1,458.1,294.1,452,294.1z M452,310.3
					c-2.8,0-5.2-2.3-5.2-5.2s2.3-5.2,5.2-5.2s5.2,2.3,5.2,5.2C457.2,308,454.9,310.3,452,310.3z"/>
				<g id="XMLID_108_">
					<path id="XMLID_132_" class="st13" d="M514.6,219.3h16.7c1.3,0,2.3,1.1,2.3,2.3V233c0,1.3-1.1,2.3-2.3,2.3h-1.2l2.6,2.7
						l-6.9-2.7h-11.3c-1.3,0-2.3-1.1-2.3-2.3v-11.3C512.3,220.4,513.4,219.3,514.6,219.3z"/>
					<path id="XMLID_131_" class="st6" d="M513.9,234.2H529c1.8,0,3.2-1.4,3.2-3.2v-9.7c0-1.8-1.4-3.2-3.2-3.2h-15.1
						c-1.8,0-3.2,1.4-3.2,3.2v9.7C510.7,232.7,512.1,234.2,513.9,234.2z"/>
					<polyline id="XMLID_130_" class="st6" points="527.8,233.3 531.1,236.8 522.3,233.3 					"/>
					<path id="XMLID_109_" class="st19" d="M529.8,223.4H513c-0.3,0-0.6-0.3-0.6-0.6c0-0.3,0.3-0.6,0.6-0.6h16.7
						c0.3,0,0.6,0.3,0.6,0.6C530.4,223.2,530.1,223.4,529.8,223.4z M530.5,226.1c0-0.3-0.3-0.6-0.6-0.6h-16.7
						c-0.3,0-0.6,0.3-0.6,0.6c0,0.3,0.3,0.6,0.6,0.6h16.7C530.1,226.7,530.5,226.5,530.5,226.1z M530.5,229.4c0-0.3-0.3-0.6-0.6-0.6
						h-16.7c-0.3,0-0.6,0.3-0.6,0.6s0.3,0.6,0.6,0.6h16.7C530.1,230.1,530.5,229.7,530.5,229.4z"/>
				</g>
				<g id="XMLID_96_">
					<path id="XMLID_107_" class="st13" d="M653.4,278.7h-16.7c-1.3,0-2.3,1.1-2.3,2.3v11.3c0,1.3,1.1,2.3,2.3,2.3h1.2l-2.6,2.7
						l6.9-2.7h11.3c1.3,0,2.3-1.1,2.3-2.3v-11.3C655.8,279.7,654.7,278.7,653.4,278.7z"/>
					<path id="XMLID_106_" class="st6" d="M651.2,293.4h-15.1c-1.8,0-3.2-1.4-3.2-3.2v-9.7c0-1.8,1.4-3.2,3.2-3.2h15.1
						c1.8,0,3.2,1.4,3.2,3.2v9.7C654.4,292,653,293.4,651.2,293.4z"/>
					<polyline id="XMLID_105_" class="st6" points="637.3,292.6 633.9,296.1 642.8,292.6 					"/>
					<path id="XMLID_97_" class="st19" d="M634.6,282.1c0-0.3,0.3-0.6,0.6-0.6H652c0.3,0,0.6,0.3,0.6,0.6s-0.3,0.6-0.6,0.6h-16.7
						C635,282.7,634.6,282.5,634.6,282.1z M635.3,286H652c0.3,0,0.6-0.3,0.6-0.6c0-0.3-0.3-0.6-0.6-0.6h-16.7
						c-0.3,0-0.6,0.3-0.6,0.6C634.6,285.7,635,286,635.3,286z M635.3,289.3H652c0.3,0,0.6-0.3,0.6-0.6s-0.3-0.6-0.6-0.6h-16.7
						c-0.3,0-0.6,0.3-0.6,0.6C634.6,289,635,289.3,635.3,289.3z"/>
				</g>
				<g id="XMLID_67_">
					<g id="XMLID_82_">
						<g id="XMLID_94_">
							<path id="XMLID_95_" class="st11" d="M530.8,328.6c-0.1,0-0.2,0-0.2,0c-0.4-0.1-0.7-0.5-0.6-1l22-88.8c0.1-0.4,0.5-0.7,1-0.6
								c0.4,0.1,0.7,0.5,0.6,1l-22,88.8C531.6,328.4,531.2,328.6,530.8,328.6z"/>
						</g>
						<g id="XMLID_92_">
							<path id="XMLID_93_" class="st11" d="M548.4,328.6c-0.1,0-0.2,0-0.2,0c-0.4-0.1-0.7-0.5-0.6-1l22-88.8c0.1-0.4,0.5-0.7,1-0.6
								c0.4,0.1,0.7,0.5,0.6,1l-22,88.8C549.1,328.4,548.7,328.6,548.4,328.6z"/>
						</g>
						<g id="XMLID_83_">
							<path id="XMLID_84_" class="st11" d="M551.9,313.4l-17.4-0.1v-1.6l17.4,0.1V313.4z M554.7,302.1l-17.4-0.1v-1.6l17.4,0.1
								V302.1z M557.5,290.8l-17.4-0.1v-1.6l17.4,0.1V290.8z M560.3,279.5l-17.4-0.1v-1.6l17.4,0.1V279.5z M563.1,268.2l-17.4-0.1
								v-1.6l17.4,0.1V268.2z M565.9,256.9l-17.4-0.1v-1.6l17.4,0.1V256.9z M568.6,245.6l-17.4-0.1v-1.6l17.4,0.1V245.6z"/>
						</g>
					</g>
					<g id="XMLID_68_">
						<path id="XMLID_81_" class="st29" d="M557,251.2c1.1-0.4,1.7-1.6,2.8-1.4c0.6,0.1,0.3,1.8-0.6,2.8c-0.3,0.3-1.9,0.8-1.9,0.8
							L557,251.2z"/>
						<polygon id="XMLID_80_" class="st27" points="549,287.6 552.1,287.3 552,288.4 556,290.4 548,289.8 						"/>
						<polygon id="XMLID_79_" class="st27" points="538.6,298.6 541.8,298.4 541.6,299.5 545.7,301.5 537.7,300.9 						"/>
						<path id="XMLID_78_" class="st9" d="M557.8,250.3c0,0-4.4,2-6.9,2c-1.7,0-3.2-8.9-6.7-8.9c-0.3,2.2,0.2,4.1-0.4,6.2
							c1.3,3.3,3.3,7,5.1,7.5c2,0.6,8.9-3.6,8.9-3.6L557.8,250.3L557.8,250.3z"/>
						<path id="XMLID_77_" class="st4" d="M549.6,261.1c-3.3,1-7.9,2.8-11.4,2.9c0,0.8,0,1.5,0,2.2c0,3.7,4.4,18.4,4.4,18.4
							l-4.4,14.2l3.7,0.3l6.2-13.8c0,0-0.3-7.5-1.4-15.4c1.4,1.3,6.9,5,7.6,5.8c-0.8,2.1-5.7,12.2-5.7,12.2l4,0.3
							c0,0,7.9-12.6,7.8-14C557.9,269.7,551.3,262.9,549.6,261.1z"/>
						<path id="XMLID_76_" class="st9" d="M547.5,254.8c-0.7,0.3-1.5-0.3-1.3-1.1c1.1-3.3,0.3-8.5-1.5-10c-1.9-1.6-4.7-1.2-6.9-0.7
							c-5.9,4-2.8,22.2-0.9,27.9c7.9-1.7,11.4-2.7,15.7-7C551.9,261.2,547.1,257.5,547.5,254.8z"/>
						<path id="XMLID_75_" class="st36" d="M545.6,259.4c-7.7,0.3-8-5.9-11.1-7.5c0.2,1,0,6.6,2.6,10.6c1.2,1.8,13.7,1.6,15.6,1.2
							c-0.5-1.3-1.6-2.6-2.7-4C548.5,259.7,547.1,259.3,545.6,259.4z"/>
						<path id="XMLID_74_" class="st29" d="M541.3,240.9c0,1.1-0.1,1.3-0.3,1.8c0.7,0.9,1.9,1.8,2.3,1.8c0.4-0.1-0.1-0.8-0.1-0.9
							c0-1,0.2-1.4,0.4-2.3"/>
						<path id="XMLID_2_" class="st10" d="M559.8,233.3l21,3.9c1.3,0.3,2,1.4,1.8,2.6l-4.4,23.9c-0.3,1.3-1.4,2-2.6,1.8l-21-3.9
							c-1.3-0.3-2-1.4-1.8-2.6l4.4-23.9C557.3,233.9,558.5,233.1,559.8,233.3z"/>
						<path id="XMLID_72_" class="st29" d="M546.1,237.1c0,2.5-1.5,6.4-4.1,4.6c-2.5-1.8-2.8-4.7-2.8-4.7S543.8,231,546.1,237.1z"/>
						<path id="XMLID_71_" class="st29" d="M553.4,260c1.2,0.1,2.1-0.6,2.8-0.3c0.7,0.4,2.3,2.4-0.9,2.3c-3.2-0.1-2.7,0-2.7,0
							L553.4,260z"/>
						<path id="XMLID_70_" class="st9" d="M539.5,243.5c-0.8-1-3.2-0.1-4,1.1c-3.1,4.4,0.7,14.1,1.3,15.5c1.3,3.1,16.5,2.4,16.5,2.4
							l0.8-2.8c0,0-11.7-1.5-13.1-2.5C540.6,256.9,542.2,247,539.5,243.5z"/>
						<path id="XMLID_69_" class="st31" d="M548.9,234.7c-0.3-0.5-1.2-0.5-1.6-0.1c0.3-0.3,0.3-0.9-0.1-1.3c-0.3-0.3-0.9-0.3-1.3,0
							c0.1-0.4-0.3-0.8-0.7-0.8c-0.4,0-0.8,0.2-1.2,0.4c-0.1-0.3-0.4-0.7-0.8-0.8c-0.3-0.1-0.8,0.1-1,0.3c0-0.3-0.2-0.5-0.4-0.5
							c-0.3-0.1-0.5,0-0.8,0.1c-0.4,0.2-0.8,0.4-1.1,0.8c-0.3,0.4-0.3,0.9,0,1.3c-0.2-0.3-0.5-0.3-0.7-0.1c-0.3,0.2-0.3,0.4-0.3,0.7
							c0,0.3,0.1,0.5,0.1,0.8c-0.2-0.3-0.7-0.3-0.9-0.2c-0.3,0.2-0.4,0.6-0.4,0.9c0,0.3,0.2,0.7,0.3,1c0.2,0.3,0.4,0.6,0.6,0.9
							c-0.8,1.8,2.2,2.8,2.7,3c0.4-0.2,0.3-1.5,0.2-1.6c-0.9-1.4,0.7-2.7,0.7-0.5c0,0,0.2,0.7,0.5-0.5c0,0,0.3-1.3,2.7-1h0.1
							c0.1,0.1,0.2,0.1,0.3,0.2c0.3,0.1,0.5-0.1,0.7-0.3c0.1,0,0.3-0.1,0.3-0.1c0.3,0.2,0.6,0.3,0.9,0.2c0.3,0,0.8-0.2,0.9-0.5
							c0.2-0.3,0.2-0.8-0.2-1C549.1,235.9,549.2,235.1,548.9,234.7z"/>
					</g>
				</g>
				<g id="XMLID_45_">
					<g id="XMLID_46_">
						<polygon id="XMLID_66_" class="st27" points="668.8,306.7 670.5,303 676.9,302.2 672.4,305.7 670.9,307.4 						"/>
						<polygon id="XMLID_65_" class="st27" points="675,307.3 676.7,303.6 683.1,305.5 678.7,306.3 677.2,308 						"/>
						<path id="XMLID_64_" class="st28" d="M661.8,320.2c1.8-5.9,2.3-9,6.4-13.7c0.6-0.6,3.6-0.2,4.1,0.5
							c-4.5,6.4-5.4,19.9-7.5,20.9c-2.1,1-17.7-0.2-25.5-0.1c0.9,0,5.9-6.3,5.9-6.9C645.3,314.6,658.2,318.7,661.8,320.2z"/>
						<path id="XMLID_63_" class="st4" d="M665.9,323.2c1.8-5.9,4.4-11.6,8.5-16.3c0.6-0.6,3.8-0.5,4.3,0.2
							c-4.5,6.4-5.5,20.3-7.6,21.3c-2.1,1-17.8,0.3-25.7,0.3c0.9,0-0.3-7.2-0.2-7.8C646.3,314.8,662.3,321.7,665.9,323.2z"/>
						<g id="XMLID_60_">
							<path id="XMLID_62_" class="st29" d="M622.9,316.6c0.9,0.2,1.5,1.3,1.4,2.2c-0.5,4.5-0.2,7.6-3.3,9.2
								c-2,0.9-14.7,0.3-15.7,0.4c-0.7,0.1-1.7-0.3-2.3-0.5c-0.4-0.2-0.8-0.2-1.3,0c-0.8,0.3-1.6,0.3-1.9,0.1
								c-0.4-0.3,1.8-1.9,3-2.1c0.7-0.2,2.6,0.3,3.2,0.5c0.5,0.2,10.5-0.3,12-0.9c1.9-0.9,1.8-3.3,3.3-6.4
								C622.5,316.7,622.9,316.6,622.9,316.6z"/>
							<path id="XMLID_61_" class="st8" d="M623.5,316.1c2.9,1-0.3,6.9-0.3,6.9c-1.4,0.4-2.6-0.3-4.4-1
								C619.4,320.5,620.8,315.1,623.5,316.1z"/>
						</g>
						<path id="XMLID_59_" class="st8" d="M624,326.2c-2.8-1.6-5.3-11,2.4-12.1c5.4-0.8,7.8,2.3,11.7,3.7c5.6,2.1,8.5,0.6,8.5,0.6
							c1.3,5.1,2.1,8.1-0.9,10.6c0,0-2.3-0.4-8.7-0.1C632.8,329,629,329,624,326.2z"/>
						<g id="XMLID_56_">
							<path id="XMLID_58_" class="st29" d="M629.9,316.4c0.9,0.2,1.6,1.3,1.4,2.2c-0.9,4.9-1.3,7.3-4.9,9.6
								c-1.8,1.2-13.1-0.1-14.2,0c-0.7,0.1-1.7-0.3-2.3-0.5c-0.4-0.2-0.8-0.2-1.3,0c-0.8,0.3-1.6,0.3-1.9,0.1
								c-0.4-0.3,1.8-1.9,3-2.1c0.7-0.2,2.6,0.3,3.2,0.5c0.5,0.2,9.4,0.3,10.8-0.3c1.9-0.9,2.1-4.4,3.6-7.4
								C628.6,316.1,629.9,316.4,629.9,316.4z"/>
							<path id="XMLID_57_" class="st8" d="M630.2,315.6c3.7,1.3,0.4,8.8,0.4,8.8c-1.8,0.5-3.2-0.3-5.4-1.1
								C626,321.5,626.9,314.5,630.2,315.6z"/>
						</g>
						<path id="XMLID_55_" class="st29" d="M624.5,312.2c0,0,0.3,0.6,1,2.6c0.4,1.3-2.3,4.1-2.4,1.6c-0.2-2-0.5-2.1-0.4-2.1
							L624.5,312.2z"/>
						<path id="XMLID_54_" class="st29" d="M625.1,310.5c0,0.1,0,0.2,0,0.3c0.1,0.7,0.2,1.3-0.1,2c-0.3,0.7-0.7,1.3-1.4,1.6
							c-0.6,0.3-1.3,0.2-1.9-0.1c-0.6-0.3-1.1-0.8-1.5-1.3c-0.7-0.8-1.4-1.8-1.1-2.8c0.2-0.5,1.3-1.6,2.1-2.3
							c0.5-0.4,1.3-0.5,1.8-0.2l1.3,0.8c0.5,0.3,0.8,0.8,0.8,1.3L625.1,310.5z"/>
						<path id="XMLID_53_" class="st31" d="M624.1,310.9c0-2.4,1.3-0.9,0.8,0.5c0.1,0.3,0.2,0.4,0.2,1.1c0.4-0.5,0.6-0.6,1-1.8
							c0.4-1.1,0.1-5.3-2.8-5.4c-4.1-2.8-6.4,4.3-7.1,4.2c0.3,0.8,1.4,2.2,3.1,1.8c0.8-0.2,2.2-0.4,2.7-0.9
							C622.9,309.4,624.1,311.2,624.1,310.9z"/>
						<g id="XMLID_48_">
							<g id="XMLID_51_">
								<path id="XMLID_52_" class="st10" d="M591.6,328.6h13c0.3,0,0.4-0.2,0.4-0.4s-0.2-0.4-0.4-0.4l-2.3-12.3
									c0,0-12.6-0.1-12.9,0c-0.3,0.1-0.4,0.3-0.3,0.5L591.6,328.6z"/>
							</g>
							<g id="XMLID_49_">
								<path id="XMLID_50_" class="st26" d="M604.5,328.6h13c0.3,0,0.4-0.2,0.4-0.4s-0.2-0.4-0.4-0.4h-12.3l-2.4-11.9
									c-0.1-0.3-0.3-0.4-0.5-0.3c-0.3,0.1-0.4,0.3-0.3,0.5L604.5,328.6z"/>
							</g>
						</g>
						<path id="XMLID_47_" class="st31" d="M623,305.6c0.3-1.5,0.9-2.9,2.1-3.9c1.2-1,2.8-1.5,4.3-1.3c1.5,0.3,2.8,1.3,3.3,2.8
							c0.7,1.8-0.1,3.9,0.7,5.7c0.5,1.1,1.4,1.8,2.3,2.6c0.8,0.8,1.6,1.8,1.5,3c-0.2,1.3-1.5,2.3-2.9,2.3c-1.3,0-2.7-0.8-3.6-1.8
							c-0.9-1-1.6-2.3-1.3-3.7c0.3-1.4,1.5-2.5,1.7-3.9c0.3-1.6-1-3.3-2.5-3.7c-1.6-0.4-3.9,0.9-4.9,2.1"/>
					</g>
				</g>
				<g id="XMLID_35_">
					<path id="XMLID_44_" class="st19" d="M685.1,275.9v-1.9c0-2.9-1.2-5.9-3.3-8.6s-3.1-6.1-2.5-9.6c0.9-5.1,5.1-9.1,10.3-9.7
						c3.4-0.4,6.9,0.7,9.5,2.9c2.6,2.3,4,5.5,4,9c0,2.8-0.9,5.4-2.7,7.5c-2.2,2.7-3.3,5.6-3.3,8.6v1.9L685.1,275.9L685.1,275.9z"/>
					<path id="XMLID_41_" class="st6" d="M693,275.3c0-0.3,0-0.6,0-0.8c0-0.3,2.8-9.4,1.7-11.2c-0.3-0.4-0.6-0.7-0.8-0.7
						c-0.4-0.1-0.8,0-1.3,0.2c-0.4-0.5-1-0.8-1.7-0.8l0,0c-0.6,0-1.2,0.3-1.5,0.9c-0.1,0-0.2-0.1-0.2-0.1c-0.6-0.3-1.3-0.2-1.7,0.3
						c-1.3,1,1.6,11.2,1.6,11.5v1h3.9V275.3z M688.3,263.8c0.1-0.1,0.2-0.1,0.4,0c0.1,0,0.2,0.1,0.3,0.2c-0.2,0.6-0.1,1.3,0.3,1.7
						c0.3,0.3,0.7,0.3,1.1,0.2c0.3-0.2,0.6-0.5,0.5-0.9c0-0.4-0.2-0.8-0.5-1.3c0.1-0.1,0.1-0.2,0.2-0.3c0.1-0.1,0.3-0.3,0.4-0.3
						c0.1,0,0.4,0,0.8,0.4c-0.3,0.3-0.5,0.6-0.6,0.9c-0.3,0.7,0.1,1.3,0.7,1.4c0.3,0.1,0.8,0,1-0.3c0.4-0.4,0.4-1.1,0.3-1.8
						c0.3-0.2,0.3-0.2,0.4-0.2l0.1,0.1c0.8,1.3-0.5,6.4-1.7,10.1h-1.8C688.8,269.3,687.8,264.5,688.3,263.8z"/>
					<path id="XMLID_40_" class="st4" d="M683.9,276.9L683.9,276.9c0,0.8,0.7,1.6,1.6,1.6h11.1c0.8,0,1.6-0.7,1.6-1.6l0,0
						c0-0.8-0.7-1.6-1.6-1.6h-11.1C684.6,275.3,683.9,275.9,683.9,276.9z"/>
					<path id="XMLID_39_" class="st4" d="M683.9,280L683.9,280c0,0.8,0.7,1.6,1.6,1.6h11.1c0.8,0,1.6-0.7,1.6-1.6l0,0
						c0-0.8-0.7-1.6-1.6-1.6h-11.1C684.6,278.5,683.9,279.1,683.9,280z"/>
					<path id="XMLID_36_" class="st4" d="M683.9,283.1L683.9,283.1c0,0.8,0.7,1.6,1.6,1.6h11.1c0.8,0,1.6-0.7,1.6-1.6l0,0
						c0-0.8-0.7-1.6-1.6-1.6h-11.1C684.6,281.6,683.9,282.3,683.9,283.1z"/>
				</g>
			</g>
			<g id="XMLID_5_">
				<circle id="XMLID_32_" class="st11" cx="438.8" cy="205.2" r="2.8"/>
				<circle id="XMLID_31_" class="st11" cx="739.5" cy="211.7" r="3"/>
				<circle id="XMLID_28_" class="st11" cx="632.9" cy="132.8" r="2.8"/>
				<circle id="XMLID_24_" class="st11" cx="728.2" cy="309" r="2"/>
				<circle id="XMLID_20_" class="st11" cx="365.4" cy="295.3" r="2"/>
				<circle id="XMLID_18_" class="st11" cx="498" cy="153.7" r="2.3"/>
				<circle id="XMLID_13_" class="st11" cx="436.9" cy="146.6" r="2"/>
				<circle id="XMLID_9_" class="st11" cx="594.9" cy="168.5" r="2"/>
				<circle id="XMLID_8_" class="st11" cx="400.3" cy="317.1" r="2"/>
				<circle id="XMLID_7_" class="st11" cx="718.5" cy="246.4" r="2"/>
				<circle id="XMLID_6_" class="st11" cx="684.6" cy="170.6" r="2"/>
			</g>
		</g>
	</g>
	<g class="st1">
		<g>
			<g>
				<path class="st37" d="M-47.6,272.3c-9.7,0-17.6,7.9-17.6,17.6c0,9.7,7.9,17.6,17.6,17.6H92.2c9.7,0,17.6-7.9,17.6-17.6
					c0-9.7-7.9-17.6-17.6-17.6H-47.6z"/>
				<g>
					<g>
						<path class="st6" d="M-26.9,294.8c-1.5,1.6-3.1,2.4-5.1,2.4c-1.1,0-2-0.2-2.9-0.7c-0.9-0.5-1.6-1.1-2.4-1.8
							c-0.7-0.7-1.1-1.6-1.5-2.6c-0.4-0.9-0.5-2-0.5-2.9c0-1.1,0.2-2,0.5-2.9c0.4-0.9,0.9-1.8,1.5-2.6c0.7-0.7,1.5-1.3,2.4-1.8
							c0.9-0.4,1.8-0.7,2.9-0.7c0.7,0,1.5,0,2.2,0.2c0.5,0.2,1.3,0.4,1.6,0.7c0.5,0.4,0.9,0.7,1.3,1.1c0.4,0.4,0.7,0.9,0.9,1.5
							l-1.3,0.7c-0.5-0.9-1.3-1.6-2-2.2c-0.9-0.5-1.8-0.7-2.7-0.7c-0.9,0-1.6,0.2-2.4,0.5s-1.3,0.9-1.8,1.5
							c-0.5,0.5-0.9,1.3-1.1,2.2c-0.2,0.7-0.4,1.6-0.4,2.4c0,0.9,0.2,1.6,0.4,2.6c0.4,0.7,0.7,1.5,1.3,2c0.5,0.5,1.1,1.1,1.8,1.5
							s1.5,0.5,2.4,0.5s1.8-0.2,2.6-0.5s1.6-1.1,2.4-2v-2.6h-3.5v-1.3h4.8v7.7h-1.3V294.8z"/>
						<path class="st6" d="M-17.2,297.3c-0.9,0-1.6-0.2-2.4-0.5s-1.3-0.7-1.8-1.3s-0.9-1.3-1.3-1.8c-0.4-0.7-0.4-1.5-0.4-2.4
							c0-0.7,0.2-1.6,0.4-2.4c0.4-0.7,0.7-1.3,1.3-1.8c0.5-0.5,1.1-0.9,1.8-1.3s1.5-0.5,2.4-0.5c0.9,0,1.6,0.2,2.4,0.5
							c0.7,0.4,1.3,0.7,1.8,1.3s0.9,1.1,1.1,1.8c0.4,0.7,0.4,1.5,0.4,2.2c0,0.2,0,0.2,0,0.4c0,0.2,0,0.2,0,0.2h-9.9
							c0,0.5,0.2,1.3,0.4,1.6c0.2,0.5,0.5,0.9,0.9,1.3c0.4,0.4,0.9,0.7,1.3,0.9c0.5,0.2,1.1,0.4,1.6,0.4c0.4,0,0.7,0,1.1-0.2
							c0.4-0.2,0.7-0.2,1.1-0.4s0.5-0.4,0.9-0.7c0.2-0.2,0.4-0.5,0.5-0.9l1.3,0.4c-0.2,0.4-0.4,0.7-0.7,1.1
							c-0.4,0.4-0.7,0.7-1.1,0.9s-0.9,0.4-1.5,0.5C-16.1,297.3-16.7,297.3-17.2,297.3z M-12.8,290.8c0-0.5-0.2-1.1-0.4-1.6
							c-0.2-0.5-0.5-0.9-0.9-1.3s-0.7-0.7-1.3-0.9c-0.5-0.2-1.1-0.4-1.6-0.4s-1.1,0.2-1.6,0.4c-0.5,0.2-0.9,0.5-1.3,0.9
							c-0.4,0.4-0.7,0.7-0.9,1.3s-0.4,1.1-0.4,1.6H-12.8z"/>
						<path class="st6" d="M-3.1,296.6c0,0-0.2,0.2-0.4,0.2c-0.2,0-0.4,0.2-0.5,0.2c-0.2,0-0.5,0.2-0.7,0.2c-0.4,0-0.5,0-0.9,0
							s-0.5,0-0.9-0.2c-0.4,0-0.5-0.2-0.7-0.4c-0.2-0.2-0.4-0.4-0.5-0.7c-0.2-0.4-0.2-0.5-0.2-0.9v-8.2h-1.6v-1.3h1.6v-3.8h1.5v3.8
							h2.7v1.3h-2.7v7.9c0,0.4,0.2,0.7,0.4,0.9c0.2,0.2,0.5,0.4,0.9,0.4s0.7,0,1.1-0.2s0.5-0.2,0.5-0.4L-3.1,296.6z"/>
						<path class="st6" d="M15,284.3c-0.4-0.5-1.1-0.9-1.8-1.3s-1.6-0.5-2.6-0.5c-1.5,0-2.4,0.2-3.1,0.7c-0.5,0.5-0.9,1.3-0.9,2.2
							c0,0.5,0,0.9,0.2,1.1c0.2,0.4,0.4,0.5,0.7,0.7c0.4,0.2,0.7,0.4,1.3,0.5c0.5,0.2,1.3,0.4,2,0.5c0.9,0.2,1.6,0.4,2.2,0.5
							c0.7,0.2,1.3,0.5,1.6,0.9c0.5,0.4,0.9,0.7,1.1,1.3c0.2,0.5,0.4,1.1,0.4,1.8s-0.2,1.3-0.4,1.8c-0.2,0.5-0.7,0.9-1.1,1.3
							c-0.5,0.4-1.1,0.5-1.8,0.7c-0.7,0.2-1.5,0.2-2.2,0.2c-2.4,0-4.6-0.7-6.4-2.2l0.7-1.3c0.4,0.4,0.5,0.5,1.1,0.9
							c0.4,0.2,0.9,0.5,1.3,0.7c0.5,0.2,0.9,0.4,1.5,0.5c0.5,0.2,1.1,0.2,1.6,0.2c1.3,0,2.2-0.2,2.9-0.7c0.7-0.4,1.1-1.1,1.1-2
							c0-0.5-0.2-0.9-0.4-1.3c-0.2-0.4-0.5-0.5-0.9-0.9c-0.4-0.2-0.9-0.4-1.5-0.5c-0.5-0.2-1.3-0.4-2-0.5c-0.9-0.2-1.5-0.4-2.2-0.5
							c-0.5-0.2-1.1-0.5-1.6-0.7c-0.4-0.4-0.7-0.7-0.9-1.1c-0.2-0.4-0.4-0.9-0.4-1.6c0-0.7,0.2-1.3,0.4-2c0.4-0.5,0.7-1.1,1.1-1.5
							c0.5-0.4,1.1-0.7,1.8-0.9s1.5-0.4,2.2-0.4c1.1,0,2,0.2,2.7,0.5c0.7,0.4,1.6,0.7,2.2,1.3L15,284.3z"/>
						<path class="st6" d="M25.1,296.6c0,0-0.2,0.2-0.4,0.2s-0.4,0.2-0.5,0.2c-0.2,0-0.5,0.2-0.7,0.2c-0.4,0-0.5,0-0.9,0
							c-0.4,0-0.5,0-0.9-0.2c-0.4,0-0.5-0.2-0.7-0.4c-0.2-0.2-0.4-0.4-0.5-0.7c-0.2-0.4-0.2-0.5-0.2-0.9v-8.2h-1.6v-1.3h1.6v-3.8
							h1.5v3.8h2.7v1.3h-2.9v7.9c0,0.4,0.2,0.7,0.4,0.9c0.2,0.2,0.5,0.4,0.9,0.4c0.4,0,0.7,0,1.1-0.2c0.4-0.2,0.5-0.2,0.5-0.4
							L25.1,296.6z"/>
						<path class="st6" d="M30.4,297.3c-0.5,0-1.1,0-1.5-0.4c-0.5-0.2-0.9-0.4-1.3-0.7c-0.4-0.4-0.5-0.7-0.7-1.1
							c-0.2-0.4-0.4-0.9-0.4-1.5s0.2-0.9,0.4-1.5c0.2-0.4,0.5-0.7,0.9-1.1c0.4-0.4,0.9-0.5,1.5-0.7c0.5-0.2,1.3-0.2,2-0.2
							c0.5,0,1.3,0,1.8,0.2c0.5,0.2,1.1,0.2,1.6,0.4v-1.1c0-1.1-0.4-1.8-0.9-2.4c-0.5-0.5-1.5-0.9-2.4-0.9c-0.5,0-1.3,0.2-1.8,0.4
							c-0.5,0.2-1.3,0.5-1.8,1.1l-0.5-0.9c1.5-0.9,2.9-1.5,4.4-1.5s2.6,0.4,3.5,1.3c0.9,0.7,1.3,2,1.3,3.3v5.1
							c0,0.4,0.2,0.5,0.5,0.5v1.3c-0.2,0-0.4,0-0.5,0c-0.4,0-0.7-0.2-0.9-0.4c-0.2-0.2-0.4-0.5-0.4-0.7V295c-0.5,0.7-1.3,1.3-2,1.6
							C32.2,297.2,31.3,297.3,30.4,297.3z M30.7,296.2c0.7,0,1.5-0.2,2.2-0.4c0.7-0.4,1.1-0.7,1.5-1.1c0.2-0.2,0.2-0.4,0.4-0.4
							c0-0.2,0.2-0.4,0.2-0.4v-1.8c-0.5-0.2-1.1-0.4-1.6-0.4c-0.5-0.2-1.1-0.2-1.6-0.2c-1.1,0-2,0.2-2.6,0.7
							c-0.7,0.4-0.9,1.1-0.9,1.8c0,0.4,0,0.7,0.2,0.9c0.2,0.4,0.4,0.5,0.5,0.7c0.2,0.2,0.5,0.4,0.9,0.5
							C30,296.1,30.4,296.2,30.7,296.2z"/>
						<path class="st6" d="M45.7,286.9c-1.1,0-1.8,0.4-2.7,0.9c-0.7,0.5-1.3,1.3-1.6,2.2v7.1h-1.5v-11.5h1.5v2.7
							c0.4-0.9,1.1-1.6,1.6-2c0.7-0.5,1.5-0.7,2.4-0.7c0.2,0,0.2,0,0.4,0V286.9z"/>
						<path class="st6" d="M54,296.6c0,0-0.2,0.2-0.4,0.2c-0.2,0-0.4,0.2-0.5,0.2c-0.2,0-0.5,0.2-0.7,0.2c-0.4,0-0.5,0-0.9,0
							s-0.5,0-0.9-0.2c-0.4,0-0.5-0.2-0.7-0.4c-0.2-0.2-0.4-0.4-0.5-0.7c-0.2-0.4-0.2-0.5-0.2-0.9v-8.2h-1.6v-1.3H49v-3.8h1.5v3.8
							h2.7v1.3h-2.7v7.9c0,0.4,0.2,0.7,0.4,0.9c0.2,0.2,0.5,0.4,0.9,0.4c0.4,0,0.7,0,1.1-0.2s0.5-0.2,0.5-0.4L54,296.6z"/>
						<path class="st6" d="M61.1,297.3c-0.9,0-1.6-0.2-2.4-0.5s-1.3-0.7-1.8-1.3c-0.5-0.5-0.9-1.3-1.3-1.8c-0.4-0.7-0.4-1.5-0.4-2.4
							c0-0.7,0.2-1.6,0.4-2.4c0.4-0.7,0.7-1.3,1.3-1.8c0.5-0.5,1.1-0.9,1.8-1.3s1.5-0.5,2.4-0.5s1.6,0.2,2.4,0.5s1.3,0.7,1.8,1.3
							s0.9,1.1,1.1,1.8c0.4,0.7,0.4,1.5,0.4,2.2c0,0.2,0,0.2,0,0.4c0,0.2,0,0.2,0,0.2h-9.9c0,0.5,0.2,1.3,0.4,1.6
							c0.2,0.5,0.5,0.9,0.9,1.3c0.4,0.4,0.9,0.7,1.3,0.9c0.5,0.2,1.1,0.4,1.6,0.4c0.4,0,0.7,0,1.1-0.2c0.4-0.2,0.7-0.2,1.1-0.4
							s0.5-0.4,0.9-0.7c0.2-0.2,0.4-0.5,0.5-0.9l1.3,0.4c-0.2,0.4-0.4,0.7-0.7,1.1c-0.4,0.4-0.7,0.7-1.1,0.9
							c-0.4,0.2-0.9,0.4-1.5,0.5C62.2,297.3,61.7,297.3,61.1,297.3z M65.3,290.8c0-0.5-0.2-1.1-0.4-1.6c-0.2-0.5-0.5-0.9-0.9-1.3
							c-0.4-0.4-0.7-0.7-1.3-0.9c-0.5-0.2-1.1-0.4-1.6-0.4c-0.5,0-1.1,0.2-1.6,0.4c-0.5,0.2-0.9,0.5-1.3,0.9s-0.7,0.7-0.9,1.3
							c-0.2,0.5-0.4,1.1-0.4,1.6H65.3z"/>
						<path class="st6" d="M74.5,297.3c-0.7,0-1.5-0.2-2.2-0.5c-0.7-0.4-1.3-0.7-1.8-1.3c-0.5-0.5-0.9-1.1-1.1-1.8
							c-0.2-0.7-0.4-1.5-0.4-2.2s0.2-1.6,0.4-2.4c0.2-0.7,0.5-1.3,1.1-1.8c0.5-0.5,1.1-0.9,1.6-1.3c0.7-0.4,1.3-0.5,2.2-0.5
							s1.8,0.2,2.6,0.7c0.7,0.5,1.3,1.1,1.8,1.8v-7.1h1.5v14.3c0,0.4,0.2,0.5,0.5,0.5v1.3c-0.2,0-0.4,0-0.5,0
							c-0.4,0-0.7-0.2-0.9-0.4c-0.2-0.2-0.4-0.5-0.4-0.9v-1.1c-0.5,0.7-1.1,1.3-1.8,1.8C76.1,297.2,75.2,297.3,74.5,297.3z
							 M74.8,296.1c0.4,0,0.7,0,1.1-0.2c0.4-0.2,0.7-0.4,1.1-0.5c0.4-0.2,0.7-0.5,0.9-0.9c0.2-0.4,0.4-0.7,0.5-1.1v-3.7
							c-0.2-0.4-0.4-0.7-0.7-1.1c-0.4-0.4-0.5-0.7-0.9-0.9c-0.4-0.2-0.7-0.5-1.1-0.5c-0.4-0.2-0.7-0.2-1.3-0.2
							c-0.5,0-1.1,0.2-1.6,0.4c-0.5,0.2-0.9,0.5-1.3,1.1c-0.4,0.4-0.7,0.9-0.9,1.5s-0.4,1.1-0.4,1.6c0,0.5,0.2,1.3,0.4,1.8
							s0.5,1.1,0.9,1.5c0.4,0.4,0.9,0.7,1.3,1.1C73.6,295.9,74.1,296.1,74.8,296.1z"/>
					</g>
				</g>
				<path class="st37" d="M287,309.2H147.1c-10.8,0-19.6-8.8-19.6-19.6c0-10.8,8.8-19.6,19.6-19.6H287c10.8,0,19.6,8.8,19.6,19.6
					C306.6,300.6,297.8,309.2,287,309.2z M147.3,272.3c-9.7,0-17.6,7.9-17.6,17.6c0,9.7,7.9,17.6,17.6,17.6h139.8
					c9.7,0,17.6-7.9,17.6-17.6c0-9.7-7.9-17.6-17.6-17.6H147.3z"/>
				<path class="st6" d="M92.2,309.2H-47.6c-10.8,0-19.6-8.8-19.6-19.6c0-10.8,8.8-19.6,19.6-19.6H92.2c10.8,0,19.6,8.8,19.6,19.6
					C111.6,300.6,102.8,309.2,92.2,309.2z M-47.6,272.3c-9.7,0-17.6,7.9-17.6,17.6c0,9.7,7.9,17.6,17.6,17.6H92.2
					c9.7,0,17.6-7.9,17.6-17.6c0-9.7-7.9-17.6-17.6-17.6H-47.6z"/>
			</g>
			<g>
				<g>
					<path class="st6" d="M157.7,297.2v-15.7h1.5v14.5h9.2v1.5L157.7,297.2L157.7,297.2z"/>
					<path class="st6" d="M175.3,297.3c-0.9,0-1.6-0.2-2.4-0.5c-0.7-0.4-1.3-0.7-1.8-1.3s-0.9-1.3-1.3-1.8c-0.4-0.7-0.4-1.5-0.4-2.4
						c0-0.7,0.2-1.6,0.4-2.4c0.4-0.7,0.7-1.3,1.3-1.8s1.1-0.9,1.8-1.3c0.7-0.4,1.5-0.5,2.4-0.5c0.9,0,1.6,0.2,2.4,0.5
						c0.7,0.4,1.3,0.7,1.8,1.3c0.5,0.5,0.9,1.1,1.1,1.8c0.4,0.7,0.4,1.5,0.4,2.2c0,0.2,0,0.2,0,0.4c0,0.2,0,0.2,0,0.2h-9.9
						c0,0.5,0.2,1.3,0.4,1.6c0.2,0.5,0.5,0.9,0.9,1.3s0.9,0.7,1.3,0.9c0.5,0.2,1.1,0.4,1.6,0.4c0.4,0,0.7,0,1.1-0.2
						c0.4-0.2,0.7-0.2,1.1-0.4c0.4-0.2,0.5-0.4,0.9-0.7c0.2-0.2,0.4-0.5,0.5-0.9l1.3,0.4c-0.2,0.4-0.4,0.7-0.7,1.1
						c-0.4,0.4-0.7,0.7-1.1,0.9c-0.4,0.2-0.9,0.4-1.5,0.5C176.4,297.3,176.1,297.3,175.3,297.3z M179.7,290.8c0-0.5-0.2-1.1-0.4-1.6
						c-0.2-0.5-0.5-0.9-0.9-1.3c-0.4-0.4-0.7-0.7-1.3-0.9c-0.5-0.2-1.1-0.4-1.6-0.4c-0.5,0-1.1,0.2-1.6,0.4
						c-0.5,0.2-0.9,0.5-1.3,0.9c-0.4,0.4-0.7,0.7-0.9,1.3s-0.4,1.1-0.4,1.6H179.7z"/>
					<path class="st6" d="M186.9,297.3c-0.5,0-1.1,0-1.5-0.4c-0.5-0.2-0.9-0.4-1.3-0.7c-0.4-0.4-0.5-0.7-0.7-1.1
						c-0.2-0.4-0.4-0.9-0.4-1.5s0.2-0.9,0.4-1.5c0.2-0.4,0.5-0.7,0.9-1.1c0.4-0.4,0.9-0.5,1.5-0.7c0.5-0.2,1.3-0.2,2-0.2
						c0.5,0,1.3,0,1.8,0.2c0.5,0.2,1.1,0.2,1.6,0.4v-1.1c0-1.1-0.4-1.8-0.9-2.4s-1.5-0.9-2.4-0.9c-0.5,0-1.3,0.2-1.8,0.4
						c-0.5,0.2-1.3,0.5-1.8,1.1l-0.5-0.9c1.5-0.9,2.9-1.5,4.4-1.5c1.5,0,2.6,0.4,3.5,1.3c0.9,0.7,1.3,2,1.3,3.3v5.1
						c0,0.4,0.2,0.5,0.5,0.5v1.3c-0.2,0-0.4,0-0.5,0c-0.4,0-0.7-0.2-0.9-0.4c-0.2-0.2-0.4-0.5-0.4-0.7V295c-0.5,0.7-1.3,1.3-2,1.6
						C188.7,297.2,187.8,297.3,186.9,297.3z M187.2,296.2c0.7,0,1.5-0.2,2.2-0.4c0.7-0.4,1.1-0.7,1.5-1.1c0.2-0.2,0.2-0.4,0.4-0.4
						c0-0.2,0.2-0.4,0.2-0.4v-1.8c-0.5-0.2-1.1-0.4-1.6-0.4c-0.5-0.2-1.1-0.2-1.6-0.2c-1.1,0-2,0.2-2.6,0.7
						c-0.7,0.4-0.9,1.1-0.9,1.8c0,0.4,0,0.7,0.2,0.9c0.2,0.4,0.4,0.5,0.5,0.7c0.2,0.2,0.5,0.4,0.9,0.5
						C186.5,296.1,186.9,296.2,187.2,296.2z"/>
					<path class="st6" d="M202.4,286.9c-1.1,0-1.8,0.4-2.7,0.9c-0.7,0.5-1.3,1.3-1.6,2.2v7.1h-1.5v-11.5h1.5v2.7
						c0.4-0.9,1.1-1.6,1.6-2c0.7-0.5,1.5-0.7,2.4-0.7c0.2,0,0.2,0,0.4,0V286.9z"/>
					<path class="st6" d="M214.7,297.2h-1.5v-6.4c0-1.5-0.2-2.4-0.5-2.9c-0.4-0.5-1.1-0.9-1.8-0.9c-0.4,0-0.9,0-1.3,0.2
						c-0.4,0.2-0.9,0.4-1.3,0.7s-0.7,0.7-1.1,1.1c-0.4,0.4-0.5,0.9-0.7,1.3v7.1H205v-11.5h1.5v2.6c0.5-0.9,1.1-1.5,2-2
						c0.9-0.5,1.8-0.7,2.9-0.7c0.5,0,1.1,0.2,1.6,0.4c0.4,0.2,0.7,0.5,1.1,0.9c0.2,0.4,0.4,0.9,0.5,1.6c0.2,0.5,0.2,1.3,0.2,2
						L214.7,297.2L214.7,297.2z"/>
					<path class="st6" d="M239,297.2v-13l-5.7,10.1h-0.9l-5.7-10.1v13h-1.5v-15.7h1.6l6.2,10.8l6.2-10.8h1.6v15.7H239z"/>
					<path class="st6" d="M249.4,297.3c-0.9,0-1.6-0.2-2.4-0.5c-0.7-0.4-1.3-0.7-1.8-1.3s-0.9-1.1-1.1-1.8c-0.4-0.7-0.4-1.5-0.4-2.2
						s0.2-1.6,0.4-2.4c0.4-0.7,0.7-1.3,1.3-1.8s1.1-0.9,1.8-1.3c0.7-0.4,1.5-0.5,2.2-0.5c0.9,0,1.6,0.2,2.4,0.5
						c0.7,0.4,1.3,0.7,1.8,1.3c0.5,0.5,0.9,1.1,1.3,1.8s0.4,1.5,0.4,2.4c0,0.7-0.2,1.6-0.4,2.2c-0.4,0.7-0.7,1.3-1.1,1.8
						c-0.5,0.5-1.1,0.9-1.8,1.3C251.1,297.2,250.4,297.3,249.4,297.3z M245.2,291.3c0,0.7,0.2,1.3,0.4,1.8c0.2,0.5,0.5,1.1,0.9,1.5
						c0.4,0.4,0.7,0.7,1.3,0.9c0.5,0.2,1.1,0.4,1.6,0.4c0.5,0,1.1-0.2,1.6-0.4c0.5-0.2,0.9-0.5,1.3-0.9c0.4-0.4,0.7-0.9,0.9-1.5
						s0.4-1.1,0.4-1.8c0-0.5-0.2-1.3-0.4-1.8c-0.2-0.5-0.5-1.1-0.9-1.5c-0.4-0.4-0.9-0.7-1.3-0.9c-0.5-0.2-1.1-0.4-1.6-0.4
						c-0.5,0-1.1,0.2-1.6,0.4c-0.5,0.2-0.9,0.5-1.3,1.1c-0.4,0.4-0.7,0.9-0.9,1.5C245.4,290.2,245.2,290.8,245.2,291.3z"/>
					<path class="st6" d="M264.1,286.9c-1.1,0-1.8,0.4-2.7,0.9c-0.7,0.5-1.3,1.3-1.6,2.2v7.1h-1.5v-11.5h1.5v2.7
						c0.4-0.9,1.1-1.6,1.6-2c0.7-0.5,1.5-0.7,2.4-0.7c0.2,0,0.2,0,0.4,0V286.9z"/>
					<path class="st6" d="M271,297.3c-0.9,0-1.6-0.2-2.4-0.5c-0.7-0.4-1.3-0.7-1.8-1.3s-0.9-1.3-1.3-1.8c-0.4-0.7-0.4-1.5-0.4-2.4
						c0-0.7,0.2-1.6,0.4-2.4c0.4-0.7,0.7-1.3,1.3-1.8s1.1-0.9,1.8-1.3c0.7-0.4,1.5-0.5,2.4-0.5s1.6,0.2,2.4,0.5
						c0.7,0.4,1.3,0.7,1.8,1.3s0.9,1.1,1.1,1.8c0.4,0.7,0.4,1.5,0.4,2.2c0,0.2,0,0.2,0,0.4c0,0.2,0,0.2,0,0.2h-9.9
						c0,0.5,0.2,1.3,0.4,1.6c0.2,0.5,0.5,0.9,0.9,1.3c0.4,0.4,0.9,0.7,1.3,0.9c0.5,0.2,1.1,0.4,1.6,0.4c0.4,0,0.7,0,1.1-0.2
						c0.4-0.2,0.7-0.2,1.1-0.4c0.4-0.2,0.5-0.4,0.9-0.7c0.2-0.2,0.4-0.5,0.5-0.9l1.3,0.4c-0.2,0.4-0.4,0.7-0.7,1.1s-0.7,0.7-1.1,0.9
						c-0.4,0.2-0.9,0.4-1.5,0.5C272.1,297.3,271.6,297.3,271,297.3z M275.3,290.8c0-0.5-0.2-1.1-0.4-1.6c-0.2-0.5-0.5-0.9-0.9-1.3
						s-0.7-0.7-1.3-0.9s-1.1-0.4-1.6-0.4c-0.5,0-1.1,0.2-1.6,0.4c-0.5,0.2-0.9,0.5-1.3,0.9s-0.7,0.7-0.9,1.3s-0.4,1.1-0.4,1.6H275.3
						z"/>
				</g>
			</g>
		</g>
		<g>
			<path class="st6" d="M292.7,140.2h-60.8c-8,0-14.5,6.5-14.5,14.5v61.1c0,8,6.5,14.5,14.5,14.5h60.8c8,0,14.5-6.5,14.5-14.5v-61.1
				C307.2,146.7,300.7,140.2,292.7,140.2z M281.3,209.3c-3.7,2.6-9.3,4-16.8,4h-24.1v-56h21.9c7.8,0,13.5,1.2,17,3.5
				c3.5,2.4,5.3,6.1,5.3,11.3c0,2.7-0.6,5-1.9,7c-1.3,1.9-3.1,3.3-5.6,4.2l0,0c3.1,0.9,5.5,2.5,7.3,5s2.6,5.4,2.6,8.9
				C286.8,202.6,285,206.6,281.3,209.3z"/>
			<path class="st6" d="M263,179c2.3,0,4-0.5,5.2-1.5s1.8-2.5,1.8-4.4c0-1.9-0.6-3.4-1.8-4.4s-2.9-1.5-5.2-1.5h-8V179H263L263,179z"
				/>
			<path class="st6" d="M270.1,190.6c-1.5-1.2-3.7-1.8-6.6-1.8H255v14.6h8.5c2.9,0,5.1-0.6,6.6-1.8c1.5-1.2,2.2-3,2.2-5.5
				C272.3,193.6,271.6,191.8,270.1,190.6z"/>
		</g>
		<g>
			<path class="st6" d="M-65,191.9v-35.2h19.1c2.3,0,3.9,0.1,5,0.3s2,0.6,2.8,1.1c1.1,0.7,1.9,1.6,2.5,2.8c0.6,1.2,0.8,2.6,0.8,4.3
				c0,2-0.5,3.6-1.5,4.9c-1,1.3-2.6,2.3-4.7,3c2.6,0.7,4.5,1.8,5.7,3.3s1.8,3.5,1.8,6c0,3.1-0.8,5.5-2.4,7.1c-1.6,1.6-4,2.4-7.2,2.4
				H-65z M-55,163.8v7.4h5.4c1.3,0,2.3-0.3,3-0.9c0.7-0.6,1-1.5,1-2.8c0-1.2-0.3-2.1-1-2.7c-0.7-0.6-1.6-0.9-3-0.9L-55,163.8
				L-55,163.8z M-55,177v7.7h6.3c1.5,0,2.6-0.3,3.4-1s1.1-1.6,1.1-2.9s-0.4-2.2-1.1-2.9c-0.7-0.7-1.9-1-3.4-1L-55,177L-55,177z"/>
			<path class="st6" d="M-15.3,192.5c-5.2,0-9.1-1.1-11.7-3.2c-2.6-2.2-4-5.4-4-9.6s1.3-7.4,4-9.6c2.7-2.2,6.6-3.3,11.7-3.3
				s9,1.1,11.7,3.3c2.7,2.2,4,5.4,4,9.7c0,4.2-1.3,7.4-4,9.6C-6.3,191.4-10.2,192.5-15.3,192.5z M-15.4,187c1.8,0,3.2-0.7,4.2-2
				s1.5-3.1,1.5-5.5s-0.5-4.2-1.5-5.5s-2.4-2-4.1-2s-3.1,0.7-4,2c-1,1.3-1.5,3.1-1.5,5.5s0.5,4.2,1.4,5.5
				C-18.5,186.4-17.1,187-15.4,187z"/>
			<path class="st6" d="M18.7,192.5c-5.2,0-9.1-1.1-11.7-3.2c-2.6-2.2-4-5.4-4-9.6s1.3-7.4,4-9.6c2.7-2.2,6.6-3.3,11.7-3.3
				s9,1.1,11.7,3.3c2.7,2.2,4,5.4,4,9.7c0,4.2-1.3,7.4-4,9.6C27.7,191.4,23.8,192.5,18.7,192.5z M18.6,187c1.8,0,3.2-0.7,4.2-2
				s1.5-3.1,1.5-5.5s-0.5-4.2-1.5-5.5s-2.4-2-4.1-2s-3.1,0.7-4,2c-1,1.3-1.5,3.1-1.5,5.5s0.5,4.2,1.4,5.5
				C15.5,186.4,16.8,187,18.6,187z"/>
			<path class="st6" d="M41.3,184.2v-11.6h-5.6v-6h5.6v-4.5l9.8-3.6v8.1h5.6v6h-5.6v9.4c0,1.3,0.3,2.2,0.9,2.8
				c0.6,0.5,1.6,0.8,3.1,0.8c0.3,0,0.7,0,1,0s0.8-0.1,1.2-0.1v5.9c-1.4,0.3-2.6,0.6-3.8,0.7c-1.2,0.2-2.3,0.3-3.3,0.3
				c-3.2,0-5.5-0.6-6.8-1.9C42,189.3,41.3,187.2,41.3,184.2z"/>
			<path class="st6" d="M68.6,183.3v0.2c0,1.2,0.3,2.1,0.9,2.6s1.7,0.8,3.1,0.8c1.1,0,2-0.2,2.6-0.5c0.6-0.4,0.9-0.9,0.9-1.6
				c0-0.6-0.2-1-0.7-1.4c-0.4-0.3-1.3-0.6-2.6-0.9c-0.6-0.1-1.4-0.3-2.6-0.5c-3.7-0.7-6.2-1.6-7.6-2.5c-0.8-0.5-1.4-1.2-1.8-2.1
				c-0.4-0.9-0.6-1.9-0.6-2.9c0-2.6,1.1-4.6,3.3-5.9c2.2-1.3,5.4-2,9.7-2c3.9,0,6.8,0.7,8.7,2c1.9,1.3,2.9,3.3,2.9,6h-8.9
				c0-1-0.3-1.8-0.8-2.2c-0.5-0.4-1.5-0.6-2.8-0.6c-0.8,0-1.4,0.2-1.9,0.5s-0.7,0.8-0.7,1.3c0,0.6,0.2,1,0.7,1.3
				c0.5,0.3,1.6,0.7,3.4,1.2c0.6,0.2,1.5,0.4,2.6,0.6c3,0.7,4.9,1.3,5.7,1.7c1.4,0.7,2.3,1.5,2.9,2.4c0.6,0.9,0.9,2,0.9,3.3
				c0,2.7-1.1,4.8-3.4,6.2c-2.3,1.4-5.6,2.1-10.1,2.1c-4.4,0-7.6-0.7-9.6-2.2s-3-3.7-3-6.9l0,0H68.6z"/>
			<path class="st6" d="M93,184.2v-11.6h-5.6v-6H93v-4.5l9.8-3.6v8.1h5.6v6h-5.6v9.4c0,1.3,0.3,2.2,0.9,2.8c0.6,0.5,1.6,0.8,3.1,0.8
				c0.3,0,0.7,0,1,0s0.8-0.1,1.2-0.1v5.9c-1.4,0.3-2.6,0.6-3.8,0.7c-1.2,0.2-2.3,0.3-3.3,0.3c-3.2,0-5.5-0.6-6.8-1.9
				C93.6,189.3,93,187.2,93,184.2z"/>
			<path class="st6" d="M112.9,191.9v-20.4c0-0.9,0-1.7-0.1-2.4c-0.1-0.7-0.1-1.3-0.3-1.7h9.9c0.1,0.6,0.2,1.2,0.3,1.8
				c0.1,0.7,0.1,1.4,0.1,2.1c0.9-1.6,2-2.8,3.3-3.5s2.8-1.1,4.6-1.1c0.3,0,0.5,0,0.7,0s0.3,0,0.5,0.1v8.1c-0.4,0-0.9-0.1-1.3-0.1
				c-0.4,0-0.8,0-1.1,0c-2.5,0-4.2,0.6-5.2,1.7s-1.5,3.1-1.5,5.9v9.5H112.9z"/>
			<path class="st6" d="M152.5,188.2c-0.9,1.4-2.2,2.5-3.7,3.2c-1.5,0.7-3.3,1-5.5,1c-3.1,0-5.4-0.6-7-1.9c-1.6-1.2-2.5-3-2.5-5.3
				c0-3.1,1.4-5.3,4.3-6.7c2.8-1.4,7.6-2.1,14.3-2.2c0,0,0-0.1,0-0.3c0-0.1,0-0.2,0-0.3c0-1.3-0.3-2.2-1-2.8c-0.7-0.6-1.7-0.9-3-0.9
				c-1.2,0-2.1,0.2-2.8,0.7c-0.6,0.5-1,1.1-1.2,2h-9.2c0-2.7,1.2-4.7,3.4-6.1c2.2-1.3,5.6-2,10.1-2c4.4,0,7.6,0.8,9.7,2.3
				c2.1,1.6,3.2,3.9,3.2,7.1v12.5c0,0.8,0,1.4,0.1,1.9s0.2,0.9,0.3,1.3h-9.2c-0.2-0.6-0.3-1.2-0.4-1.8
				C152.3,189.3,152.5,188.9,152.5,188.2z M152.3,181.2c-3.2,0-5.4,0.2-6.6,0.7c-1.2,0.5-1.7,1.3-1.7,2.5c0,0.8,0.3,1.4,0.8,1.9
				c0.6,0.5,1.4,0.7,2.4,0.7c1.7,0,3-0.4,3.8-1.3c0.8-0.9,1.3-2.3,1.3-4.1V181.2z"/>
			<path class="st6" d="M166.7,201.2v-29.7c0-0.9,0-1.7-0.1-2.4c-0.1-0.7-0.1-1.3-0.3-1.7h9.9c0.1,0.5,0.2,1.1,0.3,1.7
				c0.1,0.7,0.1,1.4,0.1,2.2c1.1-1.5,2.5-2.7,4-3.4c1.5-0.8,3.1-1.1,5-1.1c3.4,0,6.1,1.1,8.1,3.4s3,5.2,3,8.9c0,4.1-1,7.3-3.1,9.8
				s-4.8,3.7-8.2,3.7c-1.7,0-3.4-0.4-4.8-1.1c-1.5-0.7-2.8-1.7-4-3.1v12.8H166.7z M181.6,186.5c1.5,0,2.8-0.6,3.7-1.9
				c0.9-1.3,1.3-3,1.3-5.1s-0.5-3.8-1.4-5s-2.1-1.9-3.7-1.9c-1.6,0-2.8,0.6-3.7,1.8c-0.9,1.2-1.3,2.9-1.3,5.1c0,2.3,0.4,4,1.3,5.2
				C178.8,185.9,180,186.5,181.6,186.5z"/>
		</g>
		<g>
			<path class="st6" d="M-65.9,223.4h1.6v-9.9h-1.6v-1h5.4c0.8,0,1.5,0.1,2,0.4c0.9,0.4,1.5,1.4,1.5,2.6c0,1.2-0.6,2.1-1.5,2.6v0
				c1.2,0.4,2,1.5,2,2.9c0,1.5-0.8,2.6-2,3.1c-0.5,0.2-1.1,0.3-1.8,0.3h-5.5V223.4z M-60.3,217.7c1.2,0,2-0.8,2-2.1
				c0-0.8-0.3-1.4-0.9-1.8c-0.4-0.2-0.8-0.3-1.4-0.3h-2.6v4.1H-60.3z M-60.3,223.4c0.4,0,0.8,0,1.2-0.2c0.8-0.3,1.3-1.1,1.3-2.2
				c0-1.4-0.9-2.3-2.3-2.3h-3v4.7H-60.3z"/>
			<path class="st6" d="M-50.3,215.7c2.5,0,4.5,1.9,4.5,4.4c0,2.6-2,4.5-4.5,4.5c-2.5,0-4.5-1.9-4.5-4.5
				C-54.7,217.6-52.7,215.7-50.3,215.7z M-50.3,223.6c1.8,0,3.3-1.5,3.3-3.5c0-1.9-1.5-3.4-3.3-3.4c-1.8,0-3.3,1.4-3.3,3.4
				C-53.6,222.1-52.1,223.6-50.3,223.6z"/>
			<path class="st6" d="M-39.8,215.7c2.5,0,4.5,1.9,4.5,4.4c0,2.6-2,4.5-4.5,4.5c-2.5,0-4.5-1.9-4.5-4.5
				C-44.3,217.6-42.3,215.7-39.8,215.7z M-39.8,223.6c1.8,0,3.3-1.5,3.3-3.5c0-1.9-1.5-3.4-3.3-3.4c-1.8,0-3.3,1.4-3.3,3.4
				C-43.1,222.1-41.6,223.6-39.8,223.6z"/>
			<path class="st6" d="M-32.7,216.8h-1.5v-0.9h1.5v-2.3h1.1v2.3h2.1v0.9h-2.1v4.4c0,2,1.3,2.3,1.9,2.3c0.2,0,0.2,0,0.3,0
				c0.1,0,0.1,0,0.1,0v1c-0.1,0-0.1,0-0.1,0c-0.1,0-0.2,0-0.4,0c-1,0-3-0.3-3-3.2V216.8z"/>
			<path class="st6" d="M-28.1,221.8h1v0.6c0,0.9,1.2,1.2,2.2,1.2c1.1,0,2-0.5,2-1.3c0-1-1.1-1.3-2.3-1.8c-1.3-0.5-2.6-1-2.6-2.5
				c0-1.6,1.5-2.3,2.9-2.3c1.1,0,2.8,0.5,2.8,1.7v1h-1v-0.6c0-0.6-0.8-1-1.7-1c-0.9,0-1.8,0.4-1.8,1.2c0,0.9,1,1.3,2.1,1.7
				c1.3,0.5,2.8,1,2.8,2.5c0,1.5-1.3,2.4-3.2,2.4c-1.6,0-3.2-0.7-3.2-2V221.8z"/>
			<path class="st6" d="M-19.1,216.8h-1.5v-0.9h1.5v-2.3h1.1v2.3h2.1v0.9h-2.1v4.4c0,2,1.3,2.3,1.9,2.3c0.2,0,0.2,0,0.3,0
				c0.1,0,0.1,0,0.1,0v1c-0.1,0-0.1,0-0.1,0c-0.1,0-0.2,0-0.4,0c-1,0-3-0.3-3-3.2V216.8z"/>
			<path class="st6" d="M-14.3,223.4h1.3v-6.2c0-0.3-0.1-0.4-0.4-0.4h-1.1v-0.9h1.6c0.7,0,1,0.3,1,1v0.6c0,0.2,0,0.3,0,0.5
				c0,0.1,0,0.1,0,0.2h0c0.4-1.3,1.4-2.3,2.7-2.3c0.1,0,0.2,0,0.3,0l0.2,0v1.1c-0.1,0-0.1,0-0.1,0c-0.1,0-0.2,0-0.3,0
				c-1.9,0-2.7,2.1-2.7,3.8v2.6h1.3v0.9h-3.8V223.4z"/>
			<path class="st6" d="M-2.7,219.2h0.6v-0.4c0-1.6-0.9-2.1-2-2.1c-0.7,0-1.3,0.2-1.8,0.4c-0.3,0.1-0.5,0.3-0.7,0.4l-0.5-0.9
				c0.2-0.2,0.5-0.4,0.8-0.5c0.5-0.3,1.3-0.5,2.3-0.5c2.1,0,3.1,1.1,3.1,3.2v4.2c0,0.3,0.1,0.4,0.4,0.4h0.9v0.9H-1
				c-0.7,0-1-0.3-1-0.9v-0.2c0-0.2,0-0.4,0-0.5c0-0.1,0-0.1,0-0.2h0c-0.2,0.4-0.4,0.7-0.6,1c-0.5,0.5-1.2,1-2.3,1
				c-1.4,0-2.8-0.8-2.8-2.5C-7.8,219.3-4.1,219.2-2.7,219.2z M-4.8,223.6c1.7,0,2.7-1.7,2.7-3.2v-0.4h-0.5c-0.7,0-4-0.1-4,1.9
				C-6.6,222.8-6,223.6-4.8,223.6z"/>
			<path class="st6" d="M2.7,226.8v-9.6c0-0.3-0.1-0.4-0.4-0.4H1.2v-0.9h1.6c0.7,0,1,0.3,1,0.9v0.1c0,0.2,0,0.3,0,0.4l0,0.2h0
				c0.2-0.3,0.4-0.6,0.6-0.9c0.5-0.5,1.2-0.9,2.3-0.9c2.3,0,3.7,1.8,3.7,4.5c0,2.7-1.6,4.4-3.8,4.4c-1,0-1.7-0.4-2.2-0.8
				c-0.3-0.3-0.5-0.5-0.6-0.8h0l0,0.2c0,0.1,0,0.3,0,0.5v3.2h1.4v0.9h-4v-0.9H2.7z M6.5,223.6c1.5,0,2.8-1.2,2.8-3.4
				c0-2.1-1.1-3.4-2.7-3.4c-1.4,0-2.7,1-2.7,3.4C3.8,221.9,4.7,223.6,6.5,223.6z"/>
			<path class="st6" d="M16.2,223.4h1.4v-6.6h-1.5v-0.9h2.7v7.5h1.4v0.9h-4V223.4z M17.6,212.5h1.3v1.4h-1.3V212.5z"/>
			<path class="st6" d="M21.5,221.8h1v0.6c0,0.9,1.2,1.2,2.2,1.2c1.1,0,2-0.5,2-1.3c0-1-1.1-1.3-2.3-1.8c-1.3-0.5-2.6-1-2.6-2.5
				c0-1.6,1.5-2.3,2.9-2.3c1.1,0,2.8,0.5,2.8,1.7v1h-1v-0.6c0-0.6-0.8-1-1.7-1c-0.9,0-1.8,0.4-1.8,1.2c0,0.9,1,1.3,2.1,1.7
				c1.3,0.5,2.8,1,2.8,2.5c0,1.5-1.3,2.4-3.2,2.4c-1.6,0-3.2-0.7-3.2-2V221.8z"/>
			<path class="st6" d="M38.7,219.2h0.6v-0.4c0-1.6-0.9-2.1-2-2.1c-0.7,0-1.3,0.2-1.8,0.4c-0.3,0.1-0.5,0.3-0.7,0.4l-0.5-0.9
				c0.2-0.2,0.5-0.4,0.8-0.5c0.5-0.3,1.3-0.5,2.3-0.5c2.1,0,3.1,1.1,3.1,3.2v4.2c0,0.3,0.1,0.4,0.4,0.4h0.9v0.9h-1.4
				c-0.7,0-1-0.3-1-0.9v-0.2c0-0.2,0-0.4,0-0.5c0-0.1,0-0.1,0-0.2h0c-0.2,0.4-0.4,0.7-0.6,1c-0.5,0.5-1.2,1-2.3,1
				c-1.4,0-2.8-0.8-2.8-2.5C33.5,219.3,37.2,219.2,38.7,219.2z M36.5,223.6c1.7,0,2.7-1.7,2.7-3.2v-0.4h-0.5c-0.7,0-4-0.1-4,1.9
				C34.7,222.8,35.4,223.6,36.5,223.6z"/>
			<path class="st6" d="M53.3,212.3c1.4,0,4.4,0.5,4.4,2.4v1.3h-1.1V215c0-1.1-2-1.6-3.2-1.6c-2.8,0-4.8,2.1-4.8,5
				c0,3,2.1,5.2,4.9,5.2c1,0,3.4-0.4,3.4-1.6V221h1.1v1.3c0,1.7-2.9,2.3-4.5,2.3c-3.5,0-6.1-2.8-6.1-6.2S49.9,212.3,53.3,212.3z"/>
			<path class="st6" d="M61,221.1v0.9c0,1,1.2,1.6,2.6,1.6c1.6,0,2.6-0.8,2.6-2.1c0-1.6-1.4-2.1-3-2.7c-1.6-0.6-3.2-1.2-3.2-3.3
				s1.7-3.1,3.6-3.1c1.7,0,3.4,0.6,3.4,1.9v1.3H66v-0.9c0-0.8-1.2-1.2-2.3-1.2c-1.4,0-2.4,0.7-2.4,1.9c0,1.4,1.3,1.9,2.7,2.4
				c1.7,0.6,3.4,1.3,3.4,3.5c0,2.1-1.7,3.3-3.9,3.3c-1.7,0-3.7-0.8-3.7-2.4v-1.1H61z"/>
			<path class="st6" d="M70.5,221.1v0.9c0,1,1.2,1.6,2.6,1.6c1.6,0,2.6-0.8,2.6-2.1c0-1.6-1.4-2.1-3-2.7c-1.6-0.6-3.2-1.2-3.2-3.3
				s1.7-3.1,3.6-3.1c1.7,0,3.4,0.6,3.4,1.9v1.3h-1.1v-0.9c0-0.8-1.2-1.2-2.3-1.2c-1.4,0-2.4,0.7-2.4,1.9c0,1.4,1.3,1.9,2.7,2.4
				c1.7,0.6,3.4,1.3,3.4,3.5c0,2.1-1.7,3.3-3.9,3.3c-1.7,0-3.7-0.8-3.7-2.4v-1.1H70.5z"/>
			<path class="st6" d="M83,223.4h1.4v-6.6h-1.5v-0.9h1.5v-0.4c0-2.7,1.9-3,2.8-3c0.2,0,0.4,0,0.5,0l0.2,0v1l-0.2,0
				c-0.1,0-0.2,0-0.4,0c-0.6,0-1.7,0.2-1.7,2v0.5h2.2v0.9h-2.2v6.6h1.7v0.9H83V223.4z"/>
			<path class="st6" d="M89,223.4h1.3v-6.2c0-0.3-0.1-0.4-0.4-0.4h-1.1v-0.9h1.6c0.7,0,1,0.3,1,1v0.6c0,0.2,0,0.3,0,0.5
				c0,0.1,0,0.1,0,0.2h0c0.4-1.3,1.4-2.3,2.7-2.3c0.1,0,0.2,0,0.3,0l0.2,0v1.1c-0.1,0-0.1,0-0.1,0c-0.1,0-0.2,0-0.3,0
				c-1.9,0-2.7,2.1-2.7,3.8v2.6h1.3v0.9H89V223.4z"/>
			<path class="st6" d="M100.7,219.2h0.6v-0.4c0-1.6-0.9-2.1-2-2.1c-0.7,0-1.3,0.2-1.8,0.4c-0.3,0.1-0.5,0.3-0.7,0.4l-0.5-0.9
				c0.2-0.2,0.5-0.4,0.8-0.5c0.5-0.3,1.3-0.5,2.3-0.5c2.1,0,3.1,1.1,3.1,3.2v4.2c0,0.3,0.1,0.4,0.4,0.4h0.9v0.9h-1.4
				c-0.7,0-1-0.3-1-0.9v-0.2c0-0.2,0-0.4,0-0.5c0-0.1,0-0.1,0-0.2h0c-0.2,0.4-0.4,0.7-0.6,1c-0.5,0.5-1.2,1-2.3,1
				c-1.4,0-2.8-0.8-2.8-2.5C95.6,219.3,99.2,219.2,100.7,219.2z M98.6,223.6c1.7,0,2.7-1.7,2.7-3.2v-0.4h-0.5c-0.7,0-4-0.1-4,1.9
				C96.7,222.8,97.4,223.6,98.6,223.6z"/>
			<path class="st6" d="M104.9,223.4h1.4v-6.2c0-0.3-0.1-0.4-0.4-0.4h-1.1v-0.9h1.6c0.7,0,1,0.3,1,0.9v0.5c0,0.2,0,0.3,0,0.4l0,0.2
				h0c0.4-1.1,1.8-2.2,3.2-2.2c1.6,0,2.3,0.7,2.6,2.2h0c0.5-1.1,1.7-2.2,3.1-2.2c2,0,2.8,1.2,2.8,3.3v4.5h1.4v0.9H118v-5.1
				c0-1.4-0.3-2.5-1.8-2.5c-1.7,0-2.9,1.8-2.9,3.6v3.1h1.4v0.9h-2.6v-5.1c0-1.3-0.2-2.5-1.8-2.5c-1.7,0-2.9,1.8-2.9,3.6v3.1h1.4v0.9
				h-4V223.4z"/>
			<path class="st6" d="M125.9,215.7c2.3,0,3.6,1.8,3.6,3.9c0,0.1,0,0.2,0,0.3l0,0.2h-6.5c0.1,2.2,1.5,3.4,3.3,3.4
				c0.8,0,1.4-0.3,1.9-0.5c0.3-0.2,0.5-0.3,0.7-0.5l0.5,0.9c-0.3,0.2-0.5,0.4-0.8,0.6c-0.5,0.3-1.3,0.6-2.3,0.6
				c-2.5,0-4.4-1.8-4.4-4.4C121.7,217.4,123.6,215.7,125.9,215.7z M128.3,219.3c-0.1-1.8-1.1-2.6-2.4-2.6c-1.4,0-2.6,0.9-2.9,2.6
				H128.3z"/>
			<path class="st6" d="M130.4,215.9h3.5v0.9h-1.3l1.8,5.7c0.1,0.2,0.1,0.3,0.1,0.4l0,0.2h0l0-0.2c0-0.1,0.1-0.3,0.1-0.4l2.1-6.6
				h1.1l2.1,6.6c0.1,0.2,0.1,0.3,0.1,0.4l0,0.2h0l0-0.2c0-0.1,0-0.3,0.1-0.4l1.8-5.7H141v-0.9h3.5v0.9h-1.1l-2.4,7.5h-1.2l-2.1-6.4
				c-0.1-0.2-0.1-0.3-0.1-0.5c0-0.1,0-0.2,0-0.2h-0.1c0,0.1,0,0.1,0,0.2c-0.1,0.1-0.1,0.3-0.1,0.5l-2.1,6.4h-1.2l-2.4-7.5h-1.1
				V215.9z"/>
			<path class="st6" d="M149.9,215.7c2.5,0,4.5,1.9,4.5,4.4c0,2.6-2,4.5-4.5,4.5c-2.5,0-4.5-1.9-4.5-4.5
				C145.4,217.6,147.4,215.7,149.9,215.7z M149.9,223.6c1.8,0,3.3-1.5,3.3-3.5c0-1.9-1.5-3.4-3.3-3.4c-1.8,0-3.3,1.4-3.3,3.4
				C146.6,222.1,148.1,223.6,149.9,223.6z"/>
			<path class="st6" d="M156,223.4h1.3v-6.2c0-0.3-0.1-0.4-0.4-0.4h-1.1v-0.9h1.6c0.7,0,1,0.3,1,1v0.6c0,0.2,0,0.3,0,0.5
				c0,0.1,0,0.1,0,0.2h0c0.4-1.3,1.4-2.3,2.7-2.3c0.1,0,0.2,0,0.3,0l0.2,0v1.1c-0.1,0-0.1,0-0.1,0c-0.1,0-0.2,0-0.3,0
				c-1.9,0-2.7,2.1-2.7,3.8v2.6h1.3v0.9H156V223.4z"/>
			<path class="st6" d="M162.4,223.4h1.4v-10h-1.5v-0.9h2.7v6.7h1.3l2-2.4h-1.2v-0.9h3.6v0.9h-1.2l-2.3,2.7v0c0,0,0.3,0.1,0.6,0.7
				l1.7,2.8c0.2,0.3,0.3,0.4,0.8,0.4h0.6v0.9h-0.9c-0.9,0-1.1-0.2-1.5-0.8l-1.8-3.1c-0.2-0.3-0.4-0.4-0.8-0.4h-0.8v3.3h1.4v0.9h-3.9
				V223.4z"/>
			<path class="st6" d="M177.4,216.8h-1.5v-0.9h1.5v-2.3h1.1v2.3h2.1v0.9h-2.1v4.4c0,2,1.3,2.3,1.9,2.3c0.2,0,0.2,0,0.3,0
				c0.1,0,0.1,0,0.1,0v1c-0.1,0-0.1,0-0.1,0c-0.1,0-0.2,0-0.4,0c-1,0-3-0.3-3-3.2V216.8z"/>
			<path class="st6" d="M186.5,215.7c2.5,0,4.5,1.9,4.5,4.4c0,2.6-2,4.5-4.5,4.5c-2.5,0-4.5-1.9-4.5-4.5
				C182,217.6,184,215.7,186.5,215.7z M186.5,223.6c1.8,0,3.3-1.5,3.3-3.5c0-1.9-1.5-3.4-3.3-3.4c-1.8,0-3.3,1.4-3.3,3.4
				C183.2,222.1,184.7,223.6,186.5,223.6z"/>
			<path class="st37" d="M-66.1,242h1v0.6c0,0.9,1.2,1.2,2.2,1.2c1.1,0,2-0.5,2-1.3c0-1-1.1-1.3-2.3-1.8c-1.3-0.5-2.6-1-2.6-2.5
				c0-1.6,1.5-2.3,2.9-2.3c1.1,0,2.8,0.5,2.8,1.7v1h-1V238c0-0.6-0.8-1-1.7-1c-0.9,0-1.8,0.4-1.8,1.2c0,0.9,1,1.3,2.1,1.7
				c1.3,0.5,2.8,1,2.8,2.5c0,1.5-1.3,2.4-3.2,2.4c-1.6,0-3.2-0.7-3.2-2V242z"/>
			<path class="st37" d="M-57.1,237.1h-1.5v-0.9h1.5v-2.3h1.1v2.3h2.1v0.9h-2.1v4.4c0,2,1.3,2.3,1.9,2.3c0.2,0,0.2,0,0.3,0
				c0.1,0,0.1,0,0.1,0v1c-0.1,0-0.1,0-0.1,0c-0.1,0-0.2,0-0.4,0c-1,0-3-0.3-3-3.2V237.1z"/>
			<path class="st37" d="M-52.1,246.8c0.1,0.1,0.2,0.2,0.3,0.2c0.2,0.1,0.5,0.2,0.8,0.2c0.8,0,1.3-0.6,1.6-1.3l0.5-1.1l-3-7.6H-53
				v-0.9h3.6v0.9h-1.2l2.2,5.8c0.1,0.2,0.1,0.3,0.1,0.4l0,0.2h0.1c0-0.1,0-0.1,0-0.2c0.1-0.1,0.1-0.3,0.1-0.4l2.2-5.8h-1.2v-0.9h3.5
				v0.9h-1.1l-3.6,9.1c-0.5,1.2-1.4,2-2.6,2c-0.5,0-0.9-0.1-1.2-0.3c-0.2-0.1-0.3-0.2-0.4-0.3L-52.1,246.8z"/>
			<path class="st37" d="M-42,233.7h-1.5v-0.9h2.6v9.7c0,0.7,0.2,1.3,1,1.3c0.2,0,0.3,0,0.4,0s0.1,0,0.1,0v1l-0.2,0
				c-0.1,0-0.3,0-0.5,0c-1.1,0-1.9-0.6-1.9-2.2V233.7z"/>
			<path class="st37" d="M-33.9,236c2.3,0,3.6,1.8,3.6,3.9c0,0.1,0,0.2,0,0.3l0,0.2h-6.5c0.1,2.2,1.5,3.4,3.3,3.4
				c0.8,0,1.4-0.3,1.9-0.5c0.3-0.2,0.5-0.3,0.7-0.5l0.5,0.9c-0.3,0.2-0.5,0.4-0.8,0.6c-0.5,0.3-1.3,0.6-2.3,0.6
				c-2.5,0-4.4-1.8-4.4-4.4C-38.1,237.6-36.2,236-33.9,236z M-31.5,239.6c-0.1-1.8-1.1-2.6-2.4-2.6c-1.4,0-2.6,0.9-2.9,2.6H-31.5z"
				/>
			<path class="st37" d="M-24.6,243.7h1.4v-6.6h-1.5v-0.9h1.5v-0.4c0-2.7,1.9-3,2.8-3c0.2,0,0.4,0,0.5,0l0.2,0v1l-0.2,0
				c-0.1,0-0.2,0-0.4,0c-0.6,0-1.7,0.2-1.7,2v0.5h2.2v0.9H-22v6.6h1.7v0.9h-4.3V243.7z"/>
			<path class="st37" d="M-13.6,239.4h0.6v-0.4c0-1.6-0.9-2.1-2-2.1c-0.7,0-1.3,0.2-1.8,0.4c-0.3,0.1-0.5,0.3-0.7,0.4l-0.5-0.9
				c0.2-0.2,0.5-0.4,0.8-0.5c0.5-0.3,1.3-0.5,2.3-0.5c2.1,0,3.1,1.1,3.1,3.2v4.2c0,0.3,0.1,0.4,0.4,0.4h0.9v0.9H-12
				c-0.7,0-1-0.3-1-0.9v-0.2c0-0.2,0-0.4,0-0.5c0-0.1,0-0.1,0-0.2h0c-0.2,0.4-0.4,0.7-0.6,1c-0.5,0.5-1.2,1-2.3,1
				c-1.4,0-2.8-0.8-2.8-2.5C-18.7,239.6-15,239.4-13.6,239.4z M-15.7,243.9c1.7,0,2.7-1.7,2.7-3.2v-0.4h-0.5c-0.7,0-4-0.1-4,1.9
				C-17.5,243.1-16.9,243.9-15.7,243.9z"/>
			<path class="st37" d="M-9.4,242h1v0.6c0,0.9,1.2,1.2,2.2,1.2c1.1,0,2-0.5,2-1.3c0-1-1.1-1.3-2.3-1.8c-1.3-0.5-2.6-1-2.6-2.5
				c0-1.6,1.5-2.3,2.9-2.3c1.1,0,2.8,0.5,2.8,1.7v1h-1V238c0-0.6-0.8-1-1.7-1c-0.9,0-1.8,0.4-1.8,1.2c0,0.9,1,1.3,2.1,1.7
				c1.3,0.5,2.8,1,2.8,2.5c0,1.5-1.3,2.4-3.2,2.4c-1.6,0-3.2-0.7-3.2-2V242z"/>
			<path class="st37" d="M-0.4,237.1h-1.5v-0.9h1.5v-2.3h1.1v2.3h2.1v0.9H0.8v4.4c0,2,1.3,2.3,1.9,2.3c0.2,0,0.2,0,0.3,0
				c0.1,0,0.1,0,0.1,0v1c-0.1,0-0.1,0-0.1,0c-0.1,0-0.2,0-0.4,0c-1,0-3-0.3-3-3.2V237.1z"/>
			<path class="st37" d="M13.5,239.4H14v-0.4c0-1.6-0.9-2.1-2-2.1c-0.7,0-1.3,0.2-1.8,0.4c-0.3,0.1-0.5,0.3-0.7,0.4L9,236.9
				c0.2-0.2,0.5-0.4,0.8-0.5c0.5-0.3,1.3-0.5,2.3-0.5c2.1,0,3.1,1.1,3.1,3.2v4.2c0,0.3,0.1,0.4,0.4,0.4h0.9v0.9h-1.4
				c-0.7,0-1-0.3-1-0.9v-0.2c0-0.2,0-0.4,0-0.5c0-0.1,0-0.1,0-0.2h0c-0.2,0.4-0.4,0.7-0.6,1c-0.5,0.5-1.2,1-2.3,1
				c-1.4,0-2.8-0.8-2.8-2.5C8.4,239.6,12.1,239.4,13.5,239.4z M11.4,243.9c1.7,0,2.7-1.7,2.7-3.2v-0.4h-0.5c-0.7,0-4-0.1-4,1.9
				C9.6,243.1,10.2,243.9,11.4,243.9z"/>
			<path class="st37" d="M17.7,243.7h1.4v-6.2c0-0.3-0.1-0.4-0.4-0.4h-1.1v-0.9h1.6c0.7,0,1,0.3,1,0.9v0.5c0,0.2,0,0.3,0,0.4l0,0.2
				h0c0.2-0.6,1.4-2.2,3.5-2.2c2.1,0,2.8,1.2,2.8,3.3v4.5H28v0.9h-2.6v-5.1c0-1.3-0.2-2.5-1.9-2.5c-1.9,0-3.2,1.7-3.2,3.5v3.1h1.4
				v0.9h-4V243.7z"/>
			<path class="st37" d="M33,236c1,0,1.7,0.4,2.1,0.8c0.3,0.3,0.5,0.5,0.6,0.8h0c0-0.1,0-0.1,0-0.2c0-0.1,0-0.3,0-0.5v-3.2h-1.5
				v-0.9h2.7v10.5c0,0.3,0.1,0.4,0.4,0.4h0.9v0.9h-1.4c-0.7,0-1-0.3-1-0.9v-0.2c0-0.2,0-0.3,0-0.4l0-0.1h0c-0.2,0.3-0.4,0.6-0.6,0.9
				c-0.5,0.5-1.2,0.9-2.3,0.9c-2.3,0-3.7-1.8-3.7-4.4C29.1,237.7,30.7,236,33,236z M33,243.8c1.4,0,2.8-1,2.8-3.4
				c0-1.7-0.9-3.4-2.7-3.4c-1.5,0-2.8,1.2-2.8,3.4C30.3,242.5,31.4,243.8,33,243.8z"/>
			<path class="st37" d="M44.5,233.7H43v-0.9h2.7v4.2c0,0.2,0,0.4,0,0.5l0,0.2h0c0.2-0.3,0.4-0.6,0.6-0.9c0.5-0.5,1.2-0.9,2.3-0.9
				c2.3,0,3.7,1.8,3.7,4.5c0,2.7-1.6,4.4-3.8,4.4c-1,0-1.7-0.4-2.2-0.9c-0.3-0.3-0.5-0.5-0.6-0.9h0l0,0.2c0,0.1,0,0.3,0,0.5v0.8
				h-1.1V233.7z M48.3,243.8c1.5,0,2.8-1.2,2.8-3.4c0-2.1-1.1-3.4-2.7-3.4c-1.4,0-2.8,1-2.8,3.4C45.6,242.1,46.5,243.8,48.3,243.8z"
				/>
			<path class="st37" d="M58,236c2.3,0,3.6,1.8,3.6,3.9c0,0.1,0,0.2,0,0.3l0,0.2H55c0.1,2.2,1.5,3.4,3.3,3.4c0.8,0,1.4-0.3,1.9-0.5
				c0.3-0.2,0.5-0.3,0.7-0.5l0.5,0.9c-0.3,0.2-0.5,0.4-0.8,0.6c-0.5,0.3-1.3,0.6-2.3,0.6c-2.5,0-4.4-1.8-4.4-4.4
				C53.8,237.6,55.7,236,58,236z M60.4,239.6c-0.1-1.8-1.1-2.6-2.4-2.6c-1.4,0-2.6,0.9-2.9,2.6H60.4z"/>
			<path class="st37" d="M68.1,239.4h0.6v-0.4c0-1.6-0.9-2.1-2-2.1c-0.7,0-1.3,0.2-1.8,0.4c-0.3,0.1-0.5,0.3-0.7,0.4l-0.5-0.9
				c0.2-0.2,0.5-0.4,0.8-0.5c0.5-0.3,1.3-0.5,2.3-0.5c2.1,0,3.1,1.1,3.1,3.2v4.2c0,0.3,0.1,0.4,0.4,0.4h0.9v0.9h-1.4
				c-0.7,0-1-0.3-1-0.9v-0.2c0-0.2,0-0.4,0-0.5c0-0.1,0-0.1,0-0.2h0c-0.2,0.4-0.4,0.7-0.6,1c-0.5,0.5-1.2,1-2.3,1
				c-1.4,0-2.8-0.8-2.8-2.5C63,239.6,66.7,239.4,68.1,239.4z M66,243.9c1.7,0,2.7-1.7,2.7-3.2v-0.4h-0.5c-0.7,0-4-0.1-4,1.9
				C64.2,243.1,64.8,243.9,66,243.9z"/>
			<path class="st37" d="M73.3,237.1h-1.5v-0.9h2.7v5.1c0,1.3,0.2,2.5,1.9,2.5c1.9,0,3.1-1.8,3.1-3.6v-3.1h-1.5v-0.9h2.7v7.2
				c0,0.3,0.1,0.4,0.4,0.4h1v0.9h-1.4c-0.7,0-1-0.3-1-0.9v-0.4c0-0.2,0-0.3,0-0.4v-0.2h0c-0.2,0.6-1.2,2.2-3.4,2.2
				c-2,0-2.8-1.1-2.8-3.3V237.1z"/>
			<path class="st37" d="M84.2,237.1h-1.5v-0.9h1.5v-2.3h1.1v2.3h2.1v0.9h-2.1v4.4c0,2,1.3,2.3,1.9,2.3c0.2,0,0.2,0,0.3,0
				c0.1,0,0.1,0,0.1,0v1c-0.1,0-0.1,0-0.1,0c-0.1,0-0.2,0-0.4,0c-1,0-3-0.3-3-3.2V237.1z"/>
			<path class="st37" d="M88.9,243.7h1.4v-6.6h-1.5v-0.9h2.7v7.5h1.4v0.9h-4V243.7z M90.2,232.8h1.3v1.4h-1.3V232.8z"/>
			<path class="st37" d="M94.2,243.7h1.4v-6.6h-1.5v-0.9h1.5v-0.4c0-2.7,1.9-3,2.8-3c0.2,0,0.4,0,0.5,0l0.2,0v1l-0.2,0
				c-0.1,0-0.2,0-0.4,0c-0.6,0-1.7,0.2-1.7,2v0.5h2.2v0.9h-2.2v6.6h1.7v0.9h-4.3V243.7z"/>
			<path class="st37" d="M101.2,237.1h-1.5v-0.9h2.7v5.1c0,1.3,0.2,2.5,1.9,2.5c1.9,0,3.1-1.8,3.1-3.6v-3.1h-1.5v-0.9h2.7v7.2
				c0,0.3,0.1,0.4,0.4,0.4h1v0.9h-1.4c-0.7,0-1-0.3-1-0.9v-0.4c0-0.2,0-0.3,0-0.4v-0.2h0c-0.2,0.6-1.2,2.2-3.4,2.2
				c-2,0-2.8-1.1-2.8-3.3V237.1z"/>
			<path class="st37" d="M111.8,233.7h-1.5v-0.9h2.6v9.7c0,0.7,0.2,1.3,1,1.3c0.2,0,0.3,0,0.4,0c0.1,0,0.1,0,0.1,0v1l-0.2,0
				c-0.1,0-0.3,0-0.5,0c-1.1,0-1.9-0.6-1.9-2.2V233.7z"/>
		</g>
	</g>
</g>
</svg>
