<?xml version="1.0" encoding="utf-8"?>
<!-- Generator: Adobe Illustrator 19.0.0, SVG Export Plug-In . SVG Version: 6.00 Build 0)  -->
<svg version="1.1" id="Layer_1" xmlns="http://www.w3.org/2000/svg" xmlns:xlink="http://www.w3.org/1999/xlink" x="0px" y="0px"
	 viewBox="110 -170 1280 400" style="enable-background:new 110 -170 1280 400;" xml:space="preserve">
<style type="text/css">
	.st0{clip-path:url(#SVGID_2_);}
	.st1{clip-path:url(#SVGID_4_);fill:url(#SVGID_5_);}
	.st2{opacity:0.28;clip-path:url(#SVGID_4_);fill:url(#SVGID_6_);}
	.st3{opacity:0.54;clip-path:url(#SVGID_4_);fill:url(#SVGID_7_);}
	.st4{opacity:0.28;clip-path:url(#SVGID_4_);fill:url(#SVGID_8_);}
	.st5{clip-path:url(#SVGID_4_);fill:#E8F0F6;}
	.st6{opacity:0.54;clip-path:url(#SVGID_4_);fill:url(#SVGID_9_);}
	.st7{opacity:0.5;clip-path:url(#SVGID_4_);fill:url(#SVGID_10_);}
	.st8{opacity:0.33;clip-path:url(#SVGID_4_);fill:url(#SVGID_11_);}
	.st9{opacity:0.5;clip-path:url(#SVGID_4_);fill:url(#SVGID_12_);}
	.st10{clip-path:url(#SVGID_4_);fill:url(#SVGID_13_);}
	.st11{opacity:0.28;clip-path:url(#SVGID_4_);fill:url(#SVGID_14_);}
	.st12{fill:#9D7DFF;}
	.st13{fill:#29C0FF;}
	.st14{fill:#E8F0F6;}
	.st15{fill:#FFFFFF;}
	.st16{fill:url(#SVGID_15_);}
	.st17{fill:url(#SVGID_16_);}
	.st18{fill:url(#SVGID_17_);}
	.st19{fill:url(#SVGID_18_);}
	.st20{fill:url(#SVGID_19_);}
	.st21{fill:url(#SVGID_20_);}
	.st22{fill:url(#SVGID_21_);}
	.st23{fill:url(#SVGID_22_);}
	.st24{fill:url(#SVGID_23_);}
	.st25{fill:url(#SVGID_24_);}
	.st26{fill:url(#SVGID_25_);}
	.st27{fill:#1487E3;}
	.st28{fill:#FF7E55;}
	.st29{fill:#424773;}
	.st30{fill:#292C47;}
	.st31{fill:#EEA886;}
	.st32{fill:#754836;}
	.st33{fill:#E2D2CA;}
	.st34{fill:#FFCB55;}
	.st35{fill:url(#SVGID_26_);}
	.st36{fill:url(#SVGID_27_);}
	.st37{fill:#4D78EB;}
	.st38{fill:#E0E0E0;}
	.st39{fill:#FF8761;}
	.st40{opacity:0.76;}
	.st41{fill:#4AAFFF;}
	.st42{fill:#1A598C;}
	.st43{fill:#2273B5;}
	.st44{fill:#3788CC;}
	.st45{fill:#414773;}
	.st46{fill:#2D314F;}
	.st47{fill:#2B3B57;}
	.st48{fill:#FFC655;}
	.st49{fill:#353A3D;}
	.st50{fill:#D4D8E8;}
	.st51{fill:#E55353;}
	.st52{fill:#6069A8;}
	.st53{fill:#202338;}
	.st54{fill:#464240;}
	.st55{fill:#EB4747;}
	.st56{fill:#325BB3;}
	.st57{fill:#A77860;}
	.st58{fill:#5E5853;}
	.st59{fill:#91887F;}
	.st60{fill:#EDDAD3;}
	.st61{fill:#6E6760;}
	.st62{fill:#807066;}
</style>
<g>
	<defs>
		<rect id="SVGID_1_" x="110" y="-170" width="1280" height="400"/>
	</defs>
	<clipPath id="SVGID_2_">
		<use xlink:href="#SVGID_1_"  style="overflow:visible;"/>
	</clipPath>
	<g class="st0">
		<defs>
			<rect id="SVGID_3_" x="110" y="-370" width="1280" height="800"/>
		</defs>
		<clipPath id="SVGID_4_">
			<use xlink:href="#SVGID_3_"  style="overflow:visible;"/>
		</clipPath>
		<linearGradient id="SVGID_5_" gradientUnits="userSpaceOnUse" x1="220.2934" y1="-327.6361" x2="1202.5852" y2="335.5669">
			<stop  offset="1.048410e-002" style="stop-color:#29C0FF"/>
			<stop  offset="0.9994" style="stop-color:#5E4CFF"/>
		</linearGradient>
		<rect x="110" y="-370" class="st1" width="1280" height="800"/>
		
			<linearGradient id="SVGID_6_" gradientUnits="userSpaceOnUse" x1="928.9189" y1="252.5071" x2="769.3345" y2="635.9236" gradientTransform="matrix(0.209 -0.9779 0.9779 0.209 581.8829 1047.4562)">
			<stop  offset="1.048410e-002" style="stop-color:#29C0FF"/>
			<stop  offset="0.9994" style="stop-color:#5E4CFF"/>
		</linearGradient>
		<path class="st2" d="M1039.3,552.1c-84.2-167.4,91.5-117.6,116.4-176.4c22.1-52.3-77.1-76.4-78-165.8
			c-1.3-125.1,97.9-212,238.4-171.7C1425.2,69.7,1482,257,1479.9,412C1477.7,567,1113,698.7,1039.3,552.1z"/>
		<linearGradient id="SVGID_7_" gradientUnits="userSpaceOnUse" x1="1300.7876" y1="-196.8661" x2="1499.1909" y2="-196.8661">
			<stop  offset="1.048410e-002" style="stop-color:#29C0FF"/>
			<stop  offset="0.9994" style="stop-color:#5E4CFF"/>
		</linearGradient>
		<path class="st3" d="M1331-130.8c85.2,104,229.7-27.1,139.8-135.5C1393.7-359,1234.4-248.7,1331-130.8z"/>
		<linearGradient id="SVGID_8_" gradientUnits="userSpaceOnUse" x1="1530.5532" y1="-456.2794" x2="1236.3165" y2="-212.9685">
			<stop  offset="1.048410e-002" style="stop-color:#29C0FF"/>
			<stop  offset="0.9994" style="stop-color:#5E4CFF"/>
		</linearGradient>
		<path class="st4" d="M1168.6-411.3c-40.9,84.5-40.2,166.4,27.9,199.6c68,33.2,113.9-11.5,158.5,18.9
			c44.7,30.4,74.4,64.3,114.9,42.3c40.5-22,39.9-228.6-33.9-263.8C1362.1-449.4,1184.1-443.3,1168.6-411.3z"/>
		<path class="st5" d="M1449.1-173.8c-18.6-41.2-65.9-81.7-125.7-73c-21.1,3.1-37.5,9.6-53.4,16c-28.2,11.3-54.8,21.9-101,7.5
			c-27.3-8.5-48.6-30.3-59.9-61.3c-13.3-36.6-10.6-81,6.6-107.9l1.4,0.9c-17,26.5-19.7,70.3-6.5,106.5c11.1,30.5,32,51.9,58.8,60.3
			c45.6,14.2,70.8,4.1,99.9-7.5c16-6.4,32.5-13,53.8-16.1c60.7-8.8,108.6,32.2,127.5,74L1449.1-173.8z"/>
		<path class="st5" d="M1493.5-175.7c-26-44.2-84.2-83.9-150.6-66.7c-23.4,6.1-41.1,15.5-58.2,24.5c-30.3,16.1-59,31.4-112.7,20.9
			c-31.8-6.2-58.4-28.1-74.9-61.6c-19.5-39.6-21.9-89.8-5.8-122.2l1.5,0.7c-15.9,32-13.5,81.6,5.8,120.7
			c16.3,33,42.5,54.6,73.7,60.7c53.1,10.4,80.2-4,111.6-20.7c17.2-9.1,34.9-18.6,58.5-24.7c67.2-17.4,126.1,22.8,152.4,67.5
			L1493.5-175.7z"/>
		<linearGradient id="SVGID_9_" gradientUnits="userSpaceOnUse" x1="1393.589" y1="275.6094" x2="1331.3469" y2="579.2758">
			<stop  offset="1.048410e-002" style="stop-color:#29C0FF"/>
			<stop  offset="0.9994" style="stop-color:#5E4CFF"/>
		</linearGradient>
		<path class="st6" d="M1421.7,298.5c-133.5,0-185.1,96.6-180.1,182.4s153.4,86.5,213.8-7.4S1476,298.5,1421.7,298.5z"/>
		<linearGradient id="SVGID_10_" gradientUnits="userSpaceOnUse" x1="722.1869" y1="-152.6628" x2="576.9551" y2="196.2701">
			<stop  offset="6.679100e-004" style="stop-color:#00F7FF"/>
			<stop  offset="1" style="stop-color:#F580FF"/>
		</linearGradient>
		<path class="st7" d="M436.5,67.4c79.5-153,202.8-238.1,256.3-214.6c53.5,23.4,6.6,120.7,32.4,146.4C751,25,805.6,17.4,801.6,102.6
			s-87.4,159-201.5,181.7C486,307,379.8,176.7,436.5,67.4z"/>
		
			<linearGradient id="SVGID_11_" gradientUnits="userSpaceOnUse" x1="857.7612" y1="-217.9116" x2="531.158" y2="550.9241" gradientTransform="matrix(0.9584 0.2853 -0.2853 0.9584 12.1112 -210.3978)">
			<stop  offset="1.048410e-002" style="stop-color:#29C0FF"/>
			<stop  offset="0.9994" style="stop-color:#5E4CFF"/>
		</linearGradient>
		<path class="st8" d="M10.9,182.6c317.7-328.6,629.2-467.1,747.5-367s-195.8,434.3-28.9,459.8c150,22.9,298.5,48.8,166.5,257
			c-121,190.9-342.3,337.8-649.3,309.3C-60.2,813.1-215.9,417.3,10.9,182.6z"/>
		
			<linearGradient id="SVGID_12_" gradientUnits="userSpaceOnUse" x1="106.791" y1="35.0197" x2="365.2348" y2="-383.7732" gradientTransform="matrix(0.9995 3.170000e-002 -3.170000e-002 0.9995 -2.7593 -16.1907)">
			<stop  offset="6.679100e-004" style="stop-color:#00F7FF"/>
			<stop  offset="1" style="stop-color:#F580FF"/>
		</linearGradient>
		<path class="st9" d="M346.7,61.6c75.4-11.7,108-96.1,62.2-156.3c-45.8-60.2-24.4-91,23-161.9s-14.3-194.5-158.8-199.1
			c-144.6-4.6-238,70.5-249.2,155.4S79.8,103.1,346.7,61.6z"/>
		<linearGradient id="SVGID_13_" gradientUnits="userSpaceOnUse" x1="-88.0422" y1="-165.6828" x2="604.1658" y2="628.3751">
			<stop  offset="1.048410e-002" style="stop-color:#29C0FF"/>
			<stop  offset="0.9994" style="stop-color:#5E4CFF"/>
		</linearGradient>
		<path class="st10" d="M81.4-290.3C97.4-159,102-50.7,253.1-11.5S536,38.8,639.4,182.3c103.5,143.4,79.3,253.4,68.7,295.4
			c-10.6,42-670.9,12.5-688-30.4C2.9,404.3,81.4-290.3,81.4-290.3z"/>
		
			<linearGradient id="SVGID_14_" gradientUnits="userSpaceOnUse" x1="152.1321" y1="564.6548" x2="257.7559" y2="221.3767" gradientTransform="matrix(0.991 0.1338 -0.1338 0.991 23.8559 -65.2598)">
			<stop  offset="1.048410e-002" style="stop-color:#29C0FF"/>
			<stop  offset="0.9994" style="stop-color:#5E4CFF"/>
		</linearGradient>
		<path class="st11" d="M21.3,156c70.4-29.4,209.7-11.8,279.2,79.5s59.3,230.3,44.5,273.6c-14.9,43.3-342.3-32.2-359.4-88.9
			C-31.5,363.6,21.3,156,21.3,156z"/>
		<path class="st5" d="M753.3,485.2l-1.6-0.4c0.1-0.5,11.7-48.9,11.1-111.3c-0.6-57.5-12-139-63.2-200.7
			C596.3,48.3,398.1,7.1,236.9-15c-50.7-6.9-121.7-25.8-171.8-76.4c-30-30.3-38.4-58-38.4-58.3l1.6-0.5c0.1,0.3,8.3,27.7,38.1,57.7
			c49.8,50.2,120.3,69,170.8,75.9c161.4,22.1,360,63.5,463.8,188.5c51.5,62,63,144,63.6,201.8C765.1,436.1,753.4,484.7,753.3,485.2z
			"/>
		<path class="st5" d="M646.1,571.9l-1.5-0.6c0.2-0.5,18.3-46.8,26.2-108.7c7.3-57.1,7-139.4-35.3-207.4
			C550,117.8,359.3,49.8,202.6,6C153.3-7.8,85.6-36.2,42.8-93.1c-25.6-34.1-30.1-62.7-30.1-63l1.6-0.2c0,0.3,4.5,28.6,29.9,62.3
			C86.7-37.5,154.1-9.3,203.1,4.4c156.9,43.9,348,112,433.7,249.9c23.5,37.8,48.7,104.7,35.5,208.5
			C664.4,524.9,646.3,571.5,646.1,571.9z"/>
		<path class="st5" d="M580.5,536.6l-1.5-0.8c0.2-0.4,24-44.2,39.5-104.6c14.3-55.7,24.3-137.4-9.2-210.2
			C541.6,74,360.8-17.1,210.8-80.1C163.6-99.9,99.9-136.5,64.5-198.3c-21.2-37-22.1-66-22.1-66.3l1.7,0c0,0.3,0.9,28.9,21.9,65.6
			c35.1,61.4,98.4,97.7,145.4,117.4c150.2,63,331.4,154.3,399.3,301.9c33.7,73.2,23.7,155.3,9.3,211.3
			C604.5,492.2,580.7,536.1,580.5,536.6z"/>
		<path class="st5" d="M390.6,475.2l-1.8-0.1c0-0.3,1.2-34.5-13.1-75c-13.1-37.4-42.4-88.1-107.3-117.2
			c-124.5-55.8-223.9-27.5-224.9-27.2l-0.5-1.7c1-0.3,101-28.8,226.1,27.3c65.5,29.3,95.1,80.5,108.3,118.2
			C391.8,440.4,390.7,474.8,390.6,475.2z"/>
		<path class="st5" d="M428.1,437.3c-0.1-0.3-6.7-33.8-29.8-70.1c-21.3-33.4-61.4-76.1-131.2-89.6c-70-13.6-127.5-6.1-163.4,2.5
			c-38.9,9.4-61.6,22.1-61.8,22.2l-0.9-1.5c0.2-0.1,23-13,62.2-22.4c36.1-8.7,93.9-16.2,164.2-2.6c70.5,13.6,110.9,56.7,132.4,90.5
			c23.3,36.5,30,70.3,30,70.7L428.1,437.3z"/>
		<path class="st5" d="M1273,467.1c0-0.4-3-37.4,13.1-81.8c14.8-41,49.3-97,129.6-130.7l0.6,1.5c-79.7,33.5-113.9,89-128.7,129.7
			c-15.9,44.1-13,80.7-13,81.1L1273,467.1z"/>
	</g>
	<g class="st0">
		<g>
			<path class="st12" d="M817.5,19.8H687.9c-13.6,0-24.8-11.1-24.8-24.8l0,0c0-13.6,11.1-24.8,24.8-24.8h129.6
				c13.6,0,24.8,11.1,24.8,24.8l0,0C842.2,8.7,831.1,19.8,817.5,19.8z"/>
			<path class="st13" d="M817.5,20.8H687.9c-14.2,0-25.8-11.6-25.8-25.8s11.6-25.8,25.8-25.8h129.6c14.2,0,25.8,11.6,25.8,25.8
				S831.7,20.8,817.5,20.8z M687.9-28.7c-13.1,0-23.8,10.7-23.8,23.8s10.7,23.8,23.8,23.8h129.6c13.1,0,23.8-10.7,23.8-23.8
				s-10.7-23.8-23.8-23.8H687.9z"/>
		</g>
		<g>
			<path class="st14" d="M735.7-1.9c0,1.2-0.4,2.1-1.3,2.8c-0.8,0.7-2,1-3.5,1c-1.4,0-2.6-0.3-3.7-0.8v-2.6c0.9,0.4,1.6,0.7,2.2,0.8
				c0.6,0.2,1.2,0.2,1.7,0.2c0.6,0,1.1-0.1,1.4-0.3c0.3-0.2,0.5-0.6,0.5-1c0-0.3-0.1-0.5-0.2-0.7c-0.1-0.2-0.4-0.4-0.6-0.6
				c-0.3-0.2-0.8-0.5-1.7-0.9c-0.8-0.4-1.4-0.7-1.8-1.1c-0.4-0.3-0.7-0.7-0.9-1.2c-0.2-0.5-0.4-1-0.4-1.6c0-1.1,0.4-2,1.2-2.7
				c0.8-0.7,1.9-1,3.2-1c0.7,0,1.3,0.1,1.9,0.2c0.6,0.2,1.3,0.4,1.9,0.7l-0.9,2.1C734-8.7,733.5-8.9,733-9c-0.5-0.1-0.9-0.2-1.3-0.2
				c-0.5,0-0.9,0.1-1.2,0.4c-0.3,0.2-0.4,0.6-0.4,0.9c0,0.2,0.1,0.5,0.2,0.6c0.1,0.2,0.3,0.4,0.5,0.5c0.2,0.2,0.8,0.5,1.7,0.9
				c1.2,0.6,2,1.2,2.5,1.7S735.7-2.8,735.7-1.9z"/>
			<path class="st14" d="M743,1.7h-2.8V-9h-3.5v-2.3h9.8V-9H743V1.7z"/>
			<path class="st14" d="M756.5,1.7l-0.9-3.1h-4.7l-0.9,3.1h-3l4.6-13h3.4l4.6,13H756.5z M754.9-3.7c-0.9-2.8-1.4-4.4-1.5-4.7
				c-0.1-0.4-0.2-0.7-0.2-0.9c-0.2,0.8-0.8,2.6-1.7,5.6H754.9z"/>
			<path class="st14" d="M763.8-3.3v5h-2.8v-13h3.8c1.8,0,3.1,0.3,3.9,1c0.8,0.6,1.3,1.6,1.3,2.9c0,0.8-0.2,1.4-0.6,2
				c-0.4,0.6-1,1.1-1.8,1.4c2,2.9,3.2,4.8,3.8,5.6h-3.1l-3.1-5H763.8z M763.8-5.5h0.9c0.9,0,1.5-0.1,1.9-0.4
				c0.4-0.3,0.6-0.7,0.6-1.4c0-0.6-0.2-1.1-0.6-1.3c-0.4-0.3-1.1-0.4-2-0.4h-0.8V-5.5z"/>
			<path class="st14" d="M778.1,1.7h-2.8V-9h-3.5v-2.3h9.8V-9h-3.5V1.7z"/>
		</g>
	</g>
	<g id="XMLID_5_" class="st0">
		<path id="XMLID_9_" class="st15" d="M1084-105.2l9.1,63.4l27.2,9.1l27.2-9.1l9.1-63.4H1084z M1142.9-87.1l-18.1,9.1h16.3
			l-2.7,27.2l-18.1,4.5l-18.1-4.5l-1.4-13.6h10.4l0.9,6.8l8.1,2.3l9.1-2.3l1.1-11.3h-30.1l-0.6-6.4l5.3-2.6l18.2-9.1h-24.7l-0.9-9.1
			h45.3V-87.1z"/>
	</g>
	<g class="st0">
		<path class="st15" d="M927.1-76.7v-5.2c0-5.3-1.2-8-3.7-8c-2.3,0-3.7,1.3-4.2,3.9c-0.5,2.2-0.7,8.1-0.7,17.7
			c0,9.6,0.3,15.6,0.8,18c0.5,2.4,1.9,3.6,4.1,3.6c2.7,0,4.1-3.6,4.1-10.9v-5h17.6v4.1c0,15.9-7.3,23.8-21.9,23.8
			c-7.4,0-12.8-1.4-16.4-4.2c-3.1-2.4-5.1-6.2-6-11.5c-0.6-3.3-0.9-9.3-0.9-17.9c0-8.4,0.3-14.2,0.9-17.6c0.9-5.4,2.9-9.3,6-11.8
			c3.6-2.8,9-4.3,16.4-4.3c8.7,0,14.7,2.1,18,6.4c2.4,3.1,3.5,7.8,3.5,14v4.7H927.1z"/>
		<path class="st15" d="M983.1-82v-2.6c0-3.5-1.4-5.2-4.3-5.2c-2.8,0-4.2,1.6-4.2,4.9c0,3.4,2.3,6.1,7,8.1
			c7.9,3.5,12.2,5.5,13.1,6.2c4.7,3.4,7,8.4,7,15c0,7.5-1.9,12.8-5.6,16.1c-3.7,3.3-9.8,4.9-18.2,4.9c-7.3,0-12.6-1.4-16-4.2
			c-3.7-3-5.5-7.9-5.5-14.7v-1.7H974v3c0,3.8,1.5,5.7,4.6,5.7c3,0,4.5-1.9,4.5-5.7c0-1.9-0.4-3.3-1.1-4.3c-0.4-0.7-1.4-1.4-2.8-2.2
			c-1.9-0.9-4.9-2.3-9-4.3c-5.1-2.5-8.5-4.9-10.2-7.2c-1.9-2.5-2.9-6.1-2.9-10.8c0-8,2.3-13.6,6.9-16.8c3.7-2.7,8.7-4,14.7-4
			c8.4,0,14.2,2,17.6,5.9c2.5,3,3.8,7.7,3.8,13.9H983.1z"/>
		<path class="st15" d="M1039.8-82v-2.6c0-3.5-1.4-5.2-4.3-5.2c-2.8,0-4.2,1.6-4.2,4.9c0,3.4,2.3,6.1,7,8.1
			c7.9,3.5,12.2,5.5,13.1,6.2c4.7,3.4,7,8.4,7,15c0,7.5-1.9,12.8-5.6,16.1c-3.7,3.3-9.8,4.9-18.2,4.9c-7.3,0-12.6-1.4-16-4.2
			c-3.7-3-5.5-7.9-5.5-14.7v-1.7h17.6v3c0,3.8,1.5,5.7,4.6,5.7c3,0,4.5-1.9,4.5-5.7c0-1.9-0.4-3.3-1.1-4.3c-0.4-0.7-1.4-1.4-2.8-2.2
			c-1.9-0.9-4.9-2.3-9-4.3c-5.1-2.5-8.5-4.9-10.2-7.2c-1.9-2.5-2.9-6.1-2.9-10.8c0-8,2.3-13.6,6.9-16.8c3.7-2.7,8.7-4,14.7-4
			c8.4,0,14.2,2,17.6,5.9c2.5,3,3.8,7.7,3.8,13.9H1039.8z"/>
	</g>
	<g class="st0">
		<path class="st15" d="M925.9,2.4c0,0.9-0.2,1.7-0.6,2.5s-0.9,1.5-1.6,2.1c-0.7,0.6-1.5,1.1-2.4,1.4c-0.9,0.4-2,0.5-3.1,0.5
			c-1,0-1.9-0.1-2.7-0.2c-0.8-0.1-1.6-0.3-2.3-0.6c-0.7-0.3-1.4-0.6-2-1c-0.7-0.4-1.3-0.9-2-1.5l3.2-3.2c0.9,0.8,1.8,1.3,2.7,1.6
			c0.9,0.3,1.9,0.5,2.9,0.5c0.4,0,0.8-0.1,1.2-0.2c0.4-0.1,0.7-0.3,1-0.5c0.3-0.2,0.5-0.5,0.7-0.8c0.2-0.3,0.2-0.6,0.2-1
			c0-0.4-0.1-0.7-0.2-1c-0.1-0.3-0.4-0.6-0.7-0.8c-0.4-0.3-0.8-0.5-1.5-0.8c-0.6-0.3-1.4-0.6-2.4-0.9c-0.9-0.3-1.7-0.7-2.5-1.1
			c-0.8-0.4-1.5-0.9-2.1-1.4c-0.6-0.6-1.1-1.2-1.4-2c-0.4-0.8-0.5-1.7-0.5-2.7c0-1,0.2-1.9,0.6-2.7c0.4-0.8,0.9-1.5,1.6-2.1
			c0.7-0.6,1.5-1.1,2.4-1.4c0.9-0.3,1.9-0.5,3-0.5c1.8,0,3.3,0.2,4.5,0.7c1.2,0.5,2.3,1.1,3.3,2l-3.2,3.2c-0.6-0.6-1.2-1-1.9-1.3
			c-0.7-0.3-1.6-0.5-2.6-0.5c-0.4,0-0.9,0.1-1.2,0.2c-0.4,0.1-0.7,0.3-1,0.5c-0.3,0.2-0.5,0.5-0.7,0.8c-0.2,0.3-0.2,0.6-0.2,0.9
			c0,0.4,0.1,0.7,0.2,1c0.2,0.3,0.4,0.6,0.8,0.9c0.4,0.3,0.9,0.6,1.5,0.8c0.6,0.3,1.4,0.6,2.3,0.9c1.2,0.4,2.2,0.9,3,1.3
			c0.8,0.5,1.5,1,2,1.6c0.5,0.6,0.9,1.3,1.2,2C925.8,0.6,925.9,1.5,925.9,2.4z"/>
		<path class="st15" d="M938,8.1c-0.4,0.3-0.9,0.5-1.5,0.6c-0.6,0.1-1.1,0.2-1.7,0.2c-1,0-1.8-0.1-2.5-0.4c-0.7-0.2-1.2-0.6-1.6-1.1
			c-0.4-0.5-0.7-1.1-0.9-1.9c-0.2-0.8-0.3-1.7-0.3-2.7v-7.4h-2.2v-1.6c1.4-0.7,2.5-1.6,3.4-2.8c0.9-1.2,1.5-2.6,1.8-4.3h1.2v4.9h4.3
			v3.8h-4.3v7.7c0,0.9,0.2,1.4,0.6,1.7c0.4,0.3,0.8,0.4,1.3,0.4c0.3,0,0.7-0.1,1.2-0.2c0.5-0.1,0.9-0.3,1.2-0.6V8.1z"/>
		<path class="st15" d="M955.8-8.4l-7.6,20c-0.6,1.5-1.3,2.6-2.2,3.3c-0.9,0.7-2,1-3.3,1c-0.2,0-0.4,0-0.6,0c-0.2,0-0.5-0.1-0.7-0.1
			l-1.4-3.9c0.8,0.3,1.4,0.5,2,0.5c0.7,0,1.3-0.2,1.8-0.5c0.5-0.3,1-0.9,1.3-1.7l0.6-1.7l-6.5-16.9h4.6l3.9,10.9l3.6-10.9H955.8z"/>
		<path class="st15" d="M964.8,8.4c-0.3,0.2-0.7,0.3-1.1,0.4s-0.9,0.1-1.3,0.1c-0.6,0-1.2-0.1-1.8-0.2c-0.6-0.2-1.1-0.4-1.5-0.8
			c-0.4-0.4-0.8-0.8-1-1.4c-0.3-0.6-0.4-1.3-0.4-2.2v-20h4.3V3.6c0,0.7,0.1,1.2,0.4,1.4c0.3,0.3,0.6,0.4,1,0.4c0.5,0,1-0.1,1.4-0.4
			V8.4z"/>
		<path class="st15" d="M984.2,0c0,0.3,0,0.6,0,0.8c0,0.3-0.1,0.6-0.1,0.9h-13.5c0.3,1,0.9,1.8,1.7,2.5c0.8,0.7,1.8,1,3.1,1
			c0.8,0,1.5-0.1,2.3-0.4c0.8-0.3,1.4-0.6,1.9-1.1l2.7,2.7c-1.2,0.9-2.3,1.5-3.4,1.9c-1.1,0.4-2.3,0.5-3.5,0.5
			c-1.3,0-2.4-0.2-3.5-0.7c-1.1-0.5-2.1-1.1-2.9-1.9c-0.8-0.8-1.4-1.7-1.9-2.8c-0.5-1.1-0.7-2.2-0.7-3.5s0.2-2.4,0.7-3.5
			c0.5-1.1,1.1-2,1.9-2.8c0.8-0.8,1.8-1.4,2.9-1.9c1.1-0.5,2.3-0.7,3.5-0.7c1.2,0,2.3,0.2,3.4,0.7c1.1,0.4,2.1,1,2.9,1.8
			c0.8,0.8,1.5,1.7,2,2.8S984.2-1.3,984.2,0z M979.8-1.6c-0.3-1.1-0.9-1.9-1.8-2.6s-1.8-1-2.9-1c-1.1,0-2,0.3-2.8,1
			c-0.8,0.7-1.4,1.5-1.8,2.6H979.8z"/>
		<path class="st15" d="M1009.8,8.5h-4.2V7.6c-0.7,0.5-1.5,0.9-2.3,1.1c-0.8,0.2-1.7,0.3-2.6,0.3c-0.8,0-1.6-0.1-2.2-0.4
			c-0.7-0.2-1.2-0.6-1.7-1.1c-0.5-0.5-0.9-1-1.1-1.6c-0.3-0.6-0.4-1.3-0.4-2.1c0-1,0.2-1.8,0.6-2.5c0.4-0.7,1-1.3,1.7-1.8
			c0.7-0.5,1.6-0.8,2.5-1.1c1-0.2,2-0.3,3.1-0.3h2.4c0-1-0.3-1.8-0.9-2.4c-0.6-0.6-1.6-0.9-2.8-0.9c-0.6,0-1.2,0.1-1.8,0.3
			c-0.6,0.2-1.2,0.6-1.9,1.2l-2.5-2.5c0.9-0.9,1.9-1.6,3.1-2c1.2-0.5,2.4-0.7,3.6-0.7c1.2,0,2.2,0.2,3.1,0.6
			c0.9,0.4,1.7,0.8,2.2,1.4c0.7,0.7,1.3,1.6,1.6,2.5c0.3,0.9,0.5,2.1,0.5,3.5V8.5z M1005.5,4.3V1.2h-1.9c-0.6,0-1.1,0-1.6,0.1
			c-0.5,0.1-1,0.2-1.3,0.4c-0.4,0.2-0.7,0.4-0.9,0.7s-0.3,0.6-0.3,1.1c0,0.6,0.2,1.1,0.7,1.4c0.5,0.4,1,0.6,1.8,0.6
			c0.6,0,1.2-0.1,1.9-0.3C1004.3,4.9,1004.9,4.7,1005.5,4.3z"/>
		<path class="st15" d="M1037-8.4l-5.7,16.9h-3.6l-3.4-10.1L1021,8.5h-3.6l-5.7-16.9h4.4l3.2,10.6l3.2-10.6h3.7l3.2,10.6l3.2-10.6
			H1037z"/>
		<path class="st15" d="M1056.3,0c0,0.3,0,0.6,0,0.8c0,0.3-0.1,0.6-0.1,0.9h-13.5c0.3,1,0.9,1.8,1.7,2.5c0.8,0.7,1.8,1,3.1,1
			c0.8,0,1.5-0.1,2.3-0.4c0.8-0.3,1.4-0.6,1.9-1.1l2.7,2.7c-1.2,0.9-2.3,1.5-3.4,1.9c-1.1,0.4-2.3,0.5-3.5,0.5
			c-1.3,0-2.4-0.2-3.5-0.7c-1.1-0.5-2.1-1.1-2.9-1.9c-0.8-0.8-1.4-1.7-1.9-2.8c-0.5-1.1-0.7-2.2-0.7-3.5s0.2-2.4,0.7-3.5
			c0.5-1.1,1.1-2,1.9-2.8c0.8-0.8,1.8-1.4,2.9-1.9c1.1-0.5,2.3-0.7,3.5-0.7c1.2,0,2.3,0.2,3.4,0.7c1.1,0.4,2.1,1,2.9,1.8
			c0.8,0.8,1.5,1.7,2,2.8S1056.3-1.3,1056.3,0z M1051.9-1.6c-0.3-1.1-0.9-1.9-1.8-2.6s-1.8-1-2.9-1c-1.1,0-2,0.3-2.8,1
			c-0.8,0.7-1.4,1.5-1.8,2.6H1051.9z"/>
		<path class="st15" d="M1071.4,3.8c0,0.9-0.2,1.6-0.6,2.2c-0.4,0.6-0.9,1.2-1.5,1.6c-0.6,0.4-1.3,0.8-2.1,1
			c-0.8,0.2-1.5,0.3-2.3,0.3c-1.3,0-2.5-0.2-3.6-0.7c-1.1-0.5-2-1.2-2.9-2.3l2.5-2.6c0.5,0.6,1.1,1.1,1.8,1.5
			c0.7,0.4,1.4,0.5,2.1,0.5c0.7,0,1.2-0.1,1.6-0.4c0.4-0.2,0.7-0.6,0.7-1.1c0-0.5-0.3-0.9-0.9-1.3c-0.6-0.3-1.5-0.7-2.6-1
			c-0.7-0.2-1.3-0.4-1.9-0.7c-0.6-0.3-1.2-0.7-1.7-1.1c-0.5-0.4-0.9-0.9-1.2-1.5c-0.3-0.6-0.4-1.2-0.4-2c0-0.8,0.2-1.6,0.6-2.2
			c0.4-0.7,0.9-1.2,1.5-1.6c0.6-0.4,1.3-0.8,2.1-1c0.8-0.2,1.6-0.4,2.4-0.4c2.6,0,4.7,1,6.3,2.9l-2.5,2.5c-0.5-0.6-1-1.1-1.7-1.4
			c-0.6-0.4-1.3-0.5-2-0.5c-0.3,0-0.5,0-0.8,0.1c-0.3,0.1-0.5,0.2-0.8,0.3c-0.2,0.1-0.4,0.3-0.6,0.5c-0.2,0.2-0.2,0.4-0.2,0.7
			c0,0.4,0.3,0.8,0.9,1.2c0.6,0.3,1.4,0.7,2.6,1c0.7,0.2,1.4,0.5,2,0.8c0.6,0.3,1.2,0.7,1.7,1.2c0.5,0.4,0.9,1,1.2,1.5
			C1071.2,2.5,1071.4,3.1,1071.4,3.8z"/>
		<path class="st15" d="M1091.4,0.1c0,1.3-0.2,2.4-0.7,3.5c-0.5,1.1-1.1,2-1.9,2.8c-0.8,0.8-1.8,1.4-2.9,1.9
			c-1.1,0.5-2.3,0.7-3.5,0.7c-1.2,0-2.4-0.2-3.5-0.7c-1.1-0.5-2-1.1-2.9-1.9c-0.8-0.8-1.5-1.7-1.9-2.8s-0.7-2.2-0.7-3.5
			c0-1.2,0.2-2.4,0.7-3.5c0.5-1.1,1.1-2,1.9-2.8c0.8-0.8,1.8-1.4,2.9-1.9c1.1-0.5,2.2-0.7,3.5-0.7c1.2,0,2.4,0.2,3.5,0.7
			c1.1,0.5,2.1,1.1,2.9,1.9c0.8,0.8,1.5,1.7,1.9,2.8C1091.1-2.3,1091.4-1.2,1091.4,0.1z M1087.2,0.1c0-0.7-0.1-1.4-0.4-2
			c-0.3-0.6-0.6-1.2-1-1.6c-0.4-0.5-0.9-0.8-1.5-1.1c-0.6-0.3-1.2-0.4-1.9-0.4c-0.7,0-1.3,0.1-1.9,0.4c-0.6,0.3-1.1,0.6-1.5,1.1
			c-0.4,0.5-0.8,1-1,1.6c-0.3,0.6-0.4,1.3-0.4,2c0,0.7,0.1,1.4,0.4,2c0.3,0.6,0.6,1.2,1,1.6c0.4,0.5,0.9,0.8,1.5,1.1
			c0.6,0.3,1.2,0.4,1.9,0.4c0.7,0,1.3-0.1,1.9-0.4c0.6-0.3,1.1-0.6,1.5-1.1c0.4-0.5,0.8-1,1-1.6C1087,1.5,1087.2,0.8,1087.2,0.1z"/>
		<path class="st15" d="M1119,8.5h-4.2V-1.6c0-1.2-0.3-2.1-0.9-2.7c-0.6-0.6-1.3-0.9-2.1-0.9c-0.6,0-1.3,0.1-1.8,0.3
			c-0.6,0.2-1.1,0.5-1.7,1c0.2,0.7,0.3,1.4,0.3,2.3V8.5h-4.2V-1.6c0-1.2-0.3-2.1-0.9-2.7c-0.6-0.6-1.3-0.9-2.1-0.9
			c-0.6,0-1.2,0.1-1.7,0.3c-0.5,0.2-1,0.6-1.5,1.1V8.5h-4.2V-8.4h4.2l0,1.3c0.5-0.5,1.1-0.9,1.9-1.2c0.7-0.3,1.4-0.5,2.2-0.5
			c0.8,0,1.6,0.2,2.5,0.6c0.8,0.4,1.6,0.9,2.2,1.6c0.9-0.8,1.8-1.3,2.7-1.7c0.9-0.3,1.9-0.5,3-0.5c0.9,0,1.7,0.1,2.5,0.4
			c0.8,0.3,1.5,0.7,2.1,1.3c0.6,0.6,1.1,1.3,1.4,2.2c0.4,0.9,0.5,2,0.5,3.2V8.5z"/>
		<path class="st15" d="M1139.6,0c0,0.3,0,0.6,0,0.8c0,0.3-0.1,0.6-0.1,0.9H1126c0.3,1,0.9,1.8,1.7,2.5c0.8,0.7,1.8,1,3.1,1
			c0.8,0,1.5-0.1,2.3-0.4c0.8-0.3,1.4-0.6,1.9-1.1l2.7,2.7c-1.2,0.9-2.3,1.5-3.4,1.9c-1.1,0.4-2.3,0.5-3.5,0.5
			c-1.3,0-2.4-0.2-3.5-0.7c-1.1-0.5-2.1-1.1-2.9-1.9c-0.8-0.8-1.4-1.7-1.9-2.8c-0.5-1.1-0.7-2.2-0.7-3.5s0.2-2.4,0.7-3.5
			c0.5-1.1,1.1-2,1.9-2.8c0.8-0.8,1.8-1.4,2.9-1.9c1.1-0.5,2.3-0.7,3.5-0.7c1.2,0,2.3,0.2,3.4,0.7c1.1,0.4,2.1,1,2.9,1.8
			c0.8,0.8,1.5,1.7,2,2.8S1139.6-1.3,1139.6,0z M1135.2-1.6c-0.3-1.1-0.9-1.9-1.8-2.6s-1.8-1-2.9-1c-1.1,0-2,0.3-2.8,1
			c-0.8,0.7-1.4,1.5-1.8,2.6H1135.2z"/>
		<path class="st15" d="M1147.3-14.8L1146,2h-2.6l-1.2-16.9H1147.3z M1146.9,8.5h-4.3V4.2h4.3V8.5z"/>
	</g>
	<g class="st0">
		<g>
			<linearGradient id="SVGID_15_" gradientUnits="userSpaceOnUse" x1="349.5352" y1="-33.2227" x2="542.5551" y2="-33.2227">
				<stop  offset="0" style="stop-color:#40D5E6"/>
				<stop  offset="1" style="stop-color:#5577FF"/>
			</linearGradient>
			<path class="st16" d="M354.8,31.1h173.7V-88.1c0-5.2-4.2-9.5-9.5-9.5H364.2c-5.2,0-9.5,4.2-9.5,9.5V31.1z"/>
		</g>
		<g>
			<linearGradient id="SVGID_16_" gradientUnits="userSpaceOnUse" x1="360.9182" y1="-41.7672" x2="522.0718" y2="-41.7672">
				<stop  offset="0" style="stop-color:#404B61"/>
				<stop  offset="0.486" style="stop-color:#3C4860"/>
				<stop  offset="1" style="stop-color:#2F3E5C"/>
			</linearGradient>
			<rect x="360.9" y="-91.3" class="st17" width="161.2" height="99"/>
		</g>
		<g>
			<path class="st15" d="M344-90.8h-41l0.1-0.4c0.7-3.4,3.6-5.8,7.1-5.8c0.5,0,1,0.1,1.5,0.2c2.1-4.1,6.3-6.6,10.9-6.6
				c3.9,0,7.6,1.9,9.9,5c0.8-0.3,1.7-0.4,2.6-0.4c4.5,0,8.2,3.2,8.9,7.6L344-90.8z M303.8-91.4h39.5c-0.8-3.9-4.2-6.7-8.2-6.7
				c-0.9,0-1.8,0.1-2.6,0.4l-0.2,0.1l-0.1-0.2c-2.2-3.1-5.8-5-9.6-5c-4.4,0-8.5,2.5-10.4,6.4l-0.1,0.2l-0.2-0.1
				c-0.5-0.1-1-0.2-1.6-0.2C307.1-96.4,304.5-94.3,303.8-91.4z"/>
		</g>
		<g>
			<path class="st15" d="M494.5-141.3l-0.1-0.1c-14.5-7.4-12.6-21.8-12.6-22l0-0.3h0.3c9.2,0,12.2-3,12.2-3l0.2-0.2l0.2,0.2
				c0,0,2.9,3,12.2,3h0.3l0,0.3c0,0.1,2,14.5-12.6,22L494.5-141.3z M482.4-162.9c-0.2,1.9-0.8,14.3,12.1,21
				c12.9-6.7,12.3-19,12.1-21c-8-0.1-11.3-2.3-12.1-3C493.7-165.2,490.4-163,482.4-162.9z"/>
		</g>
		<g>
			<g>
				<linearGradient id="SVGID_17_" gradientUnits="userSpaceOnUse" x1="573.5812" y1="17.7349" x2="615.0459" y2="17.7349">
					<stop  offset="0" style="stop-color:#3076A1"/>
					<stop  offset="1" style="stop-color:#639C38"/>
				</linearGradient>
				<path class="st18" d="M574.1,49.9c-2.2-10,2.5-12.5,7.1-14.9c3.7-2,7.3-3.8,7.1-9.7c-0.2-7.8,5.1-10.7,9.8-13.2
					c3.5-1.9,6.8-3.6,7.3-7.2c1.2-8.6,9.1-19.2,9.2-19.3l0.5,0.4c-0.1,0.1-7.9,10.6-9,19c-0.5,3.9-4,5.7-7.6,7.6
					c-4.8,2.5-9.7,5.2-9.5,12.6c0.2,6.3-3.7,8.3-7.4,10.3c-4.6,2.4-8.9,4.7-6.8,14.2L574.1,49.9z"/>
			</g>
			<g>
				<linearGradient id="SVGID_18_" gradientUnits="userSpaceOnUse" x1="569.9794" y1="11.69" x2="624.1171" y2="11.69">
					<stop  offset="0" style="stop-color:#3076A1"/>
					<stop  offset="1" style="stop-color:#639C38"/>
				</linearGradient>
				<path class="st19" d="M576.5,47.3c-0.1,0-0.2,0-0.3,0c-2-0.1-3.9-1.7-6.1-4.7l-0.1-0.2l0.2-0.2c0,0,3.5-4.3,2.3-12.3
					c-0.3-1.9-0.7-3.3-1-4.5c-0.5-1.7-0.8-2.8-0.3-3.7c0.7-1.1,2.4-1.7,7.5-2.9c5.4-1.3,7.1-7.3,8.7-12.6c1.5-5,2.9-9.7,7.1-9.6
					c3.8,0.1,9.6-5.9,14.8-11.1c4.8-4.9,9.3-9.5,12.1-9.4c0.7,0,1.3,0.3,1.7,0.9c2.6,3.1,0.2,7.7-2.1,12.2c-2,3.8-3.8,7.4-2.6,9.8
					c1.5,3,1.7,5.7,0.6,7.8c-1.3,2.5-4.4,4.1-9.1,4.8c-4.3,0.6-4.8,5.3-5.3,10.3c-0.6,5.8-1.2,12.4-8.5,13c-5.4,0.5-9,4.2-12.2,7.6
					C581.3,45,579.1,47.3,576.5,47.3z M570.7,42.4c2,2.8,3.8,4.2,5.5,4.3c2.4,0.2,4.6-2.1,7.1-4.7c3.3-3.4,7-7.3,12.6-7.7
					c6.7-0.6,7.3-6.6,7.9-12.5c0.5-5.2,1-10.2,5.8-10.9c4.5-0.7,7.4-2.2,8.6-4.5c1-1.9,0.8-4.5-0.6-7.3c-1.3-2.7,0.6-6.4,2.6-10.4
					c2.2-4.3,4.5-8.7,2.2-11.5c-0.3-0.4-0.8-0.6-1.3-0.6c-2.6-0.1-7,4.4-11.7,9.3c-5.4,5.6-11,11.3-15.1,11.3c-0.1,0-0.1,0-0.2,0
					c-3.7-0.1-5,4.2-6.5,9.2c-1.6,5.5-3.5,11.7-9.2,13.1c-4.5,1.1-6.5,1.7-7.1,2.6c-0.4,0.7-0.1,1.6,0.3,3.2c0.3,1.2,0.7,2.6,1,4.5
					C574.2,37.2,571.4,41.5,570.7,42.4z"/>
			</g>
			<g>
				<linearGradient id="SVGID_19_" gradientUnits="userSpaceOnUse" x1="557.5411" y1="3.4995" x2="592.4615" y2="3.4995">
					<stop  offset="0" style="stop-color:#3076A1"/>
					<stop  offset="1" style="stop-color:#639C38"/>
				</linearGradient>
				<path class="st20" d="M576.8,45.2c-0.1,0-0.1,0-0.2,0c-3.2-0.3-5.7-7.4-8.2-14.3c-1.1-3.3-2.2-6.3-3.3-8.3
					c-0.8-1.5-1.9-3.1-2.9-4.7c-2.7-4.1-5.4-8.4-4.5-12.1c0.5-2,1.9-3.6,4.3-5c5.3-3.1,4.5-4.8,2.7-8.6c-1.3-2.8-3.1-6.6-3.2-12.6
					c0-2.6-0.1-4.8-0.1-6.8c-0.2-6.3-0.3-9.5,1.1-10.6c0.6-0.5,1.3-0.6,2.5-0.4c1.9,0.4,2.7,1.9,3.6,3.5c1.1,2.1,2.4,4.5,6.2,5.3
					c3.6,0.8,7,1.8,8,4.2c0.7,1.7,0,3.9-1.9,6.7c-0.5,0.7-0.6,1.3-0.5,1.8c0.3,1.2,2.1,2,4.2,3c2.9,1.4,6.6,3.1,7.7,6.6
					c0.8,2.9-0.1,6.4-3,10.9c-6.7,10.6-6.4,17.8-6.2,24.1c0.2,4.7,0.3,9.1-2.5,14.1C579.3,44.2,578,45.2,576.8,45.2z M564-37.6
					c-0.5,0-0.8,0.1-1.1,0.3c-1.1,1-1,4.2-0.9,10.2c0.1,2,0.1,4.2,0.1,6.8c0.1,5.9,1.8,9.6,3.1,12.3c1.8,3.8,2.9,6-3,9.4
					c-2.3,1.3-3.6,2.8-4,4.6c-0.8,3.5,1.9,7.6,4.5,11.6c1,1.6,2.1,3.2,2.9,4.7c1.1,2,2.2,5.1,3.3,8.4c2.2,6.4,4.8,13.6,7.6,13.9
					c1.1,0.1,2.2-0.9,3.4-2.9c2.7-4.8,2.6-8.9,2.4-13.7c-0.2-6.4-0.5-13.7,6.3-24.4c2.7-4.3,3.7-7.7,2.9-10.4
					c-1-3.3-4.3-4.9-7.3-6.2c-2.2-1-4.1-1.9-4.5-3.3c-0.2-0.7,0-1.5,0.6-2.3c1.8-2.7,2.5-4.7,1.9-6.2c-0.8-2.1-4.3-3.1-7.6-3.8
					c-4.1-0.9-5.5-3.5-6.6-5.6c-0.8-1.6-1.6-2.9-3.2-3.2C564.5-37.6,564.3-37.6,564-37.6z"/>
			</g>
			<g>
				<linearGradient id="SVGID_20_" gradientUnits="userSpaceOnUse" x1="567.2471" y1="11.0507" x2="577.8346" y2="11.0507">
					<stop  offset="0" style="stop-color:#3076A1"/>
					<stop  offset="1" style="stop-color:#639C38"/>
				</linearGradient>
				<path class="st21" d="M576.8,49l-0.6-0.2c3.3-10.3-2.6-33.5-4.4-39.2c-0.9-2.8-0.1-7,0.7-11c1-5.2,2-10.6-0.6-12.6
					c-5-3.8-4.7-12.6-4.7-13l0.6,0c0,0.1-0.3,8.8,4.4,12.5c2.9,2.3,1.9,7.8,0.8,13.2c-0.8,4-1.5,8.1-0.7,10.7
					C574.6,16.5,580.1,38.7,576.8,49z"/>
			</g>
			<linearGradient id="SVGID_21_" gradientUnits="userSpaceOnUse" x1="543.2839" y1="13.1492" x2="577.4648" y2="13.1492">
				<stop  offset="0" style="stop-color:#3076A1"/>
				<stop  offset="1" style="stop-color:#639C38"/>
			</linearGradient>
			<path class="st22" d="M552.1-18.1c-1.4-3.5-6.7-2.9-6.2,2c0.5,4.9,3.9,10.1-1.3,18.4c-5.2,8.3,6.7,9.9,10.9,15.2
				c4.2,5.2,5.7,12.4,9.3,16.9c3.6,4.6,6,15.5,9,11.4c2.9-4.1,0.2-9.4,0.5-16.7c0.3-7.3,6.9-12,0.3-16.7
				c-6.5-4.7-13.1-6.2-10.9-16.8C564.6-9.2,556.3-7.4,552.1-18.1z"/>
			<g>
				<path class="st15" d="M578.5,46.7c0-0.2-3.7-21.7-11.8-27.6c-8.3-6-9.8-11.5-12.7-24.6l0.6-0.1c2.9,12.9,4.3,18.4,12.4,24.3
					c8.3,6,11.9,27.1,12,28L578.5,46.7z"/>
			</g>
			<linearGradient id="SVGID_22_" gradientUnits="userSpaceOnUse" x1="566.1705" y1="90.594" x2="594.9285" y2="-21.2428">
				<stop  offset="0" style="stop-color:#3076A1"/>
				<stop  offset="1" style="stop-color:#639C38"/>
			</linearGradient>
			<path class="st23" d="M571.2,45.9c0,0,2.4-6-2-14.4c-4.4-8.5-7.9-7.2,2.6-13.7c10.6-6.5,0.1-27.1,9.1-29.7
				c9-2.6,16.8-35.8,23.7-31.6c6.8,4.2-2.3,20.5,2.6,25.4c4.9,4.9,5.5,11.1-4.6,16.1c-10.1,5,7.2,24.3-6.5,30.1
				C582.4,34.1,586.3,57.1,571.2,45.9z"/>
			<g>
				<path class="st15" d="M575.4,52.2c0-0.1-1.5-7.7,3.2-17.6c4.7-10,7-21,6.1-29.4c-0.5-4.5,2.4-6.3,5.2-8c2.8-1.7,5.6-3.4,5.5-7.9
					c-0.1-4,1.6-13.5,1.6-13.9l0.6,0.1c0,0.1-1.8,9.8-1.6,13.7c0.2,4.8-2.8,6.7-5.7,8.4c-2.8,1.7-5.4,3.3-4.9,7.4
					c1,8.5-1.3,19.6-6.1,29.7c-4.6,9.7-3.1,17.1-3.1,17.2L575.4,52.2z"/>
			</g>
			<path class="st15" d="M586.4,10.1c3.1-2.9,7.1-3.3,6.3,1c-0.8,4.2-3.8,5.4-2.3,8.1c1.5,2.7,3.9,5.3-0.2,8.6
				c-4.1,3.3-6.4,3.6-7.6,9.8c-1.2,6.2-1,10.4-6.3,10.7c-5.3,0.3-3.3-7.5-1.6-11c0,0,2.5-4,0.8-9.3c-1.7-5.3-5-8.1,1.9-9.9
				C584.4,16.3,584.4,12.1,586.4,10.1z"/>
			<g>
				<linearGradient id="SVGID_23_" gradientUnits="userSpaceOnUse" x1="576.6238" y1="32.6205" x2="589.26" y2="32.6205">
					<stop  offset="0" style="stop-color:#3076A1"/>
					<stop  offset="1" style="stop-color:#639C38"/>
				</linearGradient>
				<path class="st24" d="M576.6,52.2c0-0.8-0.4-18.5,2.9-21.5c3.4-3.1,4-8.5,4.1-11.4c0.1-3.8,5.1-6.1,5.3-6.2l0.3,0.6
					c0,0-4.8,2.2-4.9,5.7c-0.1,3.7-1,8.8-4.3,11.8c-3.1,2.8-2.7,20.9-2.7,21.1L576.6,52.2z"/>
			</g>
			<linearGradient id="SVGID_24_" gradientUnits="userSpaceOnUse" x1="565.7731" y1="55.4035" x2="589.1345" y2="55.4035">
				<stop  offset="0" style="stop-color:#FF9340"/>
				<stop  offset="1" style="stop-color:#FFCE45"/>
			</linearGradient>
			<polygon class="st25" points="589.1,44.9 583.6,65.9 571.3,65.9 565.8,44.9 			"/>
			<linearGradient id="SVGID_25_" gradientUnits="userSpaceOnUse" x1="565.7731" y1="55.4035" x2="589.1345" y2="55.4035">
				<stop  offset="0" style="stop-color:#C97332"/>
				<stop  offset="1" style="stop-color:#FFCE45"/>
			</linearGradient>
			<path class="st26" d="M589.1,44.9c0,0-12.1,2.3-12.1,20.9h-5.7l-5.5-20.9H589.1z"/>
		</g>
		<g>
			<rect x="355.6" y="-9.8" class="st27" width="16.2" height="1.8"/>
		</g>
		<g>
			<polygon class="st15" points="352.2,-60.5 326.3,-60.5 326.3,-93.6 326.9,-93.6 326.9,-61.1 352.2,-61.1 			"/>
		</g>
		<g>
			<polygon class="st15" points="461.9,-82.3 461.2,-82.3 461.2,-116.5 494.2,-116.5 494.2,-145.2 494.8,-145.2 494.8,-115.9 
				461.9,-115.9 			"/>
		</g>
		<g>
			<polygon class="st15" points="568.4,-44.2 534.1,-44.2 534.1,-44.9 567.8,-44.9 567.8,-64.8 568.4,-64.8 			"/>
		</g>
		<g>
			<path class="st28" d="M311.9-16.6c0,0-0.7,10.3,1.3,11.5c1.3,0.8,6.3,3.4,6.1,3.9c-0.1,0.5-2.8,4.3-2.8,4.3s-9.7-6.4-10-8.4
				c-0.3-2,0.5-15.1,1.8-15.7c1-0.5,1.5-0.1,2.8,0.9C312.8-18.7,311.9-16.6,311.9-16.6z"/>
		</g>
		<g>
			<g>
				<g>
					<path class="st29" d="M310.7,58.5c0,0-0.3,2.1-0.3,2.4c0,0.3-3.3-0.2-3.3-0.2l-0.3-2.5C306.8,58.2,310.3,58.2,310.7,58.5z"/>
				</g>
			</g>
		</g>
		<g>
			<g>
				<g>
					<path class="st30" d="M310.4,60.6c0,0,1,1.3,2.1,1.8c1,0.5,2.6,0.8,3.2,1.3c0.4,0.4,1.6,2.2-2.6,2.1c-4.2,0-6.2,0.2-6.7-0.4
						c-0.5-0.7,0.7-5,0.7-5S308,60.8,310.4,60.6z"/>
				</g>
			</g>
		</g>
		<g>
			<g>
				<g>
					<path class="st29" d="M327.3,58.5c0,0-0.3,2.1-0.3,2.4c0,0.3-3.3-0.2-3.3-0.2l-0.3-2.5C323.3,58.2,326.9,58.2,327.3,58.5z"/>
				</g>
			</g>
		</g>
		<g>
			<g>
				<g>
					<path class="st30" d="M327,60.6c0,0,1,1.3,2.1,1.8c1,0.5,4.7,1,5.3,1.6c0.4,0.4,1.2,2.1-4.8,1.9c-4.2-0.1-6.2,0.2-6.7-0.4
						c-0.5-0.7,0.7-5,0.7-5S324.5,60.8,327,60.6z"/>
				</g>
			</g>
		</g>
		<g>
			<g>
				<g>
					<path class="st30" d="M311.9,4.9c0,0-3.1,4.9-2.9,9.4c0.2,4.5-0.3,9.2-0.7,13.9c-0.5,5.2-1.9,16-2,18.8
						c-0.1,2.8,0.1,13.2,0.1,13.2l5.4,0c0,0,1.9-21.1,2.8-23.3c0.9-2.2,4.7-18.1,4.9-19.8C319.7,15.2,311.9,4.9,311.9,4.9z"/>
				</g>
			</g>
		</g>
		<g>
			<g>
				<g>
					<path class="st30" d="M328.3,5.5c0,0,1.2,12.1,1.5,14.9c0.3,2.7,0.1,14.6,0.3,16.3c0.2,1.7-1,19.8-1.3,23.2l-5.9,0
						c0,0-0.4-14.6-0.4-21.7c0-7.1-1.8-15.4-3.9-20c-2.1-4.7-6.9-4.8-8.1-13.5C310.4,4.6,326.5,2.8,328.3,5.5z"/>
				</g>
			</g>
		</g>
		<g>
			<g>
				<g>
					<path class="st31" d="M315.2-36.7c0,0,3.7-2.5,6.3,0.2c2.6,2.6,3.9,8.9,2,10.1c-1.9,1.2-5,1.6-6.5-0.1
						c-1.5-1.7-3.1-4.3-3.5-6.1C313.1-34.6,314.3-36,315.2-36.7z"/>
				</g>
			</g>
		</g>
		<g>
			<g>
				<g>
					<path class="st31" d="M322.3-26c0,0,0,2.6,0.2,3.2c0.3,0.6-5.4,0.6-5.4,0.6s-0.5-3-1.3-5.6C314.9-30.4,322.3-26,322.3-26z"/>
				</g>
			</g>
		</g>
		<g>
			<g>
				<g>
					<path class="st32" d="M315.9-27.9c0,0,0.5,0.5,2-0.1c1.5-0.6,2.9-3.1,3.5-3.5c0.6-0.4,0.5-0.8,0.5-0.8l0.5,0.5l0.7-0.1
						c0,0-1.1-1.7-0.3-2.7c0.8-1-2.4-5.8-7-2.8c0,0-3.6,2-2.9,4.1C313.6-31.2,314.8-28.8,315.9-27.9z"/>
				</g>
			</g>
		</g>
		<g>
			<g>
				<g>
					<path class="st33" d="M322.8-22.9c0,0,0-1.1-0.5-1.2c-0.5-0.1-5.3-0.6-5.9-0.3v1.2C316.4-23.2,317.6-22.5,322.8-22.9z"/>
				</g>
			</g>
		</g>
		<g>
			<g>
				<g>
					<path class="st31" d="M321.7-33c-0.2-0.3-1.4-1.2-1.4,0c-0.1,1.2,1.2,2.5,1.6,2.3C322.3-31,322.1-32.2,321.7-33z"/>
				</g>
			</g>
		</g>
		<g>
			<g>
				<g>
					<path class="st32" d="M314.1-36.1c0,0-5.3,1.4,1.5,8L314.1-36.1z"/>
				</g>
			</g>
		</g>
		<g>
			<g>
				<path class="st31" d="M361.4-8L356-8c0.5-0.3,1.2-0.8,1.1-1c-0.2-0.3-1.8,0.4-2.4,0.4c-0.6,0.1-1.5,0-2.2,0.2l-1.7,0.7l1.6,1.4
					c0,0,2.8,0.4,3.6,0.5c1.3,0.1,5.5-1.5,5.5-1.7C361.6-7.9,361.4-8,361.4-8z"/>
			</g>
		</g>
		<g>
			<g>
				<g>
					<path class="st28" d="M329.9-21.5c-3.4-0.6-7-1.5-7-1.5l-6.4-0.3c0,0-5.9,1.3-8.2,2.3c-0.2,0.1-0.2,5.2-0.8,6.6l1.9,4
						c0,0,1.1,8,1.3,11.6c0.1,1.6-2.3,15.3-2.3,15.3s2.6,0.8,6.9,1.2c4.4,0.5,15.3-0.2,15.3-0.7c0.1-0.5-2.1-19.2-2.2-20.1
						c-0.1-1.5,0.4-8.3,0.4-8.3c0.8,1.1,5.6,5.2,7.9,6.6c1.6,0.9,5.7,0.4,6.9,0.2c2.6-0.3,9.7-0.8,9.8-1c0.1-0.2-0.4-2.8-0.7-2.8
						c-0.3-0.1-9.5-0.5-11.8-0.4c-0.9,0-4-3.4-4-3.4S331.8-20.6,329.9-21.5z"/>
				</g>
			</g>
		</g>
		<g>
			<polygon class="st34" points="290.6,-47.3 307.5,-47.3 307.5,-35.1 307.5,-32.5 304.9,-35.1 290.6,-35.1 			"/>
		</g>
		<g>
			<g>
				<g>
					<path class="st15" d="M562.5-86.2h-16.4v-16.4h16.4V-86.2z M546.7-86.8H562v-15.3h-15.3V-86.8z"/>
				</g>
				<g>
					<path class="st15" d="M603.3-96.6h-37.5v-4h37.5V-96.6z M566.3-97.2h36.5v-2.9h-36.5V-97.2z"/>
				</g>
				<g>
					<path class="st15" d="M603.3-78h-57.2v-4h57.2V-78z M546.7-78.5h56.1v-2.9h-56.1V-78.5z"/>
				</g>
				<g>
					<path class="st15" d="M582.6-70.3h-36.5v-4h36.5V-70.3z M546.7-70.8H582v-2.9h-35.4V-70.8z"/>
				</g>
				<g>
					<path class="st15" d="M591.2-89h-25.4v-4h25.4V-89z M566.3-89.5h24.3v-2.9h-24.3V-89.5z"/>
				</g>
			</g>
			<g>
				<path class="st15" d="M609.9-61.6h-70.3v-49.8h70.3V-61.6z M540.1-62.1h69.2v-48.7h-69.2V-62.1z"/>
			</g>
		</g>
		<g>
			<polygon class="st15" points="514.8,-133.7 509.6,-133.7 509.6,-134.3 514.2,-134.3 514.2,-138.9 514.8,-138.9 			"/>
		</g>
		<g>
			<polygon class="st15" points="479.5,-133.7 474.2,-133.7 474.2,-138.9 474.8,-138.9 474.8,-134.3 479.5,-134.3 			"/>
		</g>
		<g>
			<polygon class="st15" points="474.8,-169 474.2,-169 474.2,-174.3 479.5,-174.3 479.5,-173.7 474.8,-173.7 			"/>
		</g>
		<g>
			<polygon class="st15" points="514.8,-169 514.2,-169 514.2,-173.7 509.6,-173.7 509.6,-174.3 514.8,-174.3 			"/>
		</g>
		<g>
			<rect x="514.2" y="-161.2" class="st15" width="0.6" height="14.4"/>
		</g>
		<g>
			<rect x="474.2" y="-161.2" class="st15" width="0.6" height="14.4"/>
		</g>
		<g>
			<path class="st15" d="M326.6-93.3c-1.2,0-2.3-1-2.3-2.3c0-1.2,1-2.3,2.3-2.3c1.2,0,2.2,1,2.2,2.3
				C328.8-94.3,327.8-93.3,326.6-93.3z M326.6-97.2c-0.9,0-1.6,0.7-1.6,1.6c0,0.9,0.7,1.6,1.6,1.6c0.9,0,1.6-0.7,1.6-1.6
				C328.2-96.5,327.5-97.2,326.6-97.2z"/>
		</g>
		<g>
			<path class="st15" d="M494.5-144.9c-1.2,0-2.2-1-2.2-2.3c0-1.2,1-2.2,2.2-2.2c1.2,0,2.3,1,2.3,2.2
				C496.8-145.9,495.8-144.9,494.5-144.9z M494.5-148.8c-0.9,0-1.6,0.7-1.6,1.6c0,0.9,0.7,1.6,1.6,1.6c0.9,0,1.6-0.7,1.6-1.6
				C496.2-148.1,495.4-148.8,494.5-148.8z"/>
		</g>
		<g>
			<path class="st15" d="M568.1-64.4c-1.2,0-2.3-1-2.3-2.3c0-1.2,1-2.3,2.3-2.3c1.2,0,2.2,1,2.2,2.3
				C570.3-65.4,569.3-64.4,568.1-64.4z M568.1-68.3c-0.9,0-1.6,0.7-1.6,1.6s0.7,1.6,1.6,1.6s1.6-0.7,1.6-1.6S569-68.3,568.1-68.3z"
				/>
		</g>
		<g>
			<path class="st15" d="M341.5-155.8H326v-15.4h15.4V-155.8z M326.7-156.4h14.2v-14.2h-14.2V-156.4z"/>
		</g>
		<g>
			<rect x="333.5" y="-167" class="st15" width="0.6" height="7.2"/>
		</g>
		<g>
			<rect x="330.2" y="-163.7" class="st15" width="7.2" height="0.6"/>
		</g>
		<g>
			<path class="st15" d="M576.9-137.2h-22.1v-15.8h22.1V-137.2z M555.4-137.8h20.9v-14.5h-20.9V-137.8z"/>
		</g>
		<g>
			<polygon class="st15" points="565.8,-143.4 554.9,-152.4 555.3,-152.9 565.8,-144.2 576.4,-152.9 576.8,-152.4 			"/>
		</g>
		<g>
			
				<rect x="566.9" y="-142" transform="matrix(0.6882 0.7255 -0.7255 0.6882 75.7778 -459.6232)" class="st15" width="11.5" height="0.6"/>
		</g>
		<g>
			
				<rect x="558.8" y="-147.4" transform="matrix(0.726 0.6877 -0.6877 0.726 55.7588 -423.2587)" class="st15" width="0.6" height="11.5"/>
		</g>
		<g>
			<path class="st15" d="M380-121.3l-0.2-0.6c-0.2,0-0.4-0.1-0.6-0.1l-0.5,0.4l-1.4-1l0.3-0.6c-0.1-0.2-0.2-0.3-0.3-0.5l-0.6,0
				l-0.3-1.6l0.6-0.2c0-0.2,0.1-0.4,0.1-0.6l-0.4-0.5l1-1.4l0.6,0.3c0.2-0.1,0.3-0.2,0.5-0.3l0-0.6l1.6-0.3l0.2,0.6
				c0.2,0,0.4,0.1,0.6,0.1l0.5-0.4l1.4,1l-0.3,0.6c0.1,0.2,0.2,0.3,0.3,0.5l0.6,0l0.3,1.6l-0.6,0.2c0,0.2-0.1,0.4-0.1,0.6l0.4,0.5
				l-1,1.4l-0.6-0.3c-0.2,0.1-0.3,0.2-0.5,0.3l0,0.6L380-121.3z M379.1-122.6l0.1,0.1c0.2,0.1,0.5,0.2,0.8,0.2l0.1,0l0.2,0.5
				l0.9-0.2l0-0.6l0.1-0.1c0.2-0.1,0.5-0.2,0.7-0.4l0.1-0.1l0.5,0.2l0.5-0.7l-0.4-0.4l0.1-0.1c0.1-0.2,0.2-0.5,0.2-0.8l0-0.1
				l0.5-0.2l-0.2-0.9l-0.6,0l-0.1-0.1c-0.1-0.2-0.2-0.5-0.4-0.7l-0.1-0.1l0.2-0.5l-0.7-0.5l-0.4,0.4l-0.1-0.1
				c-0.2-0.1-0.5-0.2-0.8-0.2l-0.1,0l-0.2-0.5l-0.9,0.2l0,0.6l-0.1,0.1c-0.2,0.1-0.5,0.2-0.7,0.4l-0.1,0.1l-0.5-0.2l-0.5,0.7
				l0.4,0.4l-0.1,0.1c-0.1,0.2-0.2,0.5-0.2,0.8l0,0.1l-0.5,0.2l0.2,0.9l0.6,0l0.1,0.1c0.1,0.2,0.2,0.5,0.4,0.7l0.1,0.1l-0.2,0.5
				l0.7,0.5L379.1-122.6z M380.2-123.4c-0.4,0-0.7-0.1-1-0.3c-0.8-0.6-1-1.7-0.4-2.5c0.6-0.8,1.7-1,2.5-0.4c0.4,0.3,0.7,0.7,0.7,1.2
				c0.1,0.5,0,1-0.3,1.4c-0.3,0.4-0.7,0.7-1.2,0.7C380.4-123.4,380.3-123.4,380.2-123.4z M380.2-126.5c-0.4,0-0.8,0.2-1.1,0.6
				c-0.2,0.3-0.3,0.7-0.2,1c0.1,0.4,0.3,0.7,0.6,0.9l0,0c0.3,0.2,0.7,0.3,1,0.2c0.4-0.1,0.7-0.3,0.9-0.6c0.2-0.3,0.3-0.7,0.2-1
				c-0.1-0.4-0.3-0.7-0.6-0.9C380.8-126.5,380.5-126.5,380.2-126.5z"/>
		</g>
		<g>
			<path class="st15" d="M367.3-119.4l-0.5-1.3c-0.6-0.1-1.1-0.2-1.6-0.4l-1,1l-2.8-2l0.6-1.3c-0.3-0.4-0.6-0.9-0.9-1.4l-1.4,0
				l-0.6-3.4l1.3-0.5c0.1-0.6,0.2-1.1,0.4-1.6l-1-1l2-2.8l1.3,0.6c0.4-0.3,0.9-0.6,1.4-0.9l0-1.4l3.4-0.6l0.5,1.3
				c0.5,0.1,1.1,0.2,1.6,0.4l1-1l2.8,2l-0.6,1.3c0.3,0.4,0.6,0.9,0.9,1.4l1.4,0l0.6,3.4l-1.3,0.5c-0.1,0.6-0.2,1.1-0.4,1.6l1,1
				l-2,2.8l-1.3-0.6c-0.4,0.3-0.9,0.6-1.4,0.9l0,1.4L367.3-119.4z M365-121.8l0.2,0.1c0.6,0.2,1.2,0.4,1.8,0.4l0.2,0l0.5,1.2
				l2.4-0.4l0-1.3l0.2-0.1c0.6-0.3,1.1-0.6,1.6-1l0.1-0.1l1.2,0.5l1.4-2l-0.9-1l0.1-0.2c0.2-0.6,0.4-1.2,0.4-1.8l0-0.2l1.2-0.5
				l-0.4-2.4l-1.3,0l-0.1-0.2c-0.3-0.6-0.6-1.1-1-1.6l-0.1-0.1l0.5-1.2l-2-1.4l-1,0.9l-0.2-0.1c-0.6-0.2-1.2-0.4-1.8-0.4l-0.2,0
				l-0.5-1.2l-2.4,0.4l0,1.3l-0.2,0.1c-0.6,0.3-1.1,0.6-1.6,1l-0.1,0.1l-1.2-0.5l-1.4,2l0.9,1l-0.1,0.2c-0.2,0.6-0.4,1.2-0.4,1.8
				l0,0.2l-1.2,0.5l0.4,2.4l1.3,0l0.1,0.2c0.3,0.6,0.6,1.1,1,1.6l0.1,0.1l-0.5,1.2l2,1.4L365-121.8z M367.6-124.1
				c-0.8,0-1.6-0.2-2.3-0.7c-1.8-1.3-2.2-3.7-0.9-5.5c1.3-1.8,3.7-2.2,5.5-0.9c1.8,1.3,2.2,3.7,0.9,5.5
				C370.1-124.7,368.8-124.1,367.6-124.1z M367.6-131.4c-1,0-2.1,0.5-2.7,1.4c-0.5,0.7-0.7,1.6-0.6,2.5c0.1,0.9,0.6,1.7,1.4,2.2
				c1.5,1.1,3.6,0.7,4.7-0.8c0.5-0.7,0.7-1.6,0.6-2.5c-0.1-0.9-0.6-1.7-1.4-2.2C368.9-131.2,368.3-131.4,367.6-131.4z"/>
		</g>
		<g>
			<g>
				<g>
					<path class="st15" d="M287.1-116.2c-6.3,0-11.4-5.1-11.4-11.4h0.6c0,6,4.9,10.8,10.8,10.8c6,0,10.8-4.9,10.8-10.8
						c0-6-4.9-10.8-10.8-10.8v-0.6c6.3,0,11.4,5.1,11.4,11.4C298.5-121.3,293.4-116.2,287.1-116.2z M287.1-117.8
						c-5.4,0-9.8-4.4-9.8-9.8c0-5.4,4.4-9.8,9.8-9.8c5.4,0,9.8,4.4,9.8,9.8h-0.6c0-5.1-4.1-9.2-9.2-9.2c-5.1,0-9.2,4.1-9.2,9.2
						c0,5.1,4.1,9.2,9.2,9.2V-117.8z"/>
				</g>
			</g>
		</g>
		<g>
			<polygon class="st15" points="285.7,-123.8 281.6,-128 282,-128.4 285.7,-124.7 292.2,-131.2 292.6,-130.8 			"/>
		</g>
		<linearGradient id="SVGID_26_" gradientUnits="userSpaceOnUse" x1="441.6754" y1="5.6761" x2="441.6754" y2="112.6983">
			<stop  offset="0" style="stop-color:#40D5E6"/>
			<stop  offset="1" style="stop-color:#5577FF"/>
		</linearGradient>
		<polygon class="st35" points="528.5,12.5 441.7,12.5 354.8,12.5 335.8,83.6 442.2,83.6 547.5,83.6 		"/>
		<path class="st15" d="M361.4,25h10.7c0.4,0,0.8,0.3,0.7,0.7l-1,4.6c-0.1,0.3-0.4,0.5-0.7,0.5h-10.9c-0.5,0-0.8-0.4-0.7-0.7
			l1.2-4.6C360.8,25.2,361.1,25,361.4,25z"/>
		<polygon class="st15" points="377,25 385,25 384,30.9 375.7,30.9 		"/>
		<polygon class="st15" points="389.1,25 397.1,25 396.3,30.9 388.1,30.9 		"/>
		<polygon class="st15" points="401.2,25 409.2,25 408.6,30.9 400.4,30.9 		"/>
		<polygon class="st15" points="413.3,25 421.3,25 421,30.9 412.7,30.9 		"/>
		<polygon class="st15" points="425.4,25 433.4,25 433.3,30.9 425.1,30.9 		"/>
		<polygon class="st15" points="522.2,25 510.1,25 511.4,30.9 523.7,30.9 		"/>
		<polygon class="st15" points="506.1,25 498,25 499.1,30.9 507.3,30.9 		"/>
		<polygon class="st15" points="494,25 485.9,25 486.7,30.9 495,30.9 		"/>
		<polygon class="st15" points="481.9,25 473.8,25 474.4,30.9 482.6,30.9 		"/>
		<polygon class="st15" points="469.8,25 461.7,25 462.1,30.9 470.3,30.9 		"/>
		<polygon class="st15" points="457.7,25 449.6,25 449.8,30.9 458,30.9 		"/>
		<polygon class="st15" points="437.5,25 445.5,25 445.7,30.9 437.5,30.9 		"/>
		<polygon class="st15" points="357.9,35.2 374.7,35.2 373.8,41.3 356.6,41.3 		"/>
		<polygon class="st15" points="524.8,35.2 504,35.2 505.2,41.3 526.4,41.3 		"/>
		<polygon class="st15" points="499.8,35.2 491.5,35.2 492.4,41.3 500.9,41.3 		"/>
		<polygon class="st15" points="487.3,35.2 479,35.2 479.7,41.3 488.2,41.3 		"/>
		<polygon class="st15" points="474.8,35.2 466.5,35.2 467,41.3 475.5,41.3 		"/>
		<polygon class="st15" points="462.3,35.2 454,35.2 454.2,41.3 462.7,41.3 		"/>
		<polygon class="st15" points="355.3,46 372.6,46 371.3,52 353.8,52 		"/>
		<polygon class="st15" points="376.9,46 385.5,46 384.5,52 375.7,52 		"/>
		<polygon class="st15" points="389.8,46 398.4,46 454.4,46 454.7,52 388.9,52 		"/>
		<polygon class="st15" points="458.7,46 467.4,46 467.8,52 459.1,52 		"/>
		<polygon class="st15" points="471.7,46 480.3,46 481,52 472.2,52 		"/>
		<polygon class="st15" points="484.6,46 493.2,46 494.1,52 485.4,52 		"/>
		<polygon class="st15" points="497.5,46 506.1,46 507.3,52 498.5,52 		"/>
		<polygon class="st15" points="510.4,46 527.7,46 529.2,52 511.7,52 		"/>
		<polygon class="st15" points="449.8,35.2 441.6,35.2 441.6,41.3 450,41.3 		"/>
		<polygon class="st15" points="437.3,35.2 429,35.2 428.8,41.3 437.3,41.3 		"/>
		<polygon class="st15" points="424.8,35.2 416.5,35.2 416,41.3 424.5,41.3 		"/>
		<polygon class="st15" points="412.3,35.2 404,35.2 403.3,41.3 411.8,41.3 		"/>
		<polygon class="st15" points="399.8,35.2 391.5,35.2 390.5,41.3 399,41.3 		"/>
		<polygon class="st15" points="387.3,35.2 379,35.2 377.8,41.3 386.3,41.3 		"/>
		<polygon class="st15" points="361.8,21.3 363.2,16.1 367.1,16.1 365.8,21.3 		"/>
		<polygon class="st15" points="371,16.1 378.8,16.1 377.7,21.3 369.8,21.3 		"/>
		<polygon class="st15" points="382.8,16.1 390.6,16.1 389.7,21.3 381.7,21.3 		"/>
		<polygon class="st15" points="394.5,16.1 402.3,16.1 401.7,21.3 393.7,21.3 		"/>
		<polygon class="st15" points="406.3,16.1 414.1,16.1 413.6,21.3 405.6,21.3 		"/>
		<polygon class="st15" points="418,16.1 425.8,16.1 425.6,21.3 417.6,21.3 		"/>
		<polygon class="st15" points="429.8,16.1 437.6,16.1 437.5,21.3 429.6,21.3 		"/>
		<polygon class="st15" points="441.5,16.1 449.3,16.1 449.5,21.3 441.5,21.3 		"/>
		<polygon class="st15" points="453.3,16.1 461.1,16.1 461.4,21.3 453.5,21.3 		"/>
		<polygon class="st15" points="465,16.1 472.8,16.1 473.4,21.3 465.4,21.3 		"/>
		<polygon class="st15" points="476.8,16.1 484.6,16.1 485.3,21.3 477.4,21.3 		"/>
		<polygon class="st15" points="488.5,16.1 496.3,16.1 497.3,21.3 489.3,21.3 		"/>
		<polygon class="st15" points="500.3,16.1 508.1,16.1 509.3,21.3 501.3,21.3 		"/>
		<polygon class="st15" points="512,16.1 519.8,16.1 521.2,21.3 513.2,21.3 		"/>
		<linearGradient id="SVGID_27_" gradientUnits="userSpaceOnUse" x1="237.717" y1="86.3461" x2="449.4052" y2="86.3461">
			<stop  offset="0" style="stop-color:#40D5E6"/>
			<stop  offset="1" style="stop-color:#5577FF"/>
		</linearGradient>
		<path class="st36" d="M542,89.1H341.4c-3.1,0-5.5-2.5-5.5-5.5l0,0h211.7l0,0C547.5,86.6,545,89.1,542,89.1z"/>
		<path class="st37" d="M466.3,60.6c-0.2-1.3-1.3-2.2-2.6-2.2h-22.1h-22.1c-1.3,0-2.3,0.9-2.6,2.2l-2.8,16.7c-0.3,1.6,1,3,2.6,3
			h24.8h24.8c1.6,0,2.8-1.4,2.6-3L466.3,60.6z"/>
		<g>
			<g>
				<rect x="371.8" y="-82.9" class="st38" width="18" height="1.8"/>
			</g>
			<g>
				<rect x="394.8" y="-69" class="st38" width="13" height="1.8"/>
			</g>
			<g>
				<rect x="409.8" y="-69" class="st27" width="8.6" height="1.8"/>
			</g>
			<g>
				<rect x="372" y="-34.2" class="st27" width="8.6" height="1.8"/>
			</g>
			<g>
				<rect x="420.1" y="-69" class="st38" width="20.8" height="1.8"/>
			</g>
			<g>
				<rect x="372" y="-41.2" class="st38" width="13.3" height="1.8"/>
			</g>
			<g>
				<rect x="390.6" y="-27.3" class="st38" width="8.1" height="1.8"/>
			</g>
			<g>
				<rect x="372" y="-27.3" class="st27" width="16.1" height="1.8"/>
			</g>
			<g>
				<rect x="372" y="-20.4" class="st38" width="8.9" height="1.8"/>
			</g>
			<g>
				<rect x="393.2" y="-82.9" class="st15" width="12.7" height="1.8"/>
			</g>
			<g>
				<rect x="393.2" y="-62.1" class="st27" width="12.7" height="1.8"/>
			</g>
			<g>
				<rect x="386.9" y="-55.2" class="st38" width="5.4" height="1.8"/>
			</g>
			<g>
				<rect x="381.4" y="-48.2" class="st15" width="12.2" height="1.8"/>
			</g>
			<g>
				<rect x="395.5" y="-48.2" class="st27" width="16.9" height="1.8"/>
			</g>
			<g>
				<rect x="372" y="-55.1" class="st27" width="12.7" height="1.8"/>
			</g>
			<g>
				<rect x="372" y="-48.2" class="st27" width="7.6" height="1.8"/>
			</g>
			<g>
				<rect x="394.9" y="-55.1" class="st39" width="7.1" height="1.8"/>
			</g>
			<g>
				<rect x="372.2" y="-13.5" class="st39" width="7.1" height="1.8"/>
			</g>
			<g>
				<rect x="372" y="-69" class="st15" width="12.7" height="1.8"/>
			</g>
			<g>
				<rect x="383.2" y="-34.2" class="st15" width="12.7" height="1.8"/>
			</g>
			<g>
				<rect x="383.4" y="-20.4" class="st15" width="12.7" height="1.8"/>
			</g>
			<g>
				<rect x="406" y="-20.4" class="st15" width="12.7" height="1.8"/>
			</g>
			<g>
				<rect x="372" y="-62.1" class="st15" width="18.2" height="1.8"/>
			</g>
			<g>
				<rect x="457.1" y="-82.9" class="st15" width="12.7" height="1.8"/>
			</g>
			<g>
				<rect x="411.7" y="-13.5" class="st15" width="12.7" height="1.8"/>
			</g>
			<g>
				<rect x="473.8" y="-82.9" class="st15" width="8.5" height="1.8"/>
			</g>
			<g>
				<rect x="502.7" y="-75.9" class="st15" width="8.5" height="1.8"/>
			</g>
			<g>
				<rect x="409.4" y="-82.9" class="st27" width="16.2" height="1.8"/>
			</g>
			<g>
				<rect x="472.7" y="-75.9" class="st27" width="16.2" height="1.8"/>
			</g>
			<g>
				<rect x="452.8" y="-69" class="st27" width="16.2" height="1.8"/>
			</g>
			<g>
				<rect x="431.6" y="-62.1" class="st27" width="16.2" height="1.8"/>
			</g>
			<g>
				<rect x="471.1" y="-69" class="st15" width="11.5" height="1.8"/>
			</g>
			<g>
				<rect x="437.7" y="-82.9" class="st39" width="16.2" height="1.8"/>
			</g>
			<g>
				<rect x="419.1" y="-62.1" class="st39" width="9.5" height="1.8"/>
			</g>
			<g>
				<rect x="411.7" y="-34.1" class="st39" width="9.5" height="1.8"/>
			</g>
			<g>
				<rect x="428.7" y="-82.9" class="st38" width="5.9" height="1.8"/>
			</g>
			<g>
				<rect x="409.4" y="-62.1" class="st38" width="5.9" height="1.8"/>
			</g>
			<g>
				<rect x="492.8" y="-75.9" class="st38" width="5.9" height="1.8"/>
			</g>
			<g>
				<rect x="371.8" y="-75.9" class="st27" width="9.3" height="1.8"/>
			</g>
			<g>
				<rect x="396.6" y="-41.1" class="st27" width="7.3" height="1.8"/>
			</g>
			<g>
				<rect x="383.4" y="-75.9" class="st27" width="3" height="1.8"/>
			</g>
			<g>
				<rect x="445" y="-75.9" class="st38" width="24.8" height="1.8"/>
			</g>
			<g>
				<rect x="421.2" y="-20.4" class="st38" width="24.8" height="1.8"/>
			</g>
			<g>
				<rect x="388.6" y="-75.9" class="st39" width="3.1" height="1.8"/>
			</g>
			<g>
				<rect x="434.6" y="-75.9" class="st27" width="8.1" height="1.8"/>
			</g>
			<g>
				<rect x="442.7" y="-69" class="st39" width="8.1" height="1.8"/>
			</g>
			<g>
				<rect x="401" y="-13.5" class="st39" width="8.1" height="1.8"/>
			</g>
			<g>
				<rect x="415.2" y="-75.9" class="st27" width="17.3" height="1.8"/>
			</g>
			<g>
				<rect x="399.1" y="-34.1" class="st27" width="10.1" height="1.8"/>
			</g>
			<g>
				<rect x="398.5" y="-20.4" class="st27" width="5" height="1.8"/>
			</g>
			<g>
				<rect x="406.8" y="-75.9" class="st15" width="5.9" height="1.8"/>
			</g>
			<g>
				<rect x="386.8" y="-69" class="st39" width="5.9" height="1.8"/>
			</g>
			<g>
				<rect x="388" y="-41.1" class="st39" width="5.9" height="1.8"/>
			</g>
			<g>
				<rect x="394.2" y="-75.9" class="st27" width="10.4" height="1.8"/>
			</g>
		</g>
		<g class="st40">
			<path class="st15" d="M544.4-2.6h-72.2c-2.2,0-4-1.8-4-4v-49.2c0-2.2,1.8-4,4-4h72.2c2.2,0,4,1.8,4,4v49.2
				C548.4-4.4,546.6-2.6,544.4-2.6z"/>
		</g>
		<g>
			<g>
				<path class="st41" d="M539.2-26.4h-11.8c-0.9,0-1.5-0.7-1.5-1.5v-0.9c0-0.9,0.7-1.5,1.5-1.5h11.8c0.9,0,1.5,0.7,1.5,1.5v0.9
					C540.7-27.1,540-26.4,539.2-26.4z"/>
			</g>
		</g>
		<g>
			<g>
				<path class="st41" d="M539.2-18.9h-11.8c-0.8,0-1.5-0.7-1.5-1.5v-0.9c0-0.9,0.7-1.5,1.5-1.5h11.8c0.9,0,1.5,0.7,1.5,1.5v0.9
					C540.7-19.6,540-18.9,539.2-18.9z"/>
			</g>
		</g>
		<g>
			<g>
				<path class="st41" d="M539.2-11.5h-11.8c-0.9,0-1.5-0.7-1.5-1.5v-0.9c0-0.9,0.7-1.5,1.5-1.5h11.8c0.9,0,1.5,0.7,1.5,1.5v0.9
					C540.7-12.2,540-11.5,539.2-11.5z"/>
			</g>
		</g>
		<g>
			<g>
				<g>
					<path class="st41" d="M518.6-39.2c-3.3-9.3-12.2-15-21.5-14.7c-2.3,0.1-4.6,0.5-6.8,1.3c-6.8,2.4-11.7,7.9-13.7,14.3
						c-1.4,4.4-1.4,9.3,0.3,14.1c0.2,0.5,0.3,0.9,0.5,1.4c0.9,2,2.1,3.9,3.4,5.5c5.8,6.8,15.4,9.7,24.3,6.5
						C516.7-15,522.7-27.7,518.6-39.2z M503.3-16.1c-6.7,2.4-13.9,0.2-18.2-4.9c-1-1.2-1.9-2.6-2.6-4.1c-0.1-0.3-0.3-0.7-0.4-1
						c-1.3-3.5-1.3-7.2-0.2-10.5c1.5-4.8,5.2-8.9,10.3-10.7c1.7-0.6,3.4-0.9,5.1-1c7-0.2,13.6,4.1,16.1,11
						C516.4-28.7,511.9-19.2,503.3-16.1z"/>
				</g>
			</g>
			<g>
				<g>
					<path class="st42" d="M481.9-36.7l-5.3-1.7c2-6.4,6.9-11.8,13.7-14.3c2.2-0.8,4.5-1.2,6.8-1.3l0.2,5.5c-1.7,0.1-3.4,0.4-5.1,1
						C487-45.6,483.4-41.5,481.9-36.7z"/>
				</g>
			</g>
			<g>
				<g>
					<path class="st43" d="M482.5-25.1l-5.1,2.2c-0.2-0.5-0.4-0.9-0.5-1.4c-1.7-4.7-1.7-9.6-0.3-14.1l5.3,1.7c-1,3.3-1,7,0.2,10.5
						C482.2-25.8,482.3-25.5,482.5-25.1z"/>
				</g>
			</g>
			<g>
				<g>
					<path class="st44" d="M480.8-17.4c-1.4-1.6-2.5-3.5-3.4-5.5l5.1-2.2c0.7,1.5,1.5,2.9,2.6,4.1L480.8-17.4z"/>
				</g>
			</g>
		</g>
		<g>
			<g>
				<g>
					<path class="st31" d="M505.1-18.6c0,0-1.1-1.9,0.6-6.9c1.6-4.9,7.3-4.4,9.2-1.3c1.8,3.1,1.2,5.1-1.5,8.6
						C510.8-14.8,506.2-17,505.1-18.6z"/>
				</g>
			</g>
			<g>
				<g>
					<path class="st31" d="M518.3,68c0,0,0.3,2.1,0.3,2.4c0,0.3,3.1-0.2,3.1-0.2l0.3-2.5C522,67.7,518.7,67.7,518.3,68z"/>
				</g>
			</g>
			<g>
				<g>
					<path class="st45" d="M518.6,70.1c0,0-1,1.2-1.9,1.8c-0.9,0.5-2.4,0.8-3,1.3c-0.4,0.4-1.5,2.2,2.5,2.1c3.9,0,5.8,0.2,6.3-0.4
						c0.4-0.7-0.6-4.9-0.6-4.9S520.9,70.2,518.6,70.1z"/>
				</g>
			</g>
			<g>
				<g>
					<path class="st31" d="M496.9,68c0,0,0.3,2.1,0.3,2.4c0,0.3,3.1-0.2,3.1-0.2l0.3-2.5C500.6,67.7,497.3,67.7,496.9,68z"/>
				</g>
			</g>
			<g>
				<g>
					<path class="st45" d="M497.2,70.1c0,0-1,1.2-1.9,1.8c-0.9,0.5-4.4,1-5,1.6c-0.4,0.4-1.1,2,4.5,1.9c3.9-0.1,5.8,0.2,6.3-0.4
						c0.4-0.7-0.6-4.9-0.6-4.9S499.1,70.1,497.2,70.1z"/>
				</g>
			</g>
			<g>
				<g>
					<path class="st46" d="M517.3,16.5c0,0,1.6,4.9,1.4,9.2c-0.2,4.3,0.8,8.9,1.2,13.4c0.5,5,2.4,16.7,2.5,19.3
						c0.1,2.7-0.3,11.1-0.3,11.1l-3.9,0.1c0,0-3.2-20.5-4.1-22.6c-0.8-2.1-5-17-5.1-18.7S517.3,16.5,517.3,16.5z"/>
				</g>
			</g>
			<g>
				<g>
					<path class="st46" d="M501.3,16c0,0-2.3,13.1-2.6,15.7c-0.3,2.6-0.5,12.6-0.6,14.2c-0.1,1.6-0.9,21.3-1.7,23.7h4.3
						c0,0,4.4-14.3,4.4-21.1s2.9-14.7,4.8-19.2c1.9-4.5,6.2-4.6,7.4-12.9C517.3,16.5,502.9,13.4,501.3,16z"/>
				</g>
			</g>
			<g>
				<g>
					<path class="st31" d="M506.7-17.3c0,0,0.5,1.4,0,2.4c-0.5,1,6.2,0.4,6.2,0.4s-0.3-2.1,0.6-3.8C514.3-20,506.7-17.3,506.7-17.3z
						"/>
				</g>
			</g>
			<g>
				<g>
					<path class="st47" d="M517.6,17.6c0,0-2.4,2.5-16.5-0.4l0.2-1.2l16,0.6L517.6,17.6z"/>
				</g>
			</g>
			<g>
				<g>
					<path class="st31" d="M505.7-14.6c0,0-2.5,0.3-3.2,0.4c-0.7,0.1-5.4-0.8-6.4-0.9c-1-0.1-5.1-2.9-5.3-3.3
						c-0.1-0.3-2.5-6.4-2.7-7.7c-0.1-1.3-2.3-0.6-2.1,0.3c0.4,1.7,0.8,5.8,1.1,7c0.3,1.3,1,4.2,1.4,4.5c0.4,0.4,4.1,3.2,7.8,4.4
						c3.7,1.2,6.4,3,6.4,3h18c0,0,7-10,7.2-11.5c0.2-1.5-4.9-11.5-5.9-12.8c-1-1.3-2.5,0.4-2.5,0.4s3,8.8,3.4,10.1
						c0.4,1.3-3.5,6.8-4.6,6.8c-1.1,0-3.8-0.3-5.1-0.4c-1.2-0.1-2.5-0.6-2.5-0.6L505.7-14.6z"/>
				</g>
			</g>
			<g>
				<g>
					<path class="st48" d="M497.9-7.9c0,0,2.2,1.5,2.4,4c0.2,2.5,1,6.5,1.4,7.8c0.4,1.4-0.4,11.2-0.5,11.9
						c-0.1,0.7,13.9,2.4,16.1,0.7c0,0,0.6-9.2,0.9-11.8s1.5-9,1.9-9.8c0.4-0.9,5.3-7.7,5.5-8.6c0,0-2.5-4-4.3-4.1
						c0,0-2.9,3.4-3.8,3.5c-0.9,0.2-6.7-0.9-6.7-0.9c0,0-0.6,0.9-4-0.2c0,0-4,0.4-4.6,0.5c-0.8,0.1-6.2-0.7-6.2-0.7
						s-2.2,3.7-1.8,5.5L497.9-7.9z"/>
				</g>
			</g>
			<g>
				<g>
					<path class="st31" d="M488.3-25.3c0,0-0.5-2.3,0.1-3c0.3-0.4,1.1-1.4,1.2-1.5c0.1-0.1,0.9-0.6,0.9-0.9c0-0.2-0.9-0.5-1.6,0.1
						c-0.7,0.7-1.2,0.8-1.5,0.8c-0.3-0.1-0.7-2.5-0.8-3.1c0-0.6-0.3-2.2-0.7-2.1c-0.4,0.1-0.4,0.8-0.4,0.8s-0.4-1.2-0.7-1
						c-0.3,0.2-0.3,0.8-0.3,0.8s-0.6-0.7-0.7-0.2c-0.1,0.5,0,0.9,0,0.9s-0.6-0.3-0.6,0.5c0,0.8,0.2,3.1,0.6,3.9
						c0.4,0.8,1.9,2.9,2.1,3.8C486.2-24.7,488.3-25.3,488.3-25.3z"/>
				</g>
			</g>
			<g>
				<g>
					<path class="st31" d="M520-29.4c0,0-1.7-2.8-2.2-3.1c-0.6-0.3-1.4-0.4-2.1-0.9c-0.7-0.5-1.6-0.9-1.6-1.1
						c0.1-0.2,0.9-0.1,1.8,0.3c0.9,0.4,1.3,0.2,1.4,0c0.1-0.2-0.5-1.6-0.7-2c-0.3-0.3-2.2-2.3-1.9-2.5c0.3-0.3,1.6,0.8,1.8,1
						c0,0-1-2.1-0.6-2.2c0.4-0.1,1.1,0.6,1.1,0.6s-0.1-1.8,1.8,1.1c0,0-0.4-1,0.2-0.6c0.6,0.3,1.2,2.1,1.3,3c0.2,0.9,1,3.8,1.7,4.5
						C522.6-30.6,520-29.4,520-29.4z"/>
				</g>
			</g>
			<g>
				<g>
					<path class="st49" d="M513.4-18.3c0,0-0.9,0.1-2.8-0.6c-1.9-0.6-2-3.9-2.4-3.5c-0.8,0.8-1.6,0.2-1.9-0.2c0,0,0.9-1.2,0.5-1.8
						c-0.4-0.6-1.1-1-1.1-1s1.3-6.4,7.3-3.5C520.1-25.5,513.4-18.3,513.4-18.3z"/>
				</g>
			</g>
			<g>
				<g>
					<path class="st50" d="M506.7-14.9l0.2-0.9c0,0,3.8-0.1,5.9,0.2l0.2,1.1C513-14.5,510.3-13.3,506.7-14.9z"/>
				</g>
			</g>
			<g>
				<g>
					<path class="st31" d="M507.6-23.2c0.3-0.6,1.6-1,1.8,0.7c0.1,1.3-2.3,2.7-2.3,1.5C507.1-22.2,507.4-22.8,507.6-23.2z"/>
				</g>
			</g>
			<g>
				<g>
					<path class="st51" d="M488.2-25.8c0,0-1.4,0-2.1,0.6c0,0,0,0.4,0.1,0.7c0,0,1.2-0.6,2.1-0.7C488.4-25.2,488.4-25.7,488.2-25.8z
						"/>
				</g>
			</g>
			<g>
				<g>
					<circle class="st49" cx="487.1" cy="-25.3" r="0.6"/>
				</g>
			</g>
		</g>
		<g>
			<g>
				<g>
					<path class="st52" d="M452.6-74.7c0,0,2,3.4,2.8,3.9c1.1,0.7,0.4,1.5-0.1,1.5c-0.5,0-3.3,0.2-3.9-0.5c-0.6-0.7-0.9-2.7-1.5-3.3
						c-0.6-0.5-1.1-2.7,0.3-3.2C451.4-76.7,452.6-74.7,452.6-74.7z"/>
				</g>
			</g>
		</g>
		<g>
			<g>
				<g>
					<path class="st53" d="M451.7-76.1c0,0,2.3,3.9,2.7,4.5c0.4,0.6-0.7,0.6-1.4,0.3c-0.7-0.3-2.5-3.1-2.7-3.6
						c-0.3-0.6-0.1-1.3-0.1-1.3L451.7-76.1z"/>
				</g>
			</g>
		</g>
		<g>
			<g>
				<g>
					<polygon class="st52" points="449.4,-74 449.9,-70 450.2,-70 450.1,-72.9 					"/>
				</g>
			</g>
		</g>
		<g>
			<g>
				<g>
					<path class="st52" d="M433-74.7c0,0,2,3.4,2.8,3.9c1.1,0.7,0.4,1.5-0.1,1.5c-0.5,0-3.3,0.2-3.9-0.5c-0.6-0.7-0.9-2.7-1.5-3.3
						c-0.6-0.5-1.2-2.7,0.3-3.2C431.8-76.7,433-74.7,433-74.7z"/>
				</g>
			</g>
		</g>
		<g>
			<g>
				<g>
					<path class="st53" d="M432.2-76.1c0,0,2.1,3.9,2.5,4.5c0.4,0.6-0.7,0.6-1.4,0.3c-0.7-0.3-2.5-3.1-2.7-3.6
						c-0.3-0.6-0.1-1.3-0.1-1.3L432.2-76.1z"/>
				</g>
			</g>
		</g>
		<g>
			<g>
				<g>
					<polygon class="st52" points="429.8,-74 430.3,-70 430.6,-70 430.5,-72.9 					"/>
				</g>
			</g>
		</g>
		<g>
			<g>
				<g>
					<path class="st53" d="M424.2-105.2l17.9,8.2c0,0,2,0.6,2.2,2.9c0.7,6.9,5.9,17.9,5.9,17.9c1.7,0.8,1.5,0.1,1.5,0.1
						c-1-3.4-2.3-17.2-2.8-22.8c-0.1-1.2-0.2-2-0.2-2.2c0-0.2-0.2-0.4-0.5-0.7c-2.5-2-12.6-6.1-12.6-6.1
						C428.1-108.2,424.2-105.2,424.2-105.2z"/>
				</g>
			</g>
		</g>
		<g>
			<g>
				<g>
					<path class="st53" d="M420.8-101.7c0.6,4.8,7.5,4.3,7.5,4.3h8.4c0,0-2.2,4.9-3,9c-0.9,4.4-3,12.1-3,12.1s0.1,0.3,1.7,0.1
						c0,0,6.6-13.1,9.1-16.4c0.5-0.7,2.1-4.6,2.4-6.8c0.1-0.8,0-1.4-0.3-1.6c-0.3-0.2-1-0.7-1.8-1.3c-2.6-1.7-7.2-4.2-9.7-4.8
						c-3.4-0.8-8.8-2.2-8.8-2.2S420.2-106.5,420.8-101.7z"/>
				</g>
			</g>
		</g>
		<g>
			<path class="st54" d="M426.5-139c0,0-1.3-2.4-0.6-4.9c0.6-2.5,3-5.1,6.4-3.9c3.4,1.2,6.2,3.8,4.2,6.9c-2.1,3.1,1.9,4.5,0.9,6
				c-1,1.5-0.6,3-0.2,3.3c0.4,0.3,1.8,1.6,1.6,3c-0.2,1.4-6.7-4.2-6.7-4.2S428.5-139.9,426.5-139z"/>
		</g>
		<g>
			<path class="st55" d="M437-108.6c0,0-0.5,2.5-13.9-0.7C423.1-109.2,427.6-110.7,437-108.6z"/>
		</g>
		<g>
			<g>
				<path class="st56" d="M423-108.5c-0.2,0.4-0.4,0.8-0.6,1.2c4.9,0.1,9.8,0.3,14.7,0.4c-0.8-2.6-0.5-6.1-0.4-8.8
					c0.2-3.3,2-5.5,1.8-8.8c1,0.2,1.1,0.2,2.1,0.3c-1.5-4.2-2-6.3-6.6-7.9c-1.5-0.5-2.5-0.6-4.1-0.5c-5.3,0.4-6.9,0.5-9.6,5.3
					c4.1,0.7,3.4,2.1,4.7,6.2c0.6,2,1.2,4.2,0.9,6.3C425.5-112.7,423-110.4,423-108.5z"/>
			</g>
		</g>
		<g>
			<g>
				<path class="st31" d="M431.5-131c-2.2-0.4-1.7-1.6-1.7-1.6s0.1-0.7,0.1-1.5c0-0.2,0-0.5,0-0.7c0-0.4,0-0.7-0.1-1.1
					c-0.2-1.5,4-0.6,4-0.6s-0.2,3,0.3,3.8C434.7-131.8,433.6-130.6,431.5-131z"/>
			</g>
		</g>
		<g>
			<g>
				<path class="st31" d="M427.3-132.7c0,0,4.4,5.1,6,6.3c0,0,1.9-1.7,0.7-6.1C434-132.6,431.9-133.6,427.3-132.7z"/>
			</g>
		</g>
		<g>
			<path class="st31" d="M427.4-144.9c0,0-2.3,4.4,0,8.6c2.3,4.2,6.7-1.8,7-2.5c0.3-0.7,1.8-4.7-1.2-5.9
				C430.1-145.9,428.1-146.1,427.4-144.9z"/>
		</g>
		<g>
			<path class="st54" d="M428.2-143.3c0,0-1.6,2.1-1.8,3.6c0,0-0.6-2.9,1.1-5.7c1.8-2.8,6.3-0.1,6.9,1c0.6,1.1,2.4,2.1-0.6,6.8
				C433.8-137.6,428.5-141.3,428.2-143.3z"/>
		</g>
		<g>
			<path class="st57" d="M431.8-135.9c0,0-0.4,0.9-1.9,1.7c0-0.2,0-0.5,0-0.7C429.9-134.9,430.9-135,431.8-135.9z"/>
		</g>
		<g>
			<path class="st31" d="M408.7-112.5c0,0-1.1,0.5-1.6,0.3c-0.5-0.2-1.3-0.3-1.6-0.3c-0.3,0-1.4-0.4-1.4,0c0,0.4,1.7,0.7,2.1,0.8
				c0.3,0.1-1,0.9-1.2,1.2c-0.1,0.3,1.4,2.6,2.3,1.9c0.9-0.6,1.4-1.9,1.5-2c0.2-0.1,0.7-0.4,0.7-0.4L408.7-112.5z"/>
		</g>
		<g>
			<path class="st31" d="M405.3-110.6c0,0-2.5,2.1-2.6,2.4c0,0.3,0.1,0.4,0.3,0.2c0.2-0.2,2.5-2,2.5-2s-2.6,3-2.6,3.2
				c-0.1,0.1,0.2,0.4,0.3,0.3c0.1-0.1,2.9-2.9,2.9-2.9s-2.4,2.8-2.4,3c0,0.2,0.3,0.4,0.5,0.2c0.2-0.2,2.6-2.7,2.6-2.7
				s-1.6,2.2-1.5,2.4c0.1,0.1,0.3,0.4,0.7-0.2c0.4-0.6,1.5-1.8,1.5-1.8L405.3-110.6z"/>
		</g>
		<g>
			<g>
				<path class="st28" d="M435.8-97.4h-7.5c0,0-6.9,0.6-7.5-4.3c-0.6-4.8,2.3-7.5,2.3-7.5s3.6,1,6.8,1.7c1.6-0.3,3.5-0.6,5.8-0.5
					c0,0,13.5,4.5,13.1,6.8C448.8-101.2,443.1-104.2,435.8-97.4z"/>
			</g>
		</g>
		<g>
			<polygon class="st58" points="430.9,-105.8 445.2,-106 438,-102.3 			"/>
		</g>
		<g>
			<path class="st56" d="M435.3-107.6c0,0-3.2,1.2-7.2,0.1L428-109l8.1,0.5L435.3-107.6z"/>
		</g>
		<g>
			<polygon class="st59" points="438,-102.3 430.9,-105.1 430.9,-105.8 438.5,-103 			"/>
		</g>
		<g>
			<g>
				<path class="st60" d="M435.3-106.9c0,0.5,0.5,0.9,1,0.7l0.8-0.4c0.2-0.1,0.4-0.4,0.4-0.6c-0.3-2.2-1.1-10.6,0-12
					c0.4-0.5,0.6-1,0.8-1.4c0.7,1.8,1.6,4.2,2,5.5l6.8,9l2.3,0.6c-2.8-6.8-5.1-10.4-5.1-10.4c-0.4-1.2-1.7-4.8-2.8-8
					c-0.7-2-1.4-3.9-1.7-4.9c-0.2-0.5-0.5-0.9-1-1.2c-1-0.6-2.8-1.6-4.4-2.4c0,0,0,0,0,0c-0.1,0-0.1,0-0.2-0.1c0,0,0,0,0,0
					c0,0,0,0,0,0C437-128,435.9-115.2,435.3-106.9C435.3-106.9,435.3-106.9,435.3-106.9z"/>
			</g>
			<g>
				<path class="st60" d="M424.1-132.2c-1,0.1-3.4,2.5-4.6,4.8c-1.4,2.7-2.9,5.7-4,6.7c-2,1.8-7.7,8.3-8,8.2c-0.1-0.1,1.6,1.9,1.8,2
					c0.1,0,9.3-8,10.2-9.2c0.8-1.2,3.1-6,3.8-5.9c0,0,0,0,0,0c0,0,0,0,0,0c0.1,0.1,0.9,1.9,1.6,4.5c0,0,0,0.1,0,0.1
					c0.5,1.8,0.5,3.8,0.2,6c-0.2,1.7-1.5,4.4-2.2,5.7c-0.1,0.2-0.1,0.5,0,0.7v0c0.1,0.1,0.1,0.2,0.2,0.3l2.7,1l0.6,0.2
					c0.5,0.2,0.9,0.1,1.3-0.2c0.3-0.2,0.5-0.5,0.6-0.9c0.6-4.6,1.4-9.4,2-11.2c2.7-7.8-1-13.7-1-13.7S425-132.5,424.1-132.2z"/>
			</g>
		</g>
		<g>
			<polygon class="st61" points="438,-102.3 442.2,-113.9 455.9,-113.7 451.9,-103 			"/>
		</g>
		<g>
			
				<ellipse transform="matrix(-0.8943 -0.4474 0.4474 -0.8943 896.4178 -4.8387)" class="st62" cx="447.6" cy="-108.3" rx="1.2" ry="1.7"/>
		</g>
		<g>
			<path class="st54" d="M432.1-140.5c0,0,0.9,1.4,0.1,2.5c-0.8,1.2,0.2,2.3,0.4,3.6c0.2,1.2-3.4,4.6,0.6,6.2c4,1.7,5.2-1.1,4.2-2.6
				c-1-1.5-1.7-2.7-1.8-4.9C435.5-137.8,434.8-141.2,432.1-140.5z"/>
		</g>
		<g>
			<polygon class="st15" points="403.5,-156.9 420.3,-156.9 420.3,-144.7 420.3,-142.1 417.8,-144.7 403.5,-144.7 			"/>
		</g>
	</g>
</g>
</svg>
